<svg width="48" height="30" viewBox="0 0 48 30" fill="none" xmlns="http://www.w3.org/2000/svg">
<path fill-rule="evenodd" clip-rule="evenodd" d="M9.67885 23.1958C9.15314 23.1196 8.59429 23.0769 8 23.0769C3.62286 23.0769 1.17828 25.4088 0.241141 26.5708C0.0891412 26.7704 0.00800432 27.015 0.00800432 27.2677C0.00800432 27.2746 0.00799623 27.2815 0.00685338 27.2873C-3.76673e-06 27.7142 0 28.2796 0 28.8462C0 29.4831 0.512 30 1.14286 30H9.33943C9.21028 29.6331 9.14286 29.2431 9.14286 28.8462C9.14286 27.5331 9.14285 25.9685 9.14743 25.0442C9.14743 24.3865 9.33371 23.7461 9.67885 23.1958ZM35.4286 30H12.5714C12.2686 30 11.9771 29.8788 11.7634 29.6619C11.5486 29.4462 11.4286 29.1519 11.4286 28.8462C11.4286 27.5365 11.4286 25.9788 11.4331 25.0512C11.4331 25.0488 11.4331 25.0465 11.4331 25.0442C11.4331 24.7788 11.5246 24.5227 11.6903 24.3173C13.1086 22.6823 17.3943 18.4615 24 18.4615C31.4766 18.4615 35.2309 22.6742 36.3794 24.2631C36.5063 24.4581 36.5714 24.6785 36.5714 24.9035V28.8462C36.5714 29.1519 36.4514 29.4462 36.2366 29.6619C36.0229 29.8788 35.7314 30 35.4286 30ZM38.6606 30H46.8571C47.488 30 48 29.4831 48 28.8462V27.2665C48 27.0115 47.9166 26.7646 47.7634 26.5627C46.8217 25.4088 44.376 23.0769 40 23.0769C39.4366 23.0769 38.9051 23.115 38.4046 23.1842C38.7006 23.7069 38.8571 24.3 38.8571 24.9058V28.8462C38.8571 29.2431 38.7897 29.6331 38.6606 30ZM8 9.23077C4.84571 9.23077 2.28571 11.8154 2.28571 15C2.28571 18.1846 4.84571 20.7692 8 20.7692C11.1543 20.7692 13.7143 18.1846 13.7143 15C13.7143 11.8154 11.1543 9.23077 8 9.23077ZM40 9.23077C36.8457 9.23077 34.2857 11.8154 34.2857 15C34.2857 18.1846 36.8457 20.7692 40 20.7692C43.1543 20.7692 45.7143 18.1846 45.7143 15C45.7143 11.8154 43.1543 9.23077 40 9.23077ZM24 0C19.5851 0 16 3.61962 16 8.07692C16 12.5342 19.5851 16.1538 24 16.1538C28.4149 16.1538 32 12.5342 32 8.07692C32 3.61962 28.4149 0 24 0Z" fill="white"/>
</svg>
