<svg width="25" height="25" viewBox="0 0 25 25" fill="none" xmlns="http://www.w3.org/2000/svg">
<path d="M7.8125 7.03125C7.8125 6.10415 8.08742 5.19787 8.60249 4.42702C9.11756 3.65616 9.84964 3.05535 10.7062 2.70057C11.5627 2.34578 12.5052 2.25295 13.4145 2.43382C14.3238 2.61469 15.159 3.06113 15.8146 3.71669C16.4701 4.37225 16.9166 5.20748 17.0974 6.11677C17.2783 7.02605 17.1855 7.96855 16.8307 8.82508C16.4759 9.68161 15.8751 10.4137 15.1042 10.9288C14.3334 11.4438 13.4271 11.7188 12.5 11.7188C11.2568 11.7188 10.0645 11.2249 9.18544 10.3458C8.30636 9.46674 7.8125 8.27445 7.8125 7.03125ZM20.3125 22.6563H4.6875C4.0659 22.6563 3.46976 22.4093 3.03022 21.9698C2.59068 21.5302 2.34375 20.9341 2.34375 20.3125C2.34375 18.4477 3.08454 16.6593 4.40316 15.3407C5.72177 14.022 7.5102 13.2813 9.375 13.2813H15.625C17.4898 13.2813 19.2782 14.022 20.5968 15.3407C21.9155 16.6593 22.6562 18.4477 22.6562 20.3125C22.6562 20.9341 22.4093 21.5302 21.9698 21.9698C21.5302 22.4093 20.9341 22.6563 20.3125 22.6563Z" fill="#4C3221"/>
</svg>
