<svg width="30" height="26" viewBox="0 0 30 26" fill="none" xmlns="http://www.w3.org/2000/svg">
<path d="M7.8125 7.03125C7.8125 6.10415 8.08742 5.19787 8.60249 4.42702C9.11756 3.65616 9.84964 3.05535 10.7062 2.70057C11.5627 2.34578 12.5052 2.25295 13.4145 2.43382C14.3238 2.61469 15.159 3.06113 15.8146 3.71669C16.4701 4.37225 16.9166 5.20748 17.0974 6.11677C17.2783 7.02605 17.1855 7.96855 16.8307 8.82508C16.4759 9.68161 15.8751 10.4137 15.1042 10.9288C14.3334 11.4438 13.4271 11.7188 12.5 11.7188C11.2568 11.7188 10.0645 11.2249 9.18544 10.3458C8.30636 9.46674 7.8125 8.27445 7.8125 7.03125ZM20.3125 22.6563H4.6875C4.0659 22.6563 3.46976 22.4093 3.03022 21.9698C2.59068 21.5302 2.34375 20.9341 2.34375 20.3125C2.34375 18.4477 3.08454 16.6593 4.40316 15.3407C5.72177 14.022 7.5102 13.2813 9.375 13.2813H15.625C17.4898 13.2813 19.2782 14.022 20.5968 15.3407C21.9155 16.6593 22.6562 18.4477 22.6562 20.3125C22.6562 20.9341 22.4093 21.5302 21.9698 21.9698C21.5302 22.4093 20.9341 22.6563 20.3125 22.6563Z" fill="#6AB0E3"/>
<g clip-path="url(#clip0_3326_1478)">
<mask id="mask0_3326_1478" style="mask-type:luminance" maskUnits="userSpaceOnUse" x="13" y="9" width="17" height="17">
<path d="M30 9H13V26H30V9Z" fill="white"/>
</mask>
<g mask="url(#mask0_3326_1478)">
<path fill-rule="evenodd" clip-rule="evenodd" d="M22.6906 25.367C22.0481 25.4911 21.077 25.5051 20.4148 25.3904C20.2517 25.3622 20.0822 25.2106 20.036 25.0517L19.6065 23.5738C19.5603 23.4149 19.4067 23.2189 19.2636 23.1363L17.7073 22.2379C17.5641 22.1553 17.3181 22.1229 17.1585 22.1657L15.6925 22.5586C15.5329 22.6013 15.3166 22.5333 15.2101 22.4071C14.8005 21.9221 14.3351 21.1141 14.1219 20.5348C14.0647 20.3796 14.1112 20.157 14.2254 20.0375L15.3278 18.8882C15.442 18.7689 15.535 18.5378 15.535 18.3723V16.5754C15.535 16.4101 15.4401 16.1809 15.3233 16.064L14.2244 14.9654C14.1075 14.8485 14.0592 14.6278 14.1163 14.4727C14.1673 14.3343 14.3596 13.922 14.5907 13.522C14.8268 13.1132 15.0938 12.7331 15.1947 12.6128C15.3007 12.4861 15.5172 12.4151 15.6779 12.4547L17.2461 12.8399C17.4066 12.8792 17.6533 12.8441 17.7965 12.7615L19.3525 11.8629C19.4957 11.7803 19.6469 11.5835 19.6896 11.4238L20.0859 9.94456C20.1287 9.78492 20.2958 9.63298 20.4589 9.60535C21.0579 9.50442 21.9804 9.50521 22.5953 9.61571C22.7578 9.64493 22.9247 9.7982 22.9674 9.95784L23.3603 11.4238C23.4031 11.5835 23.5542 11.7803 23.6971 11.8629L25.2534 12.7615C25.3966 12.8441 25.6425 12.8765 25.8022 12.8338L27.2682 12.4409C27.4278 12.3981 27.644 12.4659 27.7505 12.592C28.1777 13.0978 28.6526 13.9327 28.8691 14.5388C28.9246 14.6947 28.8749 14.916 28.7581 15.0329L27.7266 16.064C27.6098 16.1809 27.5149 16.4101 27.5149 16.5754V18.3723C27.5149 18.5378 27.6098 18.7668 27.7266 18.8836L28.7735 19.9305C28.8903 20.0473 28.9405 20.2689 28.8856 20.4248C28.8247 20.5974 28.6199 21.0442 28.37 21.4775C28.1338 21.8863 27.8669 22.2664 27.7659 22.387C27.6597 22.5134 27.4437 22.5817 27.2841 22.5389L25.8914 22.1657C25.7315 22.1229 25.4858 22.1553 25.3426 22.2379L23.7863 23.1363C23.6432 23.2189 23.4923 23.4157 23.4495 23.5754L23.0623 25.0209C23.0195 25.1805 22.8529 25.3357 22.6906 25.367ZM17.9051 17.4997C17.9051 15.516 19.5154 13.9056 21.4991 13.9056C23.4825 13.9056 25.093 15.516 25.093 17.4997C25.093 19.4832 23.4825 21.0936 21.4991 21.0936C19.5154 21.0936 17.9051 19.4832 17.9051 17.4997Z" fill="#1D3774"/>
</g>
</g>
<defs>
<clipPath id="clip0_3326_1478">
<rect width="17" height="17" fill="white" transform="translate(13 9)"/>
</clipPath>
</defs>
</svg>
