<svg width="175" height="49" viewBox="0 0 175 49" fill="none" xmlns="http://www.w3.org/2000/svg">
<rect x="1" y="1" width="173" height="47" rx="23.5" fill="#D3C1B5" stroke="#4C3221" stroke-width="2"/>
<path d="M75.8164 22L80.1844 12.2H82.4244L86.8064 22H84.4264L80.8424 13.348H81.7384L78.1404 22H75.8164ZM78.0004 19.9L78.6024 18.178H83.6424L84.2584 19.9H78.0004ZM90.8348 22.112C90.1254 22.112 89.4861 21.9533 88.9168 21.636C88.3474 21.3093 87.8948 20.8567 87.5588 20.278C87.2321 19.6993 87.0688 19.018 87.0688 18.234C87.0688 17.4407 87.2321 16.7547 87.5588 16.176C87.8948 15.5973 88.3474 15.1493 88.9168 14.832C89.4861 14.5147 90.1254 14.356 90.8348 14.356C91.4694 14.356 92.0248 14.496 92.5008 14.776C92.9768 15.056 93.3454 15.4807 93.6068 16.05C93.8681 16.6193 93.9988 17.3473 93.9988 18.234C93.9988 19.1113 93.8728 19.8393 93.6208 20.418C93.3688 20.9873 93.0048 21.412 92.5288 21.692C92.0621 21.972 91.4974 22.112 90.8348 22.112ZM91.2128 20.32C91.5674 20.32 91.8894 20.236 92.1788 20.068C92.4681 19.9 92.6968 19.662 92.8648 19.354C93.0421 19.0367 93.1308 18.6633 93.1308 18.234C93.1308 17.7953 93.0421 17.422 92.8648 17.114C92.6968 16.806 92.4681 16.568 92.1788 16.4C91.8894 16.232 91.5674 16.148 91.2128 16.148C90.8488 16.148 90.5221 16.232 90.2328 16.4C89.9434 16.568 89.7101 16.806 89.5328 17.114C89.3648 17.422 89.2808 17.7953 89.2808 18.234C89.2808 18.6633 89.3648 19.0367 89.5328 19.354C89.7101 19.662 89.9434 19.9 90.2328 20.068C90.5221 20.236 90.8488 20.32 91.2128 20.32ZM93.1868 22V20.46L93.2288 18.22L93.0888 15.994V11.612H95.2728V22H93.1868ZM100.528 22.112C99.8188 22.112 99.1795 21.9533 98.6101 21.636C98.0408 21.3093 97.5881 20.8567 97.2521 20.278C96.9255 19.6993 96.7621 19.018 96.7621 18.234C96.7621 17.4407 96.9255 16.7547 97.2521 16.176C97.5881 15.5973 98.0408 15.1493 98.6101 14.832C99.1795 14.5147 99.8188 14.356 100.528 14.356C101.163 14.356 101.718 14.496 102.194 14.776C102.67 15.056 103.039 15.4807 103.3 16.05C103.561 16.6193 103.692 17.3473 103.692 18.234C103.692 19.1113 103.566 19.8393 103.314 20.418C103.062 20.9873 102.698 21.412 102.222 21.692C101.755 21.972 101.191 22.112 100.528 22.112ZM100.906 20.32C101.261 20.32 101.583 20.236 101.872 20.068C102.161 19.9 102.39 19.662 102.558 19.354C102.735 19.0367 102.824 18.6633 102.824 18.234C102.824 17.7953 102.735 17.422 102.558 17.114C102.39 16.806 102.161 16.568 101.872 16.4C101.583 16.232 101.261 16.148 100.906 16.148C100.542 16.148 100.215 16.232 99.9261 16.4C99.6368 16.568 99.4035 16.806 99.2261 17.114C99.0581 17.422 98.9741 17.7953 98.9741 18.234C98.9741 18.6633 99.0581 19.0367 99.2261 19.354C99.4035 19.662 99.6368 19.9 99.9261 20.068C100.215 20.236 100.542 20.32 100.906 20.32ZM102.88 22V20.46L102.922 18.22L102.782 15.994V11.612H104.966V22H102.88ZM111.106 22V12.2H112.982L118.764 19.256H117.854V12.2H120.094V22H118.232L112.436 14.944H113.346V22H111.106ZM125.997 22.112C125.138 22.112 124.382 21.944 123.729 21.608C123.085 21.272 122.586 20.8147 122.231 20.236C121.876 19.648 121.699 18.9807 121.699 18.234C121.699 17.478 121.872 16.8107 122.217 16.232C122.572 15.644 123.052 15.1867 123.659 14.86C124.266 14.524 124.952 14.356 125.717 14.356C126.454 14.356 127.117 14.5147 127.705 14.832C128.302 15.14 128.774 15.588 129.119 16.176C129.464 16.7547 129.637 17.45 129.637 18.262C129.637 18.346 129.632 18.444 129.623 18.556C129.614 18.6587 129.604 18.7567 129.595 18.85H123.477V17.576H128.447L127.607 17.954C127.607 17.562 127.528 17.2213 127.369 16.932C127.21 16.6427 126.991 16.4187 126.711 16.26C126.431 16.092 126.104 16.008 125.731 16.008C125.358 16.008 125.026 16.092 124.737 16.26C124.457 16.4187 124.238 16.6473 124.079 16.946C123.92 17.2353 123.841 17.5807 123.841 17.982V18.318C123.841 18.7287 123.93 19.0927 124.107 19.41C124.294 19.718 124.55 19.956 124.877 20.124C125.213 20.2827 125.605 20.362 126.053 20.362C126.454 20.362 126.804 20.3013 127.103 20.18C127.411 20.0587 127.691 19.8767 127.943 19.634L129.105 20.894C128.76 21.286 128.326 21.5893 127.803 21.804C127.28 22.0093 126.678 22.112 125.997 22.112ZM132.676 22L129.96 14.468H132.018L134.272 20.95H133.292L135.644 14.468H137.492L139.774 20.95H138.794L141.118 14.468H143.05L140.32 22H138.206L136.204 16.442H136.848L134.776 22H132.676ZM91.5145 39V29.2H96.3025C97.5345 29.2 98.4585 29.4333 99.0745 29.9C99.6999 30.3667 100.013 30.9827 100.013 31.748C100.013 32.2613 99.8865 32.7093 99.6345 33.092C99.3825 33.4653 99.0372 33.7547 98.5985 33.96C98.1599 34.1653 97.6559 34.268 97.0865 34.268L97.3525 33.694C97.9685 33.694 98.5145 33.7967 98.9905 34.002C99.4665 34.198 99.8352 34.492 100.097 34.884C100.367 35.276 100.503 35.7567 100.503 36.326C100.503 37.166 100.171 37.824 99.5085 38.3C98.8459 38.7667 97.8705 39 96.5825 39H91.5145ZM93.7685 37.292H96.4145C97.0025 37.292 97.4459 37.1987 97.7445 37.012C98.0525 36.816 98.2065 36.508 98.2065 36.088C98.2065 35.6773 98.0525 35.374 97.7445 35.178C97.4459 34.9727 97.0025 34.87 96.4145 34.87H93.6005V33.218H96.0225C96.5732 33.218 96.9932 33.1247 97.2825 32.938C97.5812 32.742 97.7305 32.448 97.7305 32.056C97.7305 31.6733 97.5812 31.3887 97.2825 31.202C96.9932 31.006 96.5732 30.908 96.0225 30.908H93.7685V37.292ZM105.65 39.112C104.847 39.112 104.133 38.944 103.508 38.608C102.892 38.272 102.402 37.8147 102.038 37.236C101.683 36.648 101.506 35.9807 101.506 35.234C101.506 34.478 101.683 33.8107 102.038 33.232C102.402 32.644 102.892 32.1867 103.508 31.86C104.133 31.524 104.847 31.356 105.65 31.356C106.443 31.356 107.152 31.524 107.778 31.86C108.403 32.1867 108.893 32.6393 109.248 33.218C109.602 33.7967 109.78 34.4687 109.78 35.234C109.78 35.9807 109.602 36.648 109.248 37.236C108.893 37.8147 108.403 38.272 107.778 38.608C107.152 38.944 106.443 39.112 105.65 39.112ZM105.65 37.32C106.014 37.32 106.34 37.236 106.63 37.068C106.919 36.9 107.148 36.662 107.316 36.354C107.484 36.0367 107.568 35.6633 107.568 35.234C107.568 34.7953 107.484 34.422 107.316 34.114C107.148 33.806 106.919 33.568 106.63 33.4C106.34 33.232 106.014 33.148 105.65 33.148C105.286 33.148 104.959 33.232 104.67 33.4C104.38 33.568 104.147 33.806 103.97 34.114C103.802 34.422 103.718 34.7953 103.718 35.234C103.718 35.6633 103.802 36.0367 103.97 36.354C104.147 36.662 104.38 36.9 104.67 37.068C104.959 37.236 105.286 37.32 105.65 37.32ZM114.823 39.112C114.021 39.112 113.307 38.944 112.681 38.608C112.065 38.272 111.575 37.8147 111.211 37.236C110.857 36.648 110.679 35.9807 110.679 35.234C110.679 34.478 110.857 33.8107 111.211 33.232C111.575 32.644 112.065 32.1867 112.681 31.86C113.307 31.524 114.021 31.356 114.823 31.356C115.617 31.356 116.326 31.524 116.951 31.86C117.577 32.1867 118.067 32.6393 118.421 33.218C118.776 33.7967 118.953 34.4687 118.953 35.234C118.953 35.9807 118.776 36.648 118.421 37.236C118.067 37.8147 117.577 38.272 116.951 38.608C116.326 38.944 115.617 39.112 114.823 39.112ZM114.823 37.32C115.187 37.32 115.514 37.236 115.803 37.068C116.093 36.9 116.321 36.662 116.489 36.354C116.657 36.0367 116.741 35.6633 116.741 35.234C116.741 34.7953 116.657 34.422 116.489 34.114C116.321 33.806 116.093 33.568 115.803 33.4C115.514 33.232 115.187 33.148 114.823 33.148C114.459 33.148 114.133 33.232 113.843 33.4C113.554 33.568 113.321 33.806 113.143 34.114C112.975 34.422 112.891 34.7953 112.891 35.234C112.891 35.6633 112.975 36.0367 113.143 36.354C113.321 36.662 113.554 36.9 113.843 37.068C114.133 37.236 114.459 37.32 114.823 37.32ZM122.219 37.46L122.275 34.8L125.789 31.468H128.393L125.019 34.898L123.885 35.822L122.219 37.46ZM120.413 39V28.612H122.597V39H120.413ZM126.027 39L123.479 35.836L124.851 34.142L128.673 39H126.027Z" fill="#4C3221"/>
<path d="M61 8V42" stroke="#4C3221" stroke-width="2" stroke-linecap="round"/>
<path fill-rule="evenodd" clip-rule="evenodd" d="M20.1011 15.3445C20 15.8346 20 16.423 20 17.5997V27C20 32.0283 20 34.5425 21.7085 36.1045C23.4171 37.6667 26.1669 37.6667 31.6667 37.6667H37.5C42.9997 37.6667 45.7496 37.6667 47.4581 36.1045C49.1667 34.5425 49.1667 32.0283 49.1667 27V24.0639C49.1667 20.5541 49.1667 18.7991 48.0445 17.6584C47.9414 17.5535 47.8321 17.4537 47.7174 17.3593C46.4696 16.3333 44.5503 16.3333 40.7114 16.3333H40.1664C38.4839 16.3333 37.6428 16.3333 36.8589 16.129C36.4283 16.0168 36.0131 15.8596 35.6218 15.6606C34.9096 15.2982 34.3147 14.7544 33.125 13.6667L32.3225 12.933C31.9238 12.5684 31.7244 12.3861 31.5149 12.2273C30.6116 11.5427 29.5034 11.1231 28.3352 11.0232C28.0642 11 27.7823 11 27.2184 11C25.9314 11 25.2878 11 24.7518 11.0925C22.3921 11.4995 20.5464 13.1871 20.1011 15.3445ZM34.5833 23.3333C35.1874 23.3333 35.6771 23.7811 35.6771 24.3333V26H37.5C38.104 26 38.5937 26.4477 38.5937 27C38.5937 27.5523 38.104 28 37.5 28H35.6771V29.6667C35.6771 30.2189 35.1874 30.6667 34.5833 30.6667C33.9793 30.6667 33.4896 30.2189 33.4896 29.6667V28H31.6667C31.0626 28 30.5729 27.5523 30.5729 27C30.5729 26.4477 31.0626 26 31.6667 26H33.4896V24.3333C33.4896 23.7811 33.9793 23.3333 34.5833 23.3333Z" fill="#4C3221"/>
</svg>
