<svg width="29" height="29" viewBox="0 0 29 29" fill="none" xmlns="http://www.w3.org/2000/svg">
<path opacity="0.1" d="M27 14.5C27 21.4036 21.4036 27 14.5 27C7.59644 27 2 21.4036 2 14.5C2 7.59644 7.59644 2 14.5 2C21.4036 2 27 7.59644 27 14.5Z" fill="#5C3E2A"/>
<path d="M10.333 14.5H18.6663" stroke="#1D3774" stroke-width="3" stroke-linecap="round" stroke-linejoin="round"/>
<path d="M14.5 10.333V18.6663" stroke="#1D3774" stroke-width="3" stroke-linecap="round" stroke-linejoin="round"/>
<path d="M27 14.5C27 21.4036 21.4036 27 14.5 27C7.59644 27 2 21.4036 2 14.5C2 7.59644 7.59644 2 14.5 2C21.4036 2 27 7.59644 27 14.5Z" stroke="#1D3774" stroke-width="3"/>
</svg>
