<svg width="116" height="127" viewBox="0 0 116 127" fill="none" xmlns="http://www.w3.org/2000/svg">
<path d="M98.3845 50.9109C96.8544 50.9109 95.387 51.574 94.3051 52.7545C93.2231 53.935 92.6153 55.5361 92.6153 57.2055V78.4814L84.0769 69.1653C81.062 65.9018 76.9872 64.0706 72.7403 64.0706C68.4934 64.0706 64.4186 65.9018 61.4038 69.1653L57.3653 73.6345L43.0576 57.9609C40.0427 54.6974 35.968 52.8661 31.7211 52.8661C27.4742 52.8661 23.3994 54.6974 20.3845 57.9609L11.8461 67.3399V32.0269C11.8461 30.3575 12.4539 28.7564 13.5358 27.5759C14.6178 26.3955 16.0852 25.7323 17.6153 25.7323H63.7692C65.2993 25.7323 66.7667 25.0691 67.8486 23.8886C68.9306 22.7082 69.5384 21.1071 69.5384 19.4376C69.5384 17.7682 68.9306 16.1671 67.8486 14.9867C66.7667 13.8062 65.2993 13.143 63.7692 13.143H17.6153C13.025 13.143 8.62275 15.1325 5.37692 18.674C2.1311 22.2154 0.307617 27.0186 0.307617 32.0269V108.947C0.322819 113.583 2.01746 118.025 5.02197 121.303C8.02647 124.581 12.0971 126.43 16.3461 126.447H88.1153C89.6787 126.433 91.2325 126.179 92.7307 125.691C96.0621 124.672 98.9949 122.488 101.079 119.475C103.163 116.461 104.284 112.785 104.269 109.01V57.2055C104.269 56.3682 104.116 55.5392 103.819 54.7672C103.522 53.9952 103.087 53.2956 102.539 52.7094C101.991 52.1232 101.341 51.6622 100.628 51.3534C99.9145 51.0446 99.1518 50.8941 98.3845 50.9109ZM17.6153 113.857C16.0852 113.857 14.6178 113.194 13.5358 112.014C12.4539 110.833 11.8461 109.232 11.8461 107.563V85.0908L28.5192 66.8993C29.3623 65.9844 30.5031 65.4709 31.6922 65.4709C32.8814 65.4709 34.0221 65.9844 34.8653 66.8993L77.9615 113.857H17.6153ZM92.6153 107.563C92.5783 108.782 92.2175 109.962 91.5768 110.962L65.4999 82.3841L69.5961 77.9778C70.0097 77.5172 70.5034 77.1513 71.0482 76.9015C71.5931 76.6517 72.1782 76.5231 72.7692 76.5231C73.3602 76.5231 73.9452 76.6517 74.4901 76.9015C75.0349 77.1513 75.5286 77.5172 75.9422 77.9778L92.6153 96.2952V107.563ZM109.923 13.143H104.154V6.84835C104.154 5.17891 103.546 3.57784 102.464 2.39737C101.382 1.21689 99.9146 0.553711 98.3845 0.553711C96.8544 0.553711 95.387 1.21689 94.3051 2.39737C93.2231 3.57784 92.6153 5.17891 92.6153 6.84835V13.143H86.8461C85.316 13.143 83.8486 13.8062 82.7666 14.9867C81.6847 16.1671 81.0768 17.7682 81.0768 19.4376C81.0768 21.1071 81.6847 22.7082 82.7666 23.8886C83.8486 25.0691 85.316 25.7323 86.8461 25.7323H92.6153V32.0269C92.6153 33.6964 93.2231 35.2974 94.3051 36.4779C95.387 37.6584 96.8544 38.3216 98.3845 38.3216C99.9146 38.3216 101.382 37.6584 102.464 36.4779C103.546 35.2974 104.154 33.6964 104.154 32.0269V25.7323H109.923C111.453 25.7323 112.921 25.0691 114.002 23.8886C115.084 22.7082 115.692 21.1071 115.692 19.4376C115.692 17.7682 115.084 16.1671 114.002 14.9867C112.921 13.8062 111.453 13.143 109.923 13.143Z" fill="#6AB0E3"/>
</svg>
