<svg width="35" height="32" viewBox="0 0 35 32" fill="none" xmlns="http://www.w3.org/2000/svg">
<rect width="35" height="32" fill="#292929"/>
<g id="USERS | Homepage" clip-path="url(#clip0_0_1)">
<rect width="1440" height="1024" transform="translate(-1032 -399)" fill="white"/>
<rect id="Rectangle 63" x="-25.5" y="-18.5" width="384" height="68" rx="8.5" fill="white" fill-opacity="0.9" stroke="#395886" stroke-width="3"/>
<g id="Group 175">
<path id="Vector" fill-rule="evenodd" clip-rule="evenodd" d="M6.10693 20.2815H20.3569C23.1853 20.2815 24.5995 20.2815 25.4782 19.4328C26.3569 18.5842 26.3569 17.2183 26.3569 14.4866V7.24309C26.3569 4.51137 26.3569 3.14551 25.4782 2.29688C24.5995 1.44824 23.1853 1.44824 20.3569 1.44824H8.35693C5.5285 1.44824 4.11429 1.44824 3.23562 2.29688C2.35693 3.14551 2.35693 4.51137 2.35693 7.24309V23.9033C2.35693 21.903 4.03587 20.2815 6.10693 20.2815ZM20.9782 10.7406C22.1499 9.60908 22.1499 7.77454 20.9782 6.64302C19.8067 5.5115 17.9071 5.5115 16.7356 6.64302L12.8569 10.3891L11.9782 9.54044C10.8067 8.40893 8.90719 8.40893 7.73562 9.54044C6.56404 10.6719 6.56404 12.5065 7.73562 13.638L9.67495 15.511C11.4324 17.2083 14.2815 17.2083 16.0389 15.511L20.9782 10.7406Z" fill="#9CD5FF"/>
<path id="Vector_2" d="M12 10.3895L10.9394 11.4139L12 12.4384L13.0606 11.4139L12 10.3895ZM19.5 18.8333H5.25V21.7307H19.5V18.8333ZM23.5606 18.4089C23.4465 18.5192 23.2425 18.6557 22.5919 18.7401C21.8982 18.8302 20.9566 18.8333 19.5 18.8333V21.7307C20.8717 21.7307 22.0515 21.7337 22.9917 21.6117C23.9749 21.484 24.9175 21.1961 25.6819 20.4577L23.5606 18.4089ZM24 14.4871C24 15.894 23.9968 16.8033 23.9035 17.4734C23.8161 18.1017 23.6748 18.2987 23.5606 18.4089L25.6819 20.4577C26.4465 19.7194 26.7445 18.8091 26.8768 17.8594C27.0031 16.9514 27 15.812 27 14.4871H24ZM24 7.24357V14.4871H27V7.24357H24ZM23.5606 3.32174C23.6748 3.43203 23.8161 3.62897 23.9035 4.25734C23.9968 4.92738 24 5.83675 24 7.24357H27C27 5.91866 27.0031 4.77925 26.8768 3.87127C26.7445 2.92161 26.4465 2.01131 25.6819 1.27296L23.5606 3.32174ZM19.5 2.89743C20.9566 2.89743 21.8982 2.9005 22.5919 2.9906C23.2425 3.07507 23.4465 3.21147 23.5606 3.32174L25.6819 1.27296C24.9175 0.534611 23.9749 0.246679 22.9917 0.119004C22.0515 -0.00306427 20.8717 7.04989e-06 19.5 7.04989e-06V2.89743ZM7.5 2.89743H19.5V7.04989e-06H7.5V2.89743ZM3.43934 3.32174C3.55354 3.21147 3.75745 3.07507 4.40805 2.9906C5.10182 2.9005 6.04338 2.89743 7.5 2.89743V7.04989e-06C6.12819 7.04989e-06 4.94844 -0.00306427 4.00832 0.119004C3.02504 0.246679 2.08252 0.534611 1.31803 1.27296L3.43934 3.32174ZM3.00001 7.24357C3.00001 5.83675 3.00319 4.92738 3.09647 4.25734C3.18394 3.62897 3.32516 3.43203 3.43934 3.32174L1.31803 1.27296C0.553537 2.01131 0.255412 2.92161 0.123217 3.87127C-0.00317275 4.77925 7.29947e-06 5.91866 7.29947e-06 7.24357H3.00001ZM3.00001 23.9038V7.24357H7.29947e-06V23.9038H3.00001ZM5.25 18.8333C2.35051 18.8333 7.29947e-06 21.1034 7.29947e-06 23.9038H3.00001C3.00001 22.7036 4.00736 21.7307 5.25 21.7307V18.8333ZM19.0606 7.66788C19.6464 8.23365 19.6464 9.15091 19.0606 9.71668L21.1819 11.7654C22.9393 10.0682 22.9393 7.31636 21.1819 5.6191L19.0606 7.66788ZM16.9393 7.66788C17.5251 7.10213 18.4749 7.10213 19.0606 7.66788L21.1819 5.6191C19.4245 3.92183 16.5754 3.92183 14.818 5.6191L16.9393 7.66788ZM13.0606 11.4139L16.9393 7.66788L14.818 5.6191L10.9394 9.36516L13.0606 11.4139ZM10.0607 10.5653L10.9394 11.4139L13.0606 9.36516L12.1819 8.51652L10.0607 10.5653ZM7.93934 10.5653C8.52513 9.99955 9.47487 9.99955 10.0607 10.5653L12.1819 8.51652C10.4246 6.81925 7.57538 6.81925 5.81802 8.51652L7.93934 10.5653ZM7.93934 12.6141C7.35356 12.0484 7.35356 11.1311 7.93934 10.5653L5.81802 8.51652C4.06067 10.2138 4.06067 12.9655 5.81802 14.6629L7.93934 12.6141ZM9.87869 14.4871L7.93934 12.6141L5.81802 14.6629L7.75736 16.5359L9.87869 14.4871ZM14.1213 14.4871C12.9498 15.6186 11.0502 15.6186 9.87869 14.4871L7.75736 16.5359C10.1005 18.7989 13.8994 18.7989 16.2426 16.5359L14.1213 14.4871ZM19.0606 9.71668L14.1213 14.4871L16.2426 16.5359L21.1819 11.7654L19.0606 9.71668ZM12 26.0768H5.25V28.9742H12V26.0768ZM7.29947e-06 23.9038C7.29947e-06 26.7041 2.35051 28.9742 5.25 28.9742V26.0768C4.00736 26.0768 3.00001 25.1039 3.00001 23.9038H7.29947e-06Z" fill="#9CD5FF"/>
<path id="Vector_3" d="M24.3914 27.8438H9.39136" stroke="#9CD5FF" stroke-width="3" stroke-linecap="round"/>
<g id="pepicons-pop:checkmark-filled">
<path id="Vector_4" fill-rule="evenodd" clip-rule="evenodd" d="M18.2129 17.8002C18.2279 18.5592 17.8149 19.5852 17.2779 20.1212C16.7797 20.62 16.4998 21.2962 16.4998 22.0012C16.4998 22.7062 16.7797 23.3824 17.2779 23.8812C17.8079 24.4092 18.1979 25.3252 18.2129 26.0732C18.2269 26.7352 18.4859 27.3932 18.9909 27.8972C19.4569 28.3641 20.0801 28.6404 20.7389 28.6722C21.5299 28.7122 22.5659 29.1722 23.1259 29.7322C23.6247 30.2302 24.3007 30.5099 25.0054 30.5099C25.7102 30.5099 26.3862 30.2302 26.8849 29.7322C27.4449 29.1722 28.4809 28.7122 29.2719 28.6722C29.9308 28.6404 30.554 28.3641 31.0199 27.8972C31.5057 27.4121 31.7842 26.7575 31.7969 26.0712C31.8119 25.3252 32.1969 24.4152 32.7259 23.8872C33.2261 23.3886 33.5078 22.7117 33.5089 22.0054C33.51 21.2992 33.2305 20.6214 32.7319 20.1212C32.1959 19.5862 31.7819 18.5592 31.7979 17.8012C31.8055 17.4433 31.7404 17.0876 31.6067 16.7556C31.473 16.4235 31.2734 16.122 31.0199 15.8692C30.7573 15.6058 30.4421 15.4007 30.0949 15.2672C29.7478 15.1337 29.3764 15.0747 29.0049 15.0942C28.2909 15.1302 27.3899 14.7842 26.8849 14.2782C26.3862 13.7799 25.71 13.5 25.0049 13.5C24.2999 13.5 23.6237 13.7799 23.1249 14.2782C22.6209 14.7832 21.7189 15.1302 21.0049 15.0942C20.6337 15.0749 20.2625 15.1339 19.9155 15.2674C19.5685 15.4009 19.2535 15.606 18.9909 15.8692C18.7376 16.1219 18.5381 16.4232 18.4044 16.7551C18.2707 17.087 18.2056 17.4425 18.2129 17.8002ZM28.0409 18.6262C28.1558 18.6899 28.257 18.7757 28.3387 18.8785C28.4204 18.9814 28.4811 19.0993 28.5172 19.2256C28.5533 19.3519 28.5642 19.4841 28.5492 19.6146C28.5343 19.7451 28.4937 19.8714 28.4299 19.9862L25.6619 24.9682C25.5902 25.1039 25.4883 25.2212 25.3639 25.3112C25.1833 25.4419 24.9641 25.5085 24.7412 25.5003C24.5183 25.4922 24.3046 25.4098 24.1339 25.2662L21.3749 23.0592C21.2724 22.9771 21.187 22.8756 21.1236 22.7606C21.0603 22.6455 21.0202 22.5191 21.0058 22.3885C20.9913 22.2579 21.0026 22.1258 21.0392 21.9996C21.0758 21.8735 21.1369 21.7558 21.2189 21.6532C21.301 21.5506 21.4025 21.4652 21.5176 21.4019C21.6327 21.3385 21.7591 21.2985 21.8896 21.284C22.0202 21.2695 22.1523 21.2809 22.2785 21.3175C22.4047 21.354 22.5224 21.4151 22.6249 21.4972L24.4779 22.9802L26.6809 19.0142C26.7448 18.8994 26.8306 18.7983 26.9335 18.7167C27.0363 18.6351 27.1543 18.5745 27.2806 18.5385C27.4069 18.5025 27.539 18.4917 27.6695 18.5067C27.8 18.5218 27.9262 18.5624 28.0409 18.6262Z" fill="#395886"/>
</g>
</g>
</g>
<defs>
<clipPath id="clip0_0_1">
<rect width="1440" height="1024" fill="white" transform="translate(-1032 -399)"/>
</clipPath>
</defs>
</svg>
