<svg width="258" height="95" viewBox="0 0 258 95" fill="none" xmlns="http://www.w3.org/2000/svg">
<rect x="1" y="1" width="255.336" height="92.7405" rx="9" fill="#BC9F8B" fill-opacity="0.59" stroke="#4C3221" stroke-width="2"/>
<path d="M75.5361 16.6433V76.8163" stroke="#4C3221" stroke-width="2" stroke-linecap="round"/>
<path d="M107.419 72.8931V63.0931H112.207C113.439 63.0931 114.363 63.3264 114.979 63.7931C115.604 64.2597 115.917 64.8757 115.917 65.6411C115.917 66.1544 115.791 66.6024 115.539 66.9851C115.287 67.3584 114.941 67.6477 114.503 67.8531C114.064 68.0584 113.56 68.1611 112.991 68.1611L113.257 67.5871C113.873 67.5871 114.419 67.6897 114.895 67.8951C115.371 68.0911 115.739 68.3851 116.001 68.7771C116.271 69.1691 116.407 69.6497 116.407 70.2191C116.407 71.0591 116.075 71.7171 115.413 72.1931C114.75 72.6597 113.775 72.8931 112.487 72.8931H107.419ZM109.673 71.1851H112.319C112.907 71.1851 113.35 71.0917 113.649 70.9051C113.957 70.7091 114.111 70.4011 114.111 69.9811C114.111 69.5704 113.957 69.2671 113.649 69.0711C113.35 68.8657 112.907 68.7631 112.319 68.7631H109.505V67.1111H111.927C112.477 67.1111 112.897 67.0177 113.187 66.8311C113.485 66.6351 113.635 66.3411 113.635 65.9491C113.635 65.5664 113.485 65.2817 113.187 65.0951C112.897 64.8991 112.477 64.8011 111.927 64.8011H109.673V71.1851ZM121.554 73.0051C120.751 73.0051 120.037 72.8371 119.412 72.5011C118.796 72.1651 118.306 71.7077 117.942 71.1291C117.587 70.5411 117.41 69.8737 117.41 69.1271C117.41 68.3711 117.587 67.7037 117.942 67.1251C118.306 66.5371 118.796 66.0797 119.412 65.7531C120.037 65.4171 120.751 65.2491 121.554 65.2491C122.347 65.2491 123.057 65.4171 123.682 65.7531C124.307 66.0797 124.797 66.5324 125.152 67.1111C125.507 67.6897 125.684 68.3617 125.684 69.1271C125.684 69.8737 125.507 70.5411 125.152 71.1291C124.797 71.7077 124.307 72.1651 123.682 72.5011C123.057 72.8371 122.347 73.0051 121.554 73.0051ZM121.554 71.2131C121.918 71.2131 122.245 71.1291 122.534 70.9611C122.823 70.7931 123.052 70.5551 123.22 70.2471C123.388 69.9297 123.472 69.5564 123.472 69.1271C123.472 68.6884 123.388 68.3151 123.22 68.0071C123.052 67.6991 122.823 67.4611 122.534 67.2931C122.245 67.1251 121.918 67.0411 121.554 67.0411C121.19 67.0411 120.863 67.1251 120.574 67.2931C120.285 67.4611 120.051 67.6991 119.874 68.0071C119.706 68.3151 119.622 68.6884 119.622 69.1271C119.622 69.5564 119.706 69.9297 119.874 70.2471C120.051 70.5551 120.285 70.7931 120.574 70.9611C120.863 71.1291 121.19 71.2131 121.554 71.2131ZM127.144 72.8931V65.3611H129.23V67.4891L128.936 66.8731C129.16 66.3411 129.519 65.9397 130.014 65.6691C130.508 65.3891 131.11 65.2491 131.82 65.2491V67.2651C131.726 67.2557 131.642 67.2511 131.568 67.2511C131.493 67.2417 131.414 67.2371 131.33 67.2371C130.732 67.2371 130.247 67.4097 129.874 67.7551C129.51 68.0911 129.328 68.6184 129.328 69.3371V72.8931H127.144ZM133.132 72.8931V65.3611H135.218V67.4891L134.924 66.8731C135.148 66.3411 135.507 65.9397 136.002 65.6691C136.497 65.3891 137.099 65.2491 137.808 65.2491V67.2651C137.715 67.2557 137.631 67.2511 137.556 67.2511C137.481 67.2417 137.402 67.2371 137.318 67.2371C136.721 67.2371 136.235 67.4097 135.862 67.7551C135.498 68.0911 135.316 68.6184 135.316 69.3371V72.8931H133.132ZM142.636 73.0051C141.833 73.0051 141.119 72.8371 140.494 72.5011C139.878 72.1651 139.388 71.7077 139.024 71.1291C138.669 70.5411 138.492 69.8737 138.492 69.1271C138.492 68.3711 138.669 67.7037 139.024 67.1251C139.388 66.5371 139.878 66.0797 140.494 65.7531C141.119 65.4171 141.833 65.2491 142.636 65.2491C143.429 65.2491 144.139 65.4171 144.764 65.7531C145.389 66.0797 145.879 66.5324 146.234 67.1111C146.589 67.6897 146.766 68.3617 146.766 69.1271C146.766 69.8737 146.589 70.5411 146.234 71.1291C145.879 71.7077 145.389 72.1651 144.764 72.5011C144.139 72.8371 143.429 73.0051 142.636 73.0051ZM142.636 71.2131C143 71.2131 143.327 71.1291 143.616 70.9611C143.905 70.7931 144.134 70.5551 144.302 70.2471C144.47 69.9297 144.554 69.5564 144.554 69.1271C144.554 68.6884 144.47 68.3151 144.302 68.0071C144.134 67.6991 143.905 67.4611 143.616 67.2931C143.327 67.1251 143 67.0411 142.636 67.0411C142.272 67.0411 141.945 67.1251 141.656 67.2931C141.367 67.4611 141.133 67.6991 140.956 68.0071C140.788 68.3151 140.704 68.6884 140.704 69.1271C140.704 69.5564 140.788 69.9297 140.956 70.2471C141.133 70.5551 141.367 70.7931 141.656 70.9611C141.945 71.1291 142.272 71.2131 142.636 71.2131ZM149.743 72.8931L147.027 65.3611H149.085L151.339 71.8431H150.359L152.711 65.3611H154.559L156.841 71.8431H155.861L158.185 65.3611H160.117L157.387 72.8931H155.273L153.271 67.3351H153.915L151.843 72.8931H149.743ZM164.665 73.0051C163.806 73.0051 163.05 72.8371 162.397 72.5011C161.753 72.1651 161.254 71.7077 160.899 71.1291C160.544 70.5411 160.367 69.8737 160.367 69.1271C160.367 68.3711 160.54 67.7037 160.885 67.1251C161.24 66.5371 161.72 66.0797 162.327 65.7531C162.934 65.4171 163.62 65.2491 164.385 65.2491C165.122 65.2491 165.785 65.4077 166.373 65.7251C166.97 66.0331 167.442 66.4811 167.787 67.0691C168.132 67.6477 168.305 68.3431 168.305 69.1551C168.305 69.2391 168.3 69.3371 168.291 69.4491C168.282 69.5517 168.272 69.6497 168.263 69.7431H162.145V68.4691H167.115L166.275 68.8471C166.275 68.4551 166.196 68.1144 166.037 67.8251C165.878 67.5357 165.659 67.3117 165.379 67.1531C165.099 66.9851 164.772 66.9011 164.399 66.9011C164.026 66.9011 163.694 66.9851 163.405 67.1531C163.125 67.3117 162.906 67.5404 162.747 67.8391C162.588 68.1284 162.509 68.4737 162.509 68.8751V69.2111C162.509 69.6217 162.598 69.9857 162.775 70.3031C162.962 70.6111 163.218 70.8491 163.545 71.0171C163.881 71.1757 164.273 71.2551 164.721 71.2551C165.122 71.2551 165.472 71.1944 165.771 71.0731C166.079 70.9517 166.359 70.7697 166.611 70.5271L167.773 71.7871C167.428 72.1791 166.994 72.4824 166.471 72.6971C165.948 72.9024 165.346 73.0051 164.665 73.0051ZM172.993 73.0051C172.284 73.0051 171.644 72.8464 171.075 72.5291C170.506 72.2024 170.053 71.7497 169.717 71.1711C169.39 70.5924 169.227 69.9111 169.227 69.1271C169.227 68.3337 169.39 67.6477 169.717 67.0691C170.053 66.4904 170.506 66.0424 171.075 65.7251C171.644 65.4077 172.284 65.2491 172.993 65.2491C173.628 65.2491 174.183 65.3891 174.659 65.6691C175.135 65.9491 175.504 66.3737 175.765 66.9431C176.026 67.5124 176.157 68.2404 176.157 69.1271C176.157 70.0044 176.031 70.7324 175.779 71.3111C175.527 71.8804 175.163 72.3051 174.687 72.5851C174.22 72.8651 173.656 73.0051 172.993 73.0051ZM173.371 71.2131C173.726 71.2131 174.048 71.1291 174.337 70.9611C174.626 70.7931 174.855 70.5551 175.023 70.2471C175.2 69.9297 175.289 69.5564 175.289 69.1271C175.289 68.6884 175.2 68.3151 175.023 68.0071C174.855 67.6991 174.626 67.4611 174.337 67.2931C174.048 67.1251 173.726 67.0411 173.371 67.0411C173.007 67.0411 172.68 67.1251 172.391 67.2931C172.102 67.4611 171.868 67.6991 171.691 68.0071C171.523 68.3151 171.439 68.6884 171.439 69.1271C171.439 69.5564 171.523 69.9297 171.691 70.2471C171.868 70.5551 172.102 70.7931 172.391 70.9611C172.68 71.1291 173.007 71.2131 173.371 71.2131ZM175.345 72.8931V71.3531L175.387 69.1131L175.247 66.8871V62.5051H177.431V72.8931H175.345ZM183.571 72.8931V63.0931H188.359C189.591 63.0931 190.515 63.3264 191.131 63.7931C191.756 64.2597 192.069 64.8757 192.069 65.6411C192.069 66.1544 191.943 66.6024 191.691 66.9851C191.439 67.3584 191.094 67.6477 190.655 67.8531C190.216 68.0584 189.712 68.1611 189.143 68.1611L189.409 67.5871C190.025 67.5871 190.571 67.6897 191.047 67.8951C191.523 68.0911 191.892 68.3851 192.153 68.7771C192.424 69.1691 192.559 69.6497 192.559 70.2191C192.559 71.0591 192.228 71.7171 191.565 72.1931C190.902 72.6597 189.927 72.8931 188.639 72.8931H183.571ZM185.825 71.1851H188.471C189.059 71.1851 189.502 71.0917 189.801 70.9051C190.109 70.7091 190.263 70.4011 190.263 69.9811C190.263 69.5704 190.109 69.2671 189.801 69.0711C189.502 68.8657 189.059 68.7631 188.471 68.7631H185.657V67.1111H188.079C188.63 67.1111 189.05 67.0177 189.339 66.8311C189.638 66.6351 189.787 66.3411 189.787 65.9491C189.787 65.5664 189.638 65.2817 189.339 65.0951C189.05 64.8991 188.63 64.8011 188.079 64.8011H185.825V71.1851ZM197.706 73.0051C196.904 73.0051 196.19 72.8371 195.564 72.5011C194.948 72.1651 194.458 71.7077 194.094 71.1291C193.74 70.5411 193.562 69.8737 193.562 69.1271C193.562 68.3711 193.74 67.7037 194.094 67.1251C194.458 66.5371 194.948 66.0797 195.564 65.7531C196.19 65.4171 196.904 65.2491 197.706 65.2491C198.5 65.2491 199.209 65.4171 199.834 65.7531C200.46 66.0797 200.95 66.5324 201.304 67.1111C201.659 67.6897 201.836 68.3617 201.836 69.1271C201.836 69.8737 201.659 70.5411 201.304 71.1291C200.95 71.7077 200.46 72.1651 199.834 72.5011C199.209 72.8371 198.5 73.0051 197.706 73.0051ZM197.706 71.2131C198.07 71.2131 198.397 71.1291 198.686 70.9611C198.976 70.7931 199.204 70.5551 199.372 70.2471C199.54 69.9297 199.624 69.5564 199.624 69.1271C199.624 68.6884 199.54 68.3151 199.372 68.0071C199.204 67.6991 198.976 67.4611 198.686 67.2931C198.397 67.1251 198.07 67.0411 197.706 67.0411C197.342 67.0411 197.016 67.1251 196.726 67.2931C196.437 67.4611 196.204 67.6991 196.026 68.0071C195.858 68.3151 195.774 68.6884 195.774 69.1271C195.774 69.5564 195.858 69.9297 196.026 70.2471C196.204 70.5551 196.437 70.7931 196.726 70.9611C197.016 71.1291 197.342 71.2131 197.706 71.2131ZM206.88 73.0051C206.077 73.0051 205.363 72.8371 204.738 72.5011C204.122 72.1651 203.632 71.7077 203.268 71.1291C202.913 70.5411 202.736 69.8737 202.736 69.1271C202.736 68.3711 202.913 67.7037 203.268 67.1251C203.632 66.5371 204.122 66.0797 204.738 65.7531C205.363 65.4171 206.077 65.2491 206.88 65.2491C207.673 65.2491 208.383 65.4171 209.008 65.7531C209.633 66.0797 210.123 66.5324 210.478 67.1111C210.833 67.6897 211.01 68.3617 211.01 69.1271C211.01 69.8737 210.833 70.5411 210.478 71.1291C210.123 71.7077 209.633 72.1651 209.008 72.5011C208.383 72.8371 207.673 73.0051 206.88 73.0051ZM206.88 71.2131C207.244 71.2131 207.571 71.1291 207.86 70.9611C208.149 70.7931 208.378 70.5551 208.546 70.2471C208.714 69.9297 208.798 69.5564 208.798 69.1271C208.798 68.6884 208.714 68.3151 208.546 68.0071C208.378 67.6991 208.149 67.4611 207.86 67.2931C207.571 67.1251 207.244 67.0411 206.88 67.0411C206.516 67.0411 206.189 67.1251 205.9 67.2931C205.611 67.4611 205.377 67.6991 205.2 68.0071C205.032 68.3151 204.948 68.6884 204.948 69.1271C204.948 69.5564 205.032 69.9297 205.2 70.2471C205.377 70.5551 205.611 70.7931 205.9 70.9611C206.189 71.1291 206.516 71.2131 206.88 71.2131ZM214.276 71.3531L214.332 68.6931L217.846 65.3611H220.45L217.076 68.7911L215.942 69.7151L214.276 71.3531ZM212.47 72.8931V62.5051H214.654V72.8931H212.47ZM218.084 72.8931L215.536 69.7291L216.908 68.0351L220.73 72.8931H218.084ZM224 73.0051C223.356 73.0051 222.735 72.9304 222.138 72.7811C221.55 72.6224 221.083 72.4264 220.738 72.1931L221.466 70.6251C221.811 70.8397 222.217 71.0171 222.684 71.1571C223.16 71.2877 223.627 71.3531 224.084 71.3531C224.588 71.3531 224.943 71.2924 225.148 71.1711C225.363 71.0497 225.47 70.8817 225.47 70.6671C225.47 70.4897 225.386 70.3591 225.218 70.2751C225.059 70.1817 224.845 70.1117 224.574 70.0651C224.303 70.0184 224.005 69.9717 223.678 69.9251C223.361 69.8784 223.039 69.8177 222.712 69.7431C222.385 69.6591 222.087 69.5377 221.816 69.3791C221.545 69.2204 221.326 69.0057 221.158 68.7351C220.999 68.4644 220.92 68.1144 220.92 67.6851C220.92 67.2091 221.055 66.7891 221.326 66.4251C221.606 66.0611 222.007 65.7764 222.53 65.5711C223.053 65.3564 223.678 65.2491 224.406 65.2491C224.919 65.2491 225.442 65.3051 225.974 65.4171C226.506 65.5291 226.949 65.6924 227.304 65.9071L226.576 67.4611C226.212 67.2464 225.843 67.1017 225.47 67.0271C225.106 66.9431 224.751 66.9011 224.406 66.9011C223.921 66.9011 223.566 66.9664 223.342 67.0971C223.118 67.2277 223.006 67.3957 223.006 67.6011C223.006 67.7877 223.085 67.9277 223.244 68.0211C223.412 68.1144 223.631 68.1891 223.902 68.2451C224.173 68.3011 224.467 68.3524 224.784 68.3991C225.111 68.4364 225.437 68.4971 225.764 68.5811C226.091 68.6651 226.385 68.7864 226.646 68.9451C226.917 69.0944 227.136 69.3044 227.304 69.5751C227.472 69.8364 227.556 70.1817 227.556 70.6111C227.556 71.0777 227.416 71.4931 227.136 71.8571C226.856 72.2117 226.45 72.4917 225.918 72.6971C225.395 72.9024 224.756 73.0051 224 73.0051Z" fill="#4C3221"/>
<path d="M139.689 43.9622V21.7142L143.325 25.1702H135.369V18.7622H148.185V43.9622H139.689ZM160.892 18.1862C163.292 18.1862 165.392 18.6542 167.192 19.5902C169.016 20.5022 170.432 21.8702 171.44 23.6942C172.472 25.5182 172.988 27.8102 172.988 30.5702C172.988 33.5222 172.4 36.0422 171.224 38.1302C170.048 40.1942 168.416 41.7782 166.328 42.8822C164.24 43.9862 161.804 44.5382 159.02 44.5382C157.532 44.5382 156.092 44.3582 154.7 43.9982C153.332 43.6622 152.168 43.1822 151.208 42.5582L154.268 36.6182C155.012 37.1462 155.756 37.5062 156.5 37.6982C157.268 37.8662 158.048 37.9502 158.84 37.9502C160.544 37.9502 161.9 37.4462 162.908 36.4382C163.94 35.4062 164.456 33.9182 164.456 31.9742C164.456 31.6142 164.456 31.2662 164.456 30.9302C164.456 30.5702 164.456 30.2102 164.456 29.8502L166.4 31.2542C165.944 32.0702 165.38 32.7662 164.708 33.3422C164.06 33.8942 163.292 34.3262 162.404 34.6382C161.516 34.9262 160.484 35.0702 159.308 35.0702C157.772 35.0702 156.344 34.7462 155.024 34.0982C153.728 33.4262 152.672 32.4902 151.856 31.2902C151.064 30.0662 150.668 28.6382 150.668 27.0062C150.668 25.2062 151.124 23.6462 152.036 22.3262C152.948 21.0062 154.172 19.9862 155.708 19.2662C157.268 18.5462 158.996 18.1862 160.892 18.1862ZM161.468 24.0542C160.964 24.0542 160.52 24.1622 160.136 24.3782C159.752 24.5702 159.44 24.8582 159.2 25.2422C158.984 25.6262 158.876 26.0822 158.876 26.6102C158.876 27.4022 159.116 28.0382 159.596 28.5182C160.1 28.9742 160.724 29.2022 161.468 29.2022C161.972 29.2022 162.416 29.0942 162.8 28.8782C163.208 28.6622 163.52 28.3622 163.736 27.9782C163.952 27.5942 164.06 27.1382 164.06 26.6102C164.06 26.0822 163.952 25.6262 163.736 25.2422C163.52 24.8582 163.208 24.5702 162.8 24.3782C162.416 24.1622 161.972 24.0542 161.468 24.0542ZM186.493 44.5382C184.261 44.5382 182.281 44.0222 180.553 42.9902C178.849 41.9582 177.505 40.4582 176.521 38.4902C175.561 36.5222 175.081 34.1462 175.081 31.3622C175.081 28.5782 175.561 26.2022 176.521 24.2342C177.505 22.2662 178.849 20.7662 180.553 19.7342C182.281 18.7022 184.261 18.1862 186.493 18.1862C188.725 18.1862 190.693 18.7022 192.397 19.7342C194.125 20.7662 195.469 22.2662 196.429 24.2342C197.413 26.2022 197.905 28.5782 197.905 31.3622C197.905 34.1462 197.413 36.5222 196.429 38.4902C195.469 40.4582 194.125 41.9582 192.397 42.9902C190.693 44.0222 188.725 44.5382 186.493 44.5382ZM186.493 37.7342C187.045 37.7342 187.537 37.5422 187.969 37.1582C188.401 36.7742 188.737 36.1142 188.977 35.1782C189.241 34.2422 189.373 32.9702 189.373 31.3622C189.373 29.7302 189.241 28.4582 188.977 27.5462C188.737 26.6102 188.401 25.9502 187.969 25.5662C187.537 25.1822 187.045 24.9902 186.493 24.9902C185.941 24.9902 185.449 25.1822 185.017 25.5662C184.585 25.9502 184.237 26.6102 183.973 27.5462C183.733 28.4582 183.613 29.7302 183.613 31.3622C183.613 32.9702 183.733 34.2422 183.973 35.1782C184.237 36.1142 184.585 36.7742 185.017 37.1582C185.449 37.5422 185.941 37.7342 186.493 37.7342Z" fill="#4C3221"/>
<path fill-rule="evenodd" clip-rule="evenodd" d="M23.1029 21.7516C23.9337 20.9056 25.1002 20.3541 27.303 20.0526C29.5706 19.7422 32.576 19.7373 36.8852 19.7373H48.8933C53.2024 19.7373 56.2079 19.7422 58.4755 20.0526C60.6783 20.3541 61.8447 20.9056 62.6755 21.7516C63.5064 22.5975 64.048 23.7852 64.3443 26.028C64.649 28.3367 64.6539 31.3966 64.6539 35.784V57.9437H30.2266C27.771 57.9429 26.0955 57.9423 24.6585 58.3344C23.3737 58.6847 22.1819 59.2573 21.1245 60.0096V35.784C21.1245 31.3966 21.1293 28.3367 21.4342 26.028C21.7303 23.7852 22.272 22.5975 23.1029 21.7516ZM30.8811 30.4351C29.6376 30.4351 28.6296 31.4615 28.6296 32.7275C28.6296 33.9935 29.6376 35.0199 30.8811 35.0199H54.8974C56.1409 35.0199 57.1489 33.9935 57.1489 32.7275C57.1489 31.4615 56.1409 30.4351 54.8974 30.4351H30.8811ZM28.6296 43.4254C28.6296 42.1593 29.6376 41.1329 30.8811 41.1329H45.8911C47.1347 41.1329 48.1427 42.1593 48.1427 43.4254C48.1427 44.6914 47.1347 45.7177 45.8911 45.7177H30.8811C29.6376 45.7177 28.6296 44.6914 28.6296 43.4254Z" fill="#4C3221"/>
<path d="M30.5742 62.5286C27.6375 62.5286 26.6108 62.5484 25.824 62.7629C23.6646 63.3522 21.9431 64.9863 21.2048 67.1107C21.2505 68.1919 21.322 69.143 21.4342 69.9923C21.7303 72.2352 22.272 73.4229 23.1029 74.2688C23.9337 75.1148 25.1003 75.6661 27.3031 75.9677C29.5706 76.2782 32.576 76.283 36.8852 76.283H48.8933C53.2024 76.283 56.2079 76.2782 58.4755 75.9677C60.6783 75.6661 61.8447 75.1148 62.6755 74.2688C63.2648 73.6686 63.7088 72.8968 64.0228 71.6983H30.8811C29.6376 71.6983 28.6296 70.672 28.6296 69.4059C28.6296 68.1399 29.6376 67.1136 30.8811 67.1136H64.5734C64.6292 65.7961 64.6463 64.2852 64.6515 62.5286H30.5742Z" fill="#4C3221"/>
</svg>
