<svg width="33" height="33" viewBox="0 0 33 33" fill="none" xmlns="http://www.w3.org/2000/svg">
<path fill-rule="evenodd" clip-rule="evenodd" d="M0 16.5C0 7.3873 7.3873 0 16.5 0C25.6126 0 33 7.3873 33 16.5C33 25.6126 25.6126 33 16.5 33C7.3873 33 0 25.6126 0 16.5ZM11.55 15.675C11.55 13.3968 13.3968 11.55 15.675 11.55C17.9532 11.55 19.8 13.3968 19.8 15.675C19.8 17.9532 17.9532 19.8 15.675 19.8C13.3968 19.8 11.55 17.9532 11.55 15.675ZM15.675 8.25C11.5743 8.25 8.25 11.5743 8.25 15.675C8.25 19.7757 11.5743 23.1 15.675 23.1C17.1278 23.1 18.4833 22.6827 19.6279 21.9615L21.9333 24.2667C22.5776 24.911 23.6224 24.911 24.2667 24.2667C24.911 23.6224 24.911 22.5776 24.2667 21.9333L21.9615 19.6279C22.6827 18.4833 23.1 17.1278 23.1 15.675C23.1 11.5743 19.7757 8.25 15.675 8.25Z" fill="white"/>
</svg>
