<svg width="60" height="60" viewBox="0 0 60 60" fill="none" xmlns="http://www.w3.org/2000/svg">
<g clip-path="url(#clip0_3021_2676)">
<path d="M7.5 35L17.5 41.25L25 32.5L32.5 42.5L37.5 36.25L45 37.5L37.5 30L32.5 36.25L25 23.75L16.25 33.125L7.5 25V7.48C7.5 6.1375 8.6175 5 9.995 5H35V20C35 20.663 35.2634 21.2989 35.7322 21.7678C36.2011 22.2366 36.837 22.5 37.5 22.5H52.5V52.4825C52.5023 52.8108 52.4399 53.1364 52.3164 53.4406C52.1929 53.7447 52.0107 54.0216 51.7802 54.2554C51.5496 54.4892 51.2753 54.6753 50.9729 54.803C50.6704 54.9308 50.3458 54.9977 50.0175 55H9.9825C9.32453 55 8.69348 54.7388 8.22799 54.2738C7.7625 53.8088 7.50066 53.178 7.5 52.52V35ZM52.5 17.5H40V5.0075L52.5 17.5Z" fill="#9CD5FF"/>
</g>
<defs>
<clipPath id="clip0_3021_2676">
<rect width="60" height="60" fill="white"/>
</clipPath>
</defs>
</svg>
