<svg width="49" height="44" viewBox="0 0 49 44" fill="none" xmlns="http://www.w3.org/2000/svg">
<path d="M42.5998 15.6411H26.8662C26.4601 15.6411 26.0707 15.786 25.7835 16.0439C25.4963 16.3017 25.335 16.6514 25.335 17.0161V38.2049C25.3362 38.5692 25.4979 38.9183 25.7848 39.1759C26.0717 39.4336 26.4605 39.5788 26.8662 39.5799H42.5998C43.0055 39.5788 43.3943 39.4336 43.6813 39.1759C43.9681 38.9183 44.1298 38.5692 44.1311 38.2049V17.0161C44.1311 16.6514 43.9697 16.3017 43.6826 16.0439C43.3954 15.786 43.0059 15.6411 42.5998 15.6411Z" fill="white"/>
<path d="M42.5998 3.86865H26.8662C26.4601 3.86865 26.0707 4.01352 25.7835 4.27138C25.4963 4.52924 25.335 4.87898 25.335 5.24365V12.3042C25.3362 12.6686 25.4979 13.0177 25.7848 13.2753C26.0717 13.5329 26.4605 13.6782 26.8662 13.6792H42.5998C43.0055 13.6782 43.3943 13.5329 43.6813 13.2753C43.9681 13.0177 44.1298 12.6686 44.1311 12.3042V5.24365C44.1311 4.87898 43.9697 4.52924 43.6826 4.27138C43.3954 4.01352 43.0059 3.86865 42.5998 3.86865Z" fill="white"/>
<path d="M21.6214 25.0601H5.89551C5.04982 25.0601 4.36426 25.6757 4.36426 26.4351V38.2051C4.36426 38.9645 5.04982 39.5801 5.89551 39.5801H21.6214C22.4672 39.5801 23.1527 38.9645 23.1527 38.2051V26.4351C23.1527 25.6757 22.4672 25.0601 21.6214 25.0601Z" fill="white"/>
<path d="M21.6214 3.86866H5.89552C5.69423 3.86802 5.49478 3.90315 5.30869 3.97203C5.12259 4.04091 4.95351 4.14215 4.81117 4.26996C4.66884 4.39777 4.55607 4.5496 4.47936 4.71671C4.40266 4.88381 4.36356 5.06291 4.36427 5.24366V21.6956C4.36427 22.0602 4.5256 22.4099 4.81276 22.6678C5.09993 22.9256 5.48941 23.0706 5.89552 23.0706H21.6214C22.0275 23.0706 22.417 22.9256 22.7042 22.6678C22.9914 22.4099 23.1527 22.0602 23.1527 21.6956V5.24366C23.1534 5.06291 23.1143 4.88381 23.0375 4.71671C22.9609 4.5496 22.8481 4.39777 22.7058 4.26996C22.5635 4.14215 22.3943 4.04091 22.2083 3.97203C22.0222 3.90315 21.8227 3.86802 21.6214 3.86866Z" fill="white"/>
</svg>
