<svg width="13" height="19" viewBox="0 0 13 19" fill="none" xmlns="http://www.w3.org/2000/svg">
<path d="M0 4.22223C0 3.75586 0.249441 3.37779 0.557144 3.37779L2.48132 3.37734C2.86363 3.36265 3.2009 2.99421 3.33099 2.44914C3.33441 2.43481 3.33834 2.41713 3.35245 2.35299L3.43536 1.97593C3.48609 1.74475 3.53029 1.54333 3.59215 1.3633C3.83651 0.652073 4.28861 0.158187 4.81106 0.0317408C4.9433 -0.000267815 5.08336 -0.000132969 5.24413 2.10572e-05H7.75602C7.91678 -0.000132969 8.05682 -0.000267815 8.18906 0.0317408C8.71152 0.158187 9.16363 0.652073 9.40796 1.3633C9.46985 1.54333 9.51405 1.74475 9.56475 1.97593L9.64766 2.35299C9.66174 2.41713 9.66572 2.43481 9.66911 2.44914C9.79926 2.99421 10.2034 3.3631 10.5857 3.37779H12.4429C12.7505 3.37779 13 3.75586 13 4.22223C13 4.6886 12.7505 5.06667 12.4429 5.06667H0.557144C0.249441 5.06667 0 4.6886 0 4.22223Z" fill="#4C3221"/>
<path fill-rule="evenodd" clip-rule="evenodd" d="M6.12448 18.9997H6.87551C9.45944 18.9997 10.7515 18.9997 11.5914 18.1796C12.4315 17.3596 12.5174 16.0145 12.6893 13.3241L12.9369 9.44759C13.0303 7.98785 13.0769 7.25802 12.6554 6.79552C12.234 6.33301 11.5224 6.33301 10.0991 6.33301H2.90089C1.47761 6.33301 0.765959 6.33301 0.344546 6.79552C-0.0768675 7.25802 -0.0302344 7.98785 0.0630312 9.44759L0.31069 13.3241C0.482578 16.0145 0.568517 17.3596 1.40854 18.1796C2.24856 18.9997 3.54054 18.9997 6.12448 18.9997ZM4.87156 9.91773C4.8333 9.51618 4.49199 9.22312 4.10927 9.2633C3.72655 9.30347 3.44733 9.6616 3.48559 10.0631L3.94988 14.935C3.98815 15.3365 4.32943 15.6296 4.71212 15.5894C5.09488 15.5492 5.3741 15.1911 5.33584 14.7896L4.87156 9.91773ZM8.89069 9.2633C9.27345 9.30347 9.55267 9.6616 9.51441 10.0631L9.05013 14.935C9.01187 15.3365 8.67053 15.6296 8.28786 15.5894C7.90511 15.5492 7.62588 15.1911 7.66414 14.7896L8.12843 9.91773C8.16668 9.51618 8.50803 9.22312 8.89069 9.2633Z" fill="#4C3221"/>
</svg>
