<svg width="29" height="37" viewBox="0 0 29 37" fill="none" xmlns="http://www.w3.org/2000/svg">
<path d="M26.9875 13.2163L26.3792 31.2537C26.3274 32.7985 25.6631 34.2627 24.5274 35.3355C23.3916 36.4084 21.8738 37.0054 20.2961 37H8.73808C7.16137 37.0055 5.64443 36.4093 4.50884 35.3377C3.37325 34.2661 2.70829 32.8034 2.65493 31.2596L2.04662 13.2163C2.03331 12.8212 2.18077 12.4371 2.45656 12.1484C2.73235 11.8598 3.11388 11.6903 3.51722 11.6773C3.92056 11.6643 4.31266 11.8087 4.60728 12.0789C4.90189 12.3491 5.07488 12.7228 5.08819 13.118L5.69651 31.1598C5.7268 31.93 6.06057 32.6588 6.62773 33.193C7.19489 33.7272 7.95129 34.0253 8.73808 34.0248H20.2961C21.0839 34.0253 21.8412 33.7263 22.4085 33.1908C22.9758 32.6554 23.3089 31.9251 23.3377 31.1539L23.946 13.118C23.9593 12.7228 24.1323 12.3491 24.4269 12.0789C24.7215 11.8087 25.1136 11.6643 25.5169 11.6773C25.9203 11.6903 26.3018 11.8598 26.5776 12.1484C26.8534 12.4371 27.0009 12.8212 26.9875 13.2163ZM28.9996 7.21377C28.9996 7.6089 28.8393 7.98785 28.5541 8.26725C28.2689 8.54664 27.8821 8.70361 27.4788 8.70361H1.55692C1.15358 8.70361 0.766764 8.54664 0.481561 8.26725C0.196358 7.98785 0.0361328 7.6089 0.0361328 7.21377C0.0361328 6.81865 0.196358 6.4397 0.481561 6.16031C0.766764 5.88091 1.15358 5.72394 1.55692 5.72394H6.27137C6.75322 5.72522 7.21833 5.55081 7.57617 5.23468C7.93401 4.91854 8.15899 4.48329 8.20733 4.01362C8.31955 2.91187 8.84646 1.89051 9.68538 1.14854C10.5243 0.406566 11.6151 -0.00286541 12.7454 1.50963e-05H16.2888C17.419 -0.00286541 18.5099 0.406566 19.3488 1.14854C20.1877 1.89051 20.7146 2.91187 20.8268 4.01362C20.8752 4.48329 21.1001 4.91854 21.458 5.23468C21.8158 5.55081 22.2809 5.72522 22.7628 5.72394H27.4772C27.8806 5.72394 28.2674 5.88091 28.5526 6.16031C28.8378 6.4397 28.998 6.81865 28.998 7.21377H28.9996ZM10.8474 5.72394H18.1898C17.9899 5.27661 17.8592 4.80261 17.802 4.31754C17.7643 3.95031 17.5888 3.60985 17.3096 3.36213C17.0303 3.11441 16.6671 2.97706 16.2903 2.9767H12.7469C12.3701 2.97706 12.0069 3.11441 11.7277 3.36213C11.4484 3.60985 11.2729 3.95031 11.2352 4.31754C11.1775 4.80269 11.0478 5.27669 10.8474 5.72394ZM12.3789 28.2964V15.6105C12.3789 15.2153 12.2186 14.8364 11.9334 14.557C11.6482 14.2776 11.2614 14.1206 10.8581 14.1206C10.4547 14.1206 10.0679 14.2776 9.7827 14.557C9.4975 14.8364 9.33728 15.2153 9.33728 15.6105V28.3023C9.33728 28.6975 9.4975 29.0764 9.7827 29.3558C10.0679 29.6352 10.4547 29.7922 10.8581 29.7922C11.2614 29.7922 11.6482 29.6352 11.9334 29.3558C12.2186 29.0764 12.3789 28.6975 12.3789 28.3023V28.2964ZM19.6999 28.2964V15.6105C19.6999 15.2153 19.5397 14.8364 19.2545 14.557C18.9693 14.2776 18.5825 14.1206 18.1791 14.1206C17.7758 14.1206 17.389 14.2776 17.1038 14.557C16.8186 14.8364 16.6584 15.2153 16.6584 15.6105V28.3023C16.6584 28.6975 16.8186 29.0764 17.1038 29.3558C17.389 29.6352 17.7758 29.7922 18.1791 29.7922C18.5825 29.7922 18.9693 29.6352 19.2545 29.3558C19.5397 29.0764 19.6999 28.6975 19.6999 28.3023V28.2964Z" fill="#395886"/>
</svg>
