<svg width="19" height="4" viewBox="0 0 19 4" fill="none" xmlns="http://www.w3.org/2000/svg">
<path d="M9.5 0C9.87578 0 10.2431 0.117298 10.5556 0.337061C10.868 0.556824 11.1116 0.869181 11.2554 1.23463C11.3992 1.60008 11.4368 2.00222 11.3635 2.39018C11.2902 2.77814 11.1092 3.13451 10.8435 3.41421C10.5778 3.69392 10.2392 3.8844 9.87067 3.96157C9.50211 4.03874 9.12008 3.99913 8.7729 3.84776C8.42572 3.69638 8.12898 3.44004 7.92021 3.11114C7.71143 2.78224 7.6 2.39556 7.6 2C7.6 1.46957 7.80018 0.960859 8.1565 0.585786C8.51282 0.210713 8.99609 0 9.5 0ZM0 2C0 2.39556 0.111433 2.78224 0.320208 3.11114C0.528982 3.44004 0.825722 3.69638 1.1729 3.84776C1.52008 3.99913 1.90211 4.03874 2.27067 3.96157C2.63924 3.8844 2.97778 3.69392 3.2435 3.41421C3.50922 3.13451 3.69018 2.77814 3.76349 2.39018C3.8368 2.00222 3.79918 1.60008 3.65537 1.23463C3.51156 0.869181 3.26804 0.556824 2.95558 0.337061C2.64313 0.117298 2.27578 0 1.9 0C1.39609 0 0.912816 0.210713 0.556497 0.585786C0.200178 0.960859 0 1.46957 0 2ZM15.2 2C15.2 2.39556 15.3114 2.78224 15.5202 3.11114C15.729 3.44004 16.0257 3.69638 16.3729 3.84776C16.7201 3.99913 17.1021 4.03874 17.4707 3.96157C17.8392 3.8844 18.1778 3.69392 18.4435 3.41421C18.7092 3.13451 18.8902 2.77814 18.9635 2.39018C19.0368 2.00222 18.9992 1.60008 18.8554 1.23463C18.7116 0.869181 18.468 0.556824 18.1556 0.337061C17.8431 0.117298 17.4758 0 17.1 0C16.5961 0 16.1128 0.210713 15.7565 0.585786C15.4002 0.960859 15.2 1.46957 15.2 2Z" fill="#4C3221"/>
</svg>
