<svg width="30" height="29" viewBox="0 0 30 29" fill="none" xmlns="http://www.w3.org/2000/svg">
<path d="M28.6308 15.1946C28.6736 14.7584 28.6955 14.3164 28.6955 13.8694C28.6955 6.20955 22.2718 0 14.3478 0C6.42372 0 0 6.20955 0 13.8694C0 21.5292 6.42372 27.7388 14.3478 27.7388C14.8102 27.7388 15.2675 27.7176 15.7186 27.6763C14.9792 26.9619 14.366 26.1254 13.9141 25.2008C7.63662 24.9803 2.61759 19.9915 2.61759 13.8694C2.61759 7.607 7.86937 2.53032 14.3478 2.53032C20.681 2.53032 25.8419 7.38201 26.07 13.4502C27.0265 13.8871 27.8918 14.4798 28.6308 15.1946Z" fill="#395886"/>
<path d="M16.7512 14.3331L15.6521 13.7197V6.30431C15.6521 5.60797 15.0682 5.04346 14.3478 5.04346C13.6274 5.04346 13.0435 5.60795 13.0435 6.30431V14.4579C13.0435 14.4579 13.0435 14.7866 13.2087 15.0338C13.3193 15.2435 13.4918 15.4257 13.7183 15.5522L14.839 16.1777C15.3785 15.4754 16.0235 14.8532 16.7512 14.3331Z" fill="#395886"/>
<path d="M19.5648 20.1733C18.8445 20.1733 18.2605 20.7378 18.2605 21.4342C18.2605 22.1306 18.8445 22.695 19.5648 22.695H24.7822C25.5026 22.695 26.0866 22.1306 26.0866 21.4342C26.0866 20.7378 25.5026 20.1733 24.7822 20.1733H19.5648Z" fill="#395886"/>
<path fill-rule="evenodd" clip-rule="evenodd" d="M30 21.4348C30 25.6129 26.4962 28.9999 22.174 28.9999C17.8518 28.9999 14.3479 25.6129 14.3479 21.4348C14.3479 17.2567 17.8518 13.8696 22.174 13.8696C26.4962 13.8696 30 17.2567 30 21.4348ZM16.933 21.4348C16.933 24.2327 19.2795 26.501 22.174 26.501C25.0684 26.501 27.4149 24.2327 27.4149 21.4348C27.4149 18.6368 25.0684 16.3685 22.174 16.3685C19.2795 16.3685 16.933 18.6368 16.933 21.4348Z" fill="#395886"/>
</svg>
