<svg width="36" height="35" viewBox="0 0 36 35" fill="none" xmlns="http://www.w3.org/2000/svg">
<path d="M5.23755 34.8855H27.6842C29.0754 34.8817 30.4083 34.3438 31.3902 33.39C32.3721 32.4362 32.9229 31.1443 32.9218 29.7979V18.8826C32.9218 18.4985 32.7641 18.1301 32.4835 17.8585C32.2028 17.5869 31.8222 17.4343 31.4253 17.4343C31.0284 17.4343 30.6478 17.5869 30.3672 17.8585C30.0865 18.1301 29.9289 18.4985 29.9289 18.8826V29.7979C29.9309 30.3764 29.6956 30.932 29.2748 31.3428C28.854 31.7536 28.2819 31.986 27.6842 31.9891H5.23755C4.63983 31.986 4.06779 31.7536 3.64696 31.3428C3.22613 30.932 2.9909 30.3764 2.99289 29.7979V8.11205C2.9909 7.53359 3.22613 6.97799 3.64696 6.56718C4.06779 6.15638 4.63983 5.92394 5.23755 5.92088H16.4609C16.8578 5.92088 17.2384 5.7683 17.519 5.4967C17.7997 5.22511 17.9573 4.85674 17.9573 4.47265C17.9573 4.08855 17.7997 3.72019 17.519 3.44859C17.2384 3.177 16.8578 3.02441 16.4609 3.02441H5.23755C3.84632 3.02825 2.51348 3.5661 1.53155 4.51993C0.549616 5.47375 -0.0011928 6.76563 1.93955e-06 8.11205V29.7979C-0.0011928 31.1443 0.549616 32.4362 1.53155 33.39C2.51348 34.3438 3.84632 34.8817 5.23755 34.8855Z" fill="#395886"/>
<path d="M14.1486 15.3986L12.9679 20.6325C12.9144 20.8699 12.9236 21.1165 12.9945 21.3496C13.0653 21.5827 13.1956 21.7948 13.3734 21.9664C13.5537 22.1336 13.7729 22.2563 14.0125 22.3242C14.2522 22.392 14.5052 22.4029 14.7502 22.3559L20.1463 21.2104C20.4265 21.1508 20.6831 21.0146 20.8856 20.8179L34.5242 7.61873C34.9411 7.21528 35.2719 6.73629 35.4975 6.20912C35.7232 5.68195 35.8393 5.11692 35.8393 4.54631C35.8393 3.97569 35.7232 3.41067 35.4975 2.88349C35.2719 2.35632 34.9411 1.87734 34.5242 1.47388C33.6694 0.683346 32.5325 0.242188 31.3502 0.242188C30.1679 0.242187 29.031 0.683346 28.1762 1.47388L14.5586 14.6861C14.3542 14.8807 14.2119 15.128 14.1486 15.3986ZM30.2922 3.52313C30.5769 3.25918 30.9559 3.11183 31.3502 3.11183C31.7445 3.11183 32.1235 3.25918 32.4082 3.52313C32.685 3.79631 32.8401 4.16368 32.8401 4.54631C32.8401 4.92894 32.685 5.29631 32.4082 5.56948L31.3502 6.59338L29.2342 4.54558L30.2922 3.52313ZM16.9739 16.4327L27.1108 6.59773L29.2058 8.63539L19.0644 18.4732L16.3783 19.0438L16.9739 16.4327Z" fill="#395886"/>
</svg>
