<svg width="55" height="54" viewBox="0 0 55 54" fill="none" xmlns="http://www.w3.org/2000/svg">
<path d="M27.5 18V27L33.2292 32.625" stroke="#395886" stroke-width="3.75" stroke-linecap="round" stroke-linejoin="round"/>
<path d="M9.94091 15.4589L8.22218 15.4674C8.2269 16.3927 8.98977 17.1417 9.93227 17.1464L9.94091 15.4589ZM15.7658 17.1751C16.7151 17.1798 17.4884 16.4281 17.4932 15.4961C17.498 14.5642 16.7323 13.8049 15.7831 13.8002L15.7658 17.1751ZM11.6303 9.7229C11.6255 8.79093 10.8522 8.0392 9.90296 8.04388C8.95373 8.04859 8.18808 8.8079 8.19287 9.73985L11.6303 9.7229ZM8.59375 27C8.59375 26.0681 7.82423 25.3125 6.875 25.3125C5.92577 25.3125 5.15625 26.0681 5.15625 27H8.59375ZM38.673 46.0017C39.4948 45.535 39.7755 44.5028 39.3003 43.6959C38.825 42.8893 37.7735 42.6134 36.952 43.0803L38.673 46.0017ZM43.8781 36.2801C43.4026 37.0868 43.6835 38.1191 44.5051 38.5857C45.3269 39.0523 46.3783 38.7767 46.8536 37.9699L43.8781 36.2801ZM11.7799 11.4103C11.1054 12.0661 11.0999 13.1345 11.7678 13.7968C12.4357 14.4591 13.5239 14.4644 14.1985 13.8087L11.7799 11.4103ZM43.2261 11.5602C34.4715 2.96473 20.3244 2.87771 11.6277 11.4163L14.0584 13.8028C21.3896 6.60476 33.3603 6.64659 40.7956 13.9467L43.2261 11.5602ZM11.6277 11.4163L8.72557 14.2656L11.1562 16.6521L14.0584 13.8028L11.6277 11.4163ZM9.93227 17.1464L15.7658 17.1751L15.7831 13.8002L9.94955 13.7714L9.93227 17.1464ZM11.6596 15.4504L11.6303 9.7229L8.19287 9.73985L8.22218 15.4674L11.6596 15.4504ZM27.5 8.4375C37.9415 8.4375 46.4062 16.7482 46.4062 27H49.8438C49.8438 14.8842 39.8402 5.0625 27.5 5.0625V8.4375ZM27.5 45.5625C17.0584 45.5625 8.59375 37.2517 8.59375 27H5.15625C5.15625 39.1158 15.1599 48.9375 27.5 48.9375V45.5625ZM36.952 43.0803C34.1729 44.6587 30.9464 45.5625 27.5 45.5625V48.9375C31.567 48.9375 35.3849 47.8692 38.673 46.0017L36.952 43.0803ZM46.4062 27C46.4062 30.3838 45.4857 33.5515 43.8781 36.2801L46.8536 37.9699C48.7557 34.7416 49.8438 30.9931 49.8438 27H46.4062ZM14.1985 13.8087C17.6162 10.4863 22.3127 8.4375 27.5 8.4375V5.0625C21.3708 5.0625 15.8151 7.4878 11.7799 11.4103L14.1985 13.8087Z" fill="#395886"/>
</svg>
