<svg width="41" height="41" viewBox="0 0 41 41" fill="none" xmlns="http://www.w3.org/2000/svg">
<path d="M20.5 5.59375C23.3576 5.59422 26.1548 6.41604 28.5584 7.96132C30.9621 9.50661 32.871 11.7102 34.0577 14.3097C35.2444 16.9092 35.6589 19.795 35.2518 22.6234C34.8447 25.4518 33.6333 28.1036 31.7617 30.263C29.8901 32.4223 27.4373 33.9982 24.6954 34.8029C21.9535 35.6077 19.0381 35.6073 16.2964 34.802C13.5547 33.9966 11.1022 32.4201 9.23117 30.2604C7.36009 28.1006 6.14924 25.4485 5.74284 22.62C5.64971 21.9677 5.30127 21.3791 4.77417 20.9837C4.24707 20.5883 3.58449 20.4185 2.93218 20.5116C2.27987 20.6047 1.69128 20.9532 1.29587 21.4803C0.90047 22.0074 0.730651 22.6699 0.823775 23.3223C1.45191 27.7077 3.52702 31.7576 6.71964 34.8291C9.91225 37.9005 14.0394 39.8175 18.4459 40.2756C22.8523 40.7336 27.2855 39.7066 31.0416 37.3575C34.7977 35.0084 37.6615 31.4719 39.1783 27.3095C40.695 23.147 40.7778 18.5971 39.4135 14.3822C38.0492 10.1673 35.3161 6.52897 31.6479 4.04476C27.9798 1.56055 23.5869 0.372889 19.1667 0.670326C14.7465 0.967763 10.5523 2.73325 7.25002 5.6865V3.10938C7.25002 2.45048 6.98828 1.81857 6.52237 1.35266C6.05646 0.886746 5.42455 0.625 4.76565 0.625C4.10675 0.625 3.47484 0.886746 3.00893 1.35266C2.54302 1.81857 2.28128 2.45048 2.28128 3.10938V13.0469C2.28128 14.4183 3.39428 15.5312 4.76565 15.5312H13.0469C13.7058 15.5312 14.3377 15.2695 14.8036 14.8036C15.2695 14.3377 15.5313 13.7058 15.5313 13.0469C15.5313 12.388 15.2695 11.7561 14.8036 11.2902C14.3377 10.8242 13.7058 10.5625 13.0469 10.5625H9.3899C10.788 8.99934 12.5003 7.74879 14.4148 6.89259C16.3292 6.03638 18.4028 5.5938 20.5 5.59375ZM22.1563 13.0469C22.1563 12.388 21.8945 11.7561 21.4286 11.2902C20.9627 10.8242 20.3308 10.5625 19.6719 10.5625C19.013 10.5625 18.3811 10.8242 17.9152 11.2902C17.4493 11.7561 17.1875 12.388 17.1875 13.0469V21.3281C17.1875 22.6995 18.3005 23.8125 19.6719 23.8125H26.2969C26.9558 23.8125 27.5877 23.5508 28.0536 23.0848C28.5195 22.6189 28.7813 21.987 28.7813 21.3281C28.7813 20.6692 28.5195 20.0373 28.0536 19.5714C27.5877 19.1055 26.9558 18.8438 26.2969 18.8438H22.1563V13.0469Z" fill="white" fill-opacity="0.9"/>
</svg>
