<svg width="46" height="46" viewBox="0 0 46 46" fill="none" xmlns="http://www.w3.org/2000/svg">
<path d="M43.9942 24.5058C43.4943 24.5058 42.9944 24.3059 42.5945 23.956L23 4.81119L3.40545 23.956C2.60568 24.7058 1.35602 24.7058 0.556246 23.906C-0.193545 23.1062 -0.193545 21.8566 0.606233 21.0568L21.6004 0.562347C22.4002 -0.187449 23.5998 -0.187449 24.3996 0.562347L45.3938 21.0568C46.1935 21.8066 46.1935 23.1062 45.4438 23.906C45.0439 24.3059 44.494 24.5058 43.9942 24.5058ZM39.5954 44.0005V24.4559C39.5954 23.3562 38.6956 22.4564 37.5959 22.4564C36.4962 22.4564 35.5965 23.3562 35.5965 24.4559V42.0011H29.3482V31.304C29.3482 29.8544 28.1486 28.6547 26.699 28.6547H19.301C17.8514 28.6547 16.6518 29.8544 16.6518 31.304V42.0011H10.4035V24.4559C10.4035 23.3562 9.50376 22.4564 8.40406 22.4564C7.30437 22.4564 6.40462 23.3562 6.40462 24.4559V44.0005C6.40462 45.1002 7.30437 46 8.40406 46H18.6512C19.7509 46 20.6507 45.1002 20.6507 44.0005V32.6536H25.3993V44.0005C25.3993 45.1002 26.2991 46 27.3988 46H37.6459C38.7456 46 39.5954 45.1002 39.5954 44.0005Z" fill="white"/>
</svg>
