<svg width="20" height="16" viewBox="0 0 20 16" fill="none" xmlns="http://www.w3.org/2000/svg">
<path d="M19.7529 8.47908C19.1289 6.77208 17.3869 5.75308 15.0919 5.75308C15.0019 5.75308 14.9159 5.75508 14.8299 5.75908L14.8139 3.69608L18.3389 3.08908C18.4539 3.07008 18.4719 2.97008 18.4479 2.85808C18.4249 2.74708 18.2809 1.97508 18.2599 1.88208C18.2329 1.75108 18.1579 1.75508 18.0529 1.77308C17.9489 1.79108 14.8029 2.23408 14.8029 2.23408L14.7899 0.156084C14.7889 0.0310843 14.7209 -0.00191557 14.5959 8.44294e-05L13.5709 0.0160845C13.4659 0.0180845 13.4069 0.0650845 13.4089 0.164084L13.4419 2.47108C13.4419 2.47108 10.3809 2.99808 10.2979 3.01408C10.2139 3.02808 10.1279 3.06708 10.1469 3.15708C10.1659 3.24708 10.3369 4.25108 10.3549 4.32908C10.3729 4.40908 10.4269 4.45808 10.5429 4.43608L13.4669 3.93208L13.5019 5.95008C12.4249 6.23108 11.7009 6.77408 11.2459 7.25308C10.4779 8.06008 10.0389 9.14008 10.0389 10.2161C10.0389 11.8021 11.0099 12.7451 12.3669 12.9111C15.5289 13.2981 17.4859 9.85108 18.1359 8.19608C19.2329 9.70209 18.3919 12.5501 16.0419 14.1761C15.9989 14.2051 15.9439 14.3051 16.0089 14.3831L16.6279 15.1391C16.7079 15.2351 16.8339 15.1981 16.8839 15.1621C19.3939 13.4321 20.5449 10.6471 19.7529 8.47908ZM12.3669 11.6671C11.4009 11.5461 11.4229 10.7531 11.4229 10.2141C11.4229 9.44108 11.7499 8.63408 12.2989 8.05808C12.6415 7.70052 13.0621 7.42706 13.5279 7.25908L13.6099 11.5361C13.2109 11.6738 12.7858 11.7186 12.3669 11.6671ZM14.7939 11.1141L14.8399 7.00508C14.9239 7.00108 15.0059 6.99508 15.0919 6.99508C15.8649 6.99508 16.5859 7.14008 16.9769 7.35608C17.3679 7.57308 15.9539 10.0691 14.7939 11.1141ZM5.84391 3.44608C5.83242 3.40333 5.80679 3.36573 5.7712 3.3394C5.73561 3.31307 5.69216 3.29957 5.64791 3.30108H3.69791C3.65406 3.29961 3.611 3.31304 3.57576 3.3392C3.54053 3.36535 3.5152 3.40268 3.50391 3.44508L0.00791402 14.4861C-0.00908598 14.5371 -0.00308598 14.5621 0.069914 14.5621H1.80291C1.87791 14.5621 1.90191 14.5391 1.91691 14.4901L2.92491 11.1721H6.42091L7.42891 14.4901C7.44491 14.5391 7.46791 14.5621 7.54191 14.5621H9.27591C9.34791 14.5621 9.35391 14.5371 9.33791 14.4861C9.32391 14.4361 6.25491 4.74508 5.84391 3.44608ZM3.22591 9.76408L4.67291 4.51408L6.11991 9.76408H3.22591Z" fill="#1D3774"/>
</svg>
