<svg width="100" height="26" viewBox="0 0 100 26" fill="none" xmlns="http://www.w3.org/2000/svg">
<rect x="0.5" y="0.5" width="99" height="25" rx="12.5" fill="#4C3221"/>
<rect x="0.5" y="0.5" width="99" height="25" rx="12.5" stroke="#4C3221"/>
<path d="M23.7523 18V8.9H25.8583V16.284H30.4213V18H23.7523ZM34.745 18.104C33.9996 18.104 33.3366 17.948 32.756 17.636C32.184 17.324 31.729 16.8993 31.391 16.362C31.0616 15.816 30.897 15.1963 30.897 14.503C30.897 13.801 31.0616 13.1813 31.391 12.644C31.729 12.098 32.184 11.6733 32.756 11.37C33.3366 11.058 33.9996 10.902 34.745 10.902C35.4816 10.902 36.1403 11.058 36.721 11.37C37.3016 11.6733 37.7566 12.0937 38.086 12.631C38.4153 13.1683 38.58 13.7923 38.58 14.503C38.58 15.1963 38.4153 15.816 38.086 16.362C37.7566 16.8993 37.3016 17.324 36.721 17.636C36.1403 17.948 35.4816 18.104 34.745 18.104ZM34.745 16.44C35.083 16.44 35.3863 16.362 35.655 16.206C35.9236 16.05 36.136 15.829 36.292 15.543C36.448 15.2483 36.526 14.9017 36.526 14.503C36.526 14.0957 36.448 13.749 36.292 13.463C36.136 13.177 35.9236 12.956 35.655 12.8C35.3863 12.644 35.083 12.566 34.745 12.566C34.407 12.566 34.1036 12.644 33.835 12.8C33.5663 12.956 33.3496 13.177 33.185 13.463C33.029 13.749 32.951 14.0957 32.951 14.503C32.951 14.9017 33.029 15.2483 33.185 15.543C33.3496 15.829 33.5663 16.05 33.835 16.206C34.1036 16.362 34.407 16.44 34.745 16.44ZM43.2245 20.626C42.5658 20.626 41.9288 20.5437 41.3135 20.379C40.7068 20.223 40.1998 19.9847 39.7925 19.664L40.5985 18.208C40.8932 18.4507 41.2658 18.6413 41.7165 18.78C42.1758 18.9273 42.6265 19.001 43.0685 19.001C43.7878 19.001 44.3078 18.8407 44.6285 18.52C44.9578 18.1993 45.1225 17.7227 45.1225 17.09V16.037L45.2525 14.282L45.2265 12.514V11.006H47.1505V16.83C47.1505 18.13 46.8125 19.0877 46.1365 19.703C45.4605 20.3183 44.4898 20.626 43.2245 20.626ZM42.9125 17.662C42.2625 17.662 41.6732 17.5233 41.1445 17.246C40.6245 16.96 40.2042 16.5657 39.8835 16.063C39.5715 15.5517 39.4155 14.958 39.4155 14.282C39.4155 13.5973 39.5715 13.0037 39.8835 12.501C40.2042 11.9897 40.6245 11.5953 41.1445 11.318C41.6732 11.0407 42.2625 10.902 42.9125 10.902C43.5018 10.902 44.0218 11.0233 44.4725 11.266C44.9232 11.5 45.2742 11.8683 45.5255 12.371C45.7768 12.865 45.9025 13.502 45.9025 14.282C45.9025 15.0533 45.7768 15.6903 45.5255 16.193C45.2742 16.687 44.9232 17.0553 44.4725 17.298C44.0218 17.5407 43.5018 17.662 42.9125 17.662ZM43.3155 15.998C43.6708 15.998 43.9872 15.9287 44.2645 15.79C44.5418 15.6427 44.7585 15.439 44.9145 15.179C45.0705 14.919 45.1485 14.62 45.1485 14.282C45.1485 13.9353 45.0705 13.6363 44.9145 13.385C44.7585 13.125 44.5418 12.9257 44.2645 12.787C43.9872 12.6397 43.6708 12.566 43.3155 12.566C42.9602 12.566 42.6438 12.6397 42.3665 12.787C42.0892 12.9257 41.8682 13.125 41.7035 13.385C41.5475 13.6363 41.4695 13.9353 41.4695 14.282C41.4695 14.62 41.5475 14.919 41.7035 15.179C41.8682 15.439 42.0892 15.6427 42.3665 15.79C42.6438 15.9287 42.9602 15.998 43.3155 15.998ZM57.2827 18.156C56.5634 18.156 55.896 18.039 55.2807 17.805C54.674 17.571 54.1454 17.2417 53.6947 16.817C53.2527 16.3923 52.906 15.894 52.6547 15.322C52.412 14.75 52.2907 14.126 52.2907 13.45C52.2907 12.774 52.412 12.15 52.6547 11.578C52.906 11.006 53.257 10.5077 53.7077 10.083C54.1584 9.65833 54.687 9.329 55.2937 9.095C55.9004 8.861 56.559 8.744 57.2697 8.744C57.989 8.744 58.6477 8.861 59.2457 9.095C59.8524 9.329 60.3767 9.65833 60.8187 10.083C61.2694 10.5077 61.6204 11.006 61.8717 11.578C62.123 12.1413 62.2487 12.7653 62.2487 13.45C62.2487 14.126 62.123 14.7543 61.8717 15.335C61.6204 15.907 61.2694 16.4053 60.8187 16.83C60.3767 17.246 59.8524 17.571 59.2457 17.805C58.6477 18.039 57.9934 18.156 57.2827 18.156ZM57.2697 16.362C57.677 16.362 58.0497 16.2927 58.3877 16.154C58.7344 16.0153 59.0377 15.816 59.2977 15.556C59.5577 15.296 59.757 14.9883 59.8957 14.633C60.043 14.2777 60.1167 13.8833 60.1167 13.45C60.1167 13.0167 60.043 12.6223 59.8957 12.267C59.757 11.9117 59.5577 11.604 59.2977 11.344C59.0464 11.084 58.7474 10.8847 58.4007 10.746C58.054 10.6073 57.677 10.538 57.2697 10.538C56.8624 10.538 56.4854 10.6073 56.1387 10.746C55.8007 10.8847 55.5017 11.084 55.2417 11.344C54.9817 11.604 54.778 11.9117 54.6307 12.267C54.492 12.6223 54.4227 13.0167 54.4227 13.45C54.4227 13.8747 54.492 14.269 54.6307 14.633C54.778 14.9883 54.9774 15.296 55.2287 15.556C55.4887 15.816 55.792 16.0153 56.1387 16.154C56.4854 16.2927 56.8624 16.362 57.2697 16.362ZM66.6394 18.104C66.0588 18.104 65.5388 17.9913 65.0794 17.766C64.6288 17.5407 64.2778 17.1983 64.0264 16.739C63.7751 16.271 63.6494 15.6773 63.6494 14.958V11.006H65.6774V14.659C65.6774 15.2397 65.7988 15.6687 66.0414 15.946C66.2928 16.2147 66.6438 16.349 67.0944 16.349C67.4064 16.349 67.6838 16.284 67.9264 16.154C68.1691 16.0153 68.3598 15.8073 68.4984 15.53C68.6371 15.244 68.7064 14.8887 68.7064 14.464V11.006H70.7344V18H68.8104V16.076L69.1614 16.635C68.9274 17.1203 68.5808 17.4887 68.1214 17.74C67.6708 17.9827 67.1768 18.104 66.6394 18.104ZM75.4732 18.104C74.6499 18.104 74.0086 17.896 73.5492 17.48C73.0899 17.0553 72.8602 16.427 72.8602 15.595V9.459H74.8882V15.569C74.8882 15.8637 74.9662 16.0933 75.1222 16.258C75.2782 16.414 75.4906 16.492 75.7592 16.492C76.0799 16.492 76.3529 16.4053 76.5782 16.232L77.1242 17.662C76.9162 17.8093 76.6649 17.922 76.3702 18C76.0842 18.0693 75.7852 18.104 75.4732 18.104ZM71.7812 12.722V11.162H76.6302V12.722H71.7812Z" fill="white"/>
</svg>
