<svg width="40" height="34" viewBox="0 0 40 34" fill="none" xmlns="http://www.w3.org/2000/svg">
<path d="M38.9926 28.2291L38.9926 28.229C39.3317 28.1135 39.5 27.851 39.5 27.6122V1.17056H39.4999L39.5 1.16497C39.5013 1.05055 39.4315 0.875368 39.2593 0.71907C39.0913 0.566539 38.8875 0.489865 38.7121 0.501109L38.6961 0.502133H38.6801H15.0342C14.7985 0.502133 14.5828 0.585599 14.4324 0.718729C14.284 0.850115 14.2144 1.01431 14.2144 1.17056V9.92912C14.2144 10.0854 14.284 10.2496 14.4324 10.381C14.5828 10.5141 14.7985 10.5976 15.0342 10.5976C15.27 10.5976 15.4857 10.5141 15.6361 10.381C15.7845 10.2496 15.854 10.0854 15.854 9.92912V2.33783V1.83783H16.354H31.5808L31.7422 2.81107L24.9055 5.14209L24.9053 5.14216C24.7423 5.19767 24.6119 5.2924 24.5249 5.40456C24.4388 5.51572 24.3981 5.63958 24.3981 5.75979V5.76016V26.4426V26.9426H23.8981H16.354H15.854V26.4426V18.8513C15.854 18.695 15.7845 18.5308 15.6361 18.3994C15.4857 18.2663 15.27 18.1828 15.0342 18.1828C14.7985 18.1828 14.5828 18.2663 14.4324 18.3994C14.284 18.5308 14.2144 18.695 14.2144 18.8513V27.611C14.2144 27.7672 14.284 27.9314 14.4324 28.0628C14.5828 28.1959 14.7985 28.2794 15.0342 28.2794H23.8981H24.3981V28.7794L24.3982 32.2017L24.3981 32.2067C24.3963 32.3946 24.5067 32.5919 24.7352 32.7303C24.9633 32.8684 25.2599 32.9129 25.5291 32.8203L25.5304 32.8198L38.9926 28.2291ZM26.6991 30.9726L26.0378 31.1981V30.4993V6.56287V6.20508L26.3764 6.08962L37.199 2.39972L37.8603 2.17423V2.87297V26.8094V27.1672L37.5217 27.2827L26.6991 30.9726Z" fill="white" stroke="white"/>
<path d="M7.45018 19.8963L7.4506 19.8959C7.52502 19.8318 7.57936 19.7599 7.6147 19.6864C7.64988 19.6133 7.66656 19.5382 7.66656 19.4648C7.66656 19.3913 7.64988 19.3162 7.6147 19.2431C7.57936 19.1696 7.52502 19.0977 7.4506 19.0336L7.4505 19.0335L4.20997 16.2428L3.18944 15.364H4.53625H20.3855C20.6274 15.364 20.8471 15.2805 20.9987 15.15C21.148 15.0214 21.2141 14.8644 21.2141 14.7198C21.2141 14.5751 21.148 14.4181 20.9987 14.2896C20.8471 14.159 20.6274 14.0756 20.3855 14.0756H4.53625H3.18902L4.21005 13.1966L7.4505 10.4071C7.45053 10.4071 7.45055 10.4071 7.45058 10.4071C7.52476 10.3431 7.57893 10.2714 7.61416 10.1981C7.64924 10.1252 7.66587 10.0503 7.66587 9.97704C7.66587 9.90376 7.64924 9.8289 7.61416 9.75596C7.57892 9.68269 7.52473 9.61088 7.4505 9.54696C7.37615 9.48292 7.28401 9.42891 7.17782 9.39103C7.07162 9.35314 6.95578 9.33301 6.83744 9.33301C6.7191 9.33301 6.60326 9.35315 6.49706 9.39103C6.39087 9.42891 6.29873 9.48292 6.22437 9.54696L0.715874 14.2908L0.715666 14.291C0.641317 14.355 0.587034 14.4268 0.551729 14.5002L0.101206 14.2833L0.551725 14.5002C0.516584 14.5732 0.499928 14.6481 0.499928 14.7215C0.499928 14.7948 0.516584 14.8698 0.551727 14.9428C0.587034 15.0161 0.641317 15.088 0.715666 15.1519L0.715874 15.1521L6.22437 19.896L6.22469 19.8963C6.29894 19.9603 6.391 20.0144 6.49715 20.0523C6.6033 20.0902 6.71912 20.1103 6.83744 20.1103C6.95576 20.1103 7.07158 20.0902 7.17772 20.0523C7.28388 20.0144 7.37594 19.9603 7.45018 19.8963Z" fill="white" stroke="white"/>
</svg>
