<svg width="40" height="40" viewBox="0 0 40 40" fill="none" xmlns="http://www.w3.org/2000/svg">
<path d="M34.78 12.3238C34.78 12.32 34.78 12.3175 34.78 12.3137C34.78 12.3112 34.7775 12.3088 34.7775 12.305L33.7337 6.045C33.62 5.365 32.9813 4.905 32.295 5.0175L24.8962 6.25H18.75V2.5C18.75 1.81 18.19 1.25 17.5 1.25H10H2.5C1.81 1.25 1.25 1.81 1.25 2.5V37.5C1.25 38.19 1.81 38.75 2.5 38.75H10H17.5H25C25.69 38.75 26.25 38.19 26.25 37.5V22.6038L28.7675 37.7063C28.8687 38.3162 29.3988 38.75 29.9988 38.75C30.0662 38.75 30.1363 38.745 30.2063 38.7325L37.7063 37.4825C38.3862 37.3688 38.8475 36.725 38.7337 36.0437L34.78 12.3238ZM27.5012 14.9088L32.5237 13.995L32.7563 15.3912L27.735 16.3062L27.5012 14.9088ZM31.4725 7.68875L32.1125 11.5287L27.0913 12.4425L26.4387 8.5275L31.4725 7.68875ZM3.75 8.75H8.75V31.25H3.75V8.75ZM11.25 8.75H16.25V31.25H11.25V8.75ZM16.25 6.25H11.25V3.75H16.25V6.25ZM8.75 3.75V6.25H3.75V3.75H8.75ZM3.75 33.75H8.75V36.25H3.75V33.75ZM11.25 33.75H16.25V36.25H11.25V33.75ZM23.75 36.25H18.75V8.75H23.75V36.25ZM31.0275 36.0613L28.1462 18.7712L33.1675 17.8563L36.0613 35.2225L31.0275 36.0613Z" fill="white"/>
<path d="M21.25 21.25C21.94 21.25 22.5 20.69 22.5 20V12.5C22.5 11.81 21.94 11.25 21.25 11.25C20.56 11.25 20 11.81 20 12.5V20C20 20.69 20.56 21.25 21.25 21.25ZM21.25 33.75C21.94 33.75 22.5 33.19 22.5 32.5V25C22.5 24.31 21.94 23.75 21.25 23.75C20.56 23.75 20 24.31 20 25V32.5C20 33.19 20.56 33.75 21.25 33.75Z" fill="white" fill-opacity="0.9"/>
</svg>
