<svg width="175" height="49" viewBox="0 0 175 49" fill="none" xmlns="http://www.w3.org/2000/svg">
<rect x="1" y="1" width="173" height="47" rx="23.5" fill="#D3C1B5" stroke="#4C3221" stroke-width="2"/>
<path d="M81.1513 22V12.2H83.0273L87.1993 19.116H86.2053L90.3073 12.2H92.1693L92.1973 22H90.0693L90.0553 15.462H90.4473L87.1713 20.964H86.1493L82.8033 15.462H83.2793V22H81.1513ZM98.9884 22V20.53L98.8484 20.208V17.576C98.8484 17.1093 98.7037 16.7453 98.4144 16.484C98.1344 16.2227 97.7004 16.092 97.1124 16.092C96.711 16.092 96.3144 16.1573 95.9224 16.288C95.5397 16.4093 95.213 16.5773 94.9424 16.792L94.1584 15.266C94.569 14.9767 95.0637 14.7527 95.6424 14.594C96.221 14.4353 96.809 14.356 97.4064 14.356C98.5544 14.356 99.4457 14.6267 100.08 15.168C100.715 15.7093 101.032 16.554 101.032 17.702V22H98.9884ZM96.6924 22.112C96.1044 22.112 95.6004 22.014 95.1804 21.818C94.7604 21.6127 94.4384 21.3373 94.2144 20.992C93.9904 20.6467 93.8784 20.2593 93.8784 19.83C93.8784 19.382 93.9857 18.99 94.2004 18.654C94.4244 18.318 94.7744 18.0567 95.2504 17.87C95.7264 17.674 96.347 17.576 97.1124 17.576H99.1144V18.85H97.3504C96.837 18.85 96.4824 18.934 96.2864 19.102C96.0997 19.27 96.0064 19.48 96.0064 19.732C96.0064 20.012 96.1137 20.236 96.3284 20.404C96.5524 20.5627 96.8557 20.642 97.2384 20.642C97.6024 20.642 97.929 20.558 98.2184 20.39C98.5077 20.2127 98.7177 19.956 98.8484 19.62L99.1844 20.628C99.0257 21.1133 98.7364 21.482 98.3164 21.734C97.8964 21.986 97.355 22.112 96.6924 22.112ZM107.587 14.356C108.184 14.356 108.716 14.4773 109.183 14.72C109.659 14.9533 110.032 15.3173 110.303 15.812C110.574 16.2973 110.709 16.9227 110.709 17.688V22H108.525V18.024C108.525 17.4173 108.39 16.9693 108.119 16.68C107.858 16.3907 107.484 16.246 106.999 16.246C106.654 16.246 106.341 16.3207 106.061 16.47C105.79 16.61 105.576 16.8293 105.417 17.128C105.268 17.4267 105.193 17.8093 105.193 18.276V22H103.009V14.468H105.095V16.554L104.703 15.924C104.974 15.42 105.361 15.0327 105.865 14.762C106.369 14.4913 106.943 14.356 107.587 14.356ZM117.309 22V20.53L117.169 20.208V17.576C117.169 17.1093 117.024 16.7453 116.735 16.484C116.455 16.2227 116.021 16.092 115.433 16.092C115.031 16.092 114.635 16.1573 114.243 16.288C113.86 16.4093 113.533 16.5773 113.263 16.792L112.479 15.266C112.889 14.9767 113.384 14.7527 113.963 14.594C114.541 14.4353 115.129 14.356 115.727 14.356C116.875 14.356 117.766 14.6267 118.401 15.168C119.035 15.7093 119.353 16.554 119.353 17.702V22H117.309ZM115.013 22.112C114.425 22.112 113.921 22.014 113.501 21.818C113.081 21.6127 112.759 21.3373 112.535 20.992C112.311 20.6467 112.199 20.2593 112.199 19.83C112.199 19.382 112.306 18.99 112.521 18.654C112.745 18.318 113.095 18.0567 113.571 17.87C114.047 17.674 114.667 17.576 115.433 17.576H117.435V18.85H115.671C115.157 18.85 114.803 18.934 114.607 19.102C114.42 19.27 114.327 19.48 114.327 19.732C114.327 20.012 114.434 20.236 114.649 20.404C114.873 20.5627 115.176 20.642 115.559 20.642C115.923 20.642 116.249 20.558 116.539 20.39C116.828 20.2127 117.038 19.956 117.169 19.62L117.505 20.628C117.346 21.1133 117.057 21.482 116.637 21.734C116.217 21.986 115.675 22.112 115.013 22.112ZM124.926 24.828C124.217 24.828 123.531 24.7393 122.868 24.562C122.215 24.394 121.669 24.1373 121.23 23.792L122.098 22.224C122.415 22.4853 122.817 22.6907 123.302 22.84C123.797 22.9987 124.282 23.078 124.758 23.078C125.533 23.078 126.093 22.9053 126.438 22.56C126.793 22.2147 126.97 21.7013 126.97 21.02V19.886L127.11 17.996L127.082 16.092V14.468H129.154V20.74C129.154 22.14 128.79 23.1713 128.062 23.834C127.334 24.4967 126.289 24.828 124.926 24.828ZM124.59 21.636C123.89 21.636 123.255 21.4867 122.686 21.188C122.126 20.88 121.673 20.4553 121.328 19.914C120.992 19.3633 120.824 18.724 120.824 17.996C120.824 17.2587 120.992 16.6193 121.328 16.078C121.673 15.5273 122.126 15.1027 122.686 14.804C123.255 14.5053 123.89 14.356 124.59 14.356C125.225 14.356 125.785 14.4867 126.27 14.748C126.755 15 127.133 15.3967 127.404 15.938C127.675 16.47 127.81 17.156 127.81 17.996C127.81 18.8267 127.675 19.5127 127.404 20.054C127.133 20.586 126.755 20.9827 126.27 21.244C125.785 21.5053 125.225 21.636 124.59 21.636ZM125.024 19.844C125.407 19.844 125.747 19.7693 126.046 19.62C126.345 19.4613 126.578 19.242 126.746 18.962C126.914 18.682 126.998 18.36 126.998 17.996C126.998 17.6227 126.914 17.3007 126.746 17.03C126.578 16.75 126.345 16.5353 126.046 16.386C125.747 16.2273 125.407 16.148 125.024 16.148C124.641 16.148 124.301 16.2273 124.002 16.386C123.703 16.5353 123.465 16.75 123.288 17.03C123.12 17.3007 123.036 17.6227 123.036 17.996C123.036 18.36 123.12 18.682 123.288 18.962C123.465 19.242 123.703 19.4613 124.002 19.62C124.301 19.7693 124.641 19.844 125.024 19.844ZM134.925 22.112C134.066 22.112 133.31 21.944 132.657 21.608C132.013 21.272 131.513 20.8147 131.159 20.236C130.804 19.648 130.627 18.9807 130.627 18.234C130.627 17.478 130.799 16.8107 131.145 16.232C131.499 15.644 131.98 15.1867 132.587 14.86C133.193 14.524 133.879 14.356 134.645 14.356C135.382 14.356 136.045 14.5147 136.633 14.832C137.23 15.14 137.701 15.588 138.047 16.176C138.392 16.7547 138.565 17.45 138.565 18.262C138.565 18.346 138.56 18.444 138.551 18.556C138.541 18.6587 138.532 18.7567 138.523 18.85H132.405V17.576H137.375L136.535 17.954C136.535 17.562 136.455 17.2213 136.297 16.932C136.138 16.6427 135.919 16.4187 135.639 16.26C135.359 16.092 135.032 16.008 134.659 16.008C134.285 16.008 133.954 16.092 133.665 16.26C133.385 16.4187 133.165 16.6473 133.007 16.946C132.848 17.2353 132.769 17.5807 132.769 17.982V18.318C132.769 18.7287 132.857 19.0927 133.035 19.41C133.221 19.718 133.478 19.956 133.805 20.124C134.141 20.2827 134.533 20.362 134.981 20.362C135.382 20.362 135.732 20.3013 136.031 20.18C136.339 20.0587 136.619 19.8767 136.871 19.634L138.033 20.894C137.687 21.286 137.253 21.5893 136.731 21.804C136.208 22.0093 135.606 22.112 134.925 22.112ZM93.1839 33.61H97.8879V35.43H93.1839V33.61ZM93.3519 39H91.0839V29.2H98.4899V31.02H93.3519V39ZM99.8713 39V31.468H102.055V39H99.8713ZM100.963 30.418C100.562 30.418 100.235 30.3013 99.9833 30.068C99.7313 29.8347 99.6053 29.5453 99.6053 29.2C99.6053 28.8547 99.7313 28.5653 99.9833 28.332C100.235 28.0987 100.562 27.982 100.963 27.982C101.365 27.982 101.691 28.094 101.943 28.318C102.195 28.5327 102.321 28.8127 102.321 29.158C102.321 29.522 102.195 29.8253 101.943 30.068C101.701 30.3013 101.374 30.418 100.963 30.418ZM108.66 31.356C109.258 31.356 109.79 31.4773 110.256 31.72C110.732 31.9533 111.106 32.3173 111.376 32.812C111.647 33.2973 111.782 33.9227 111.782 34.688V39H109.598V35.024C109.598 34.4173 109.463 33.9693 109.192 33.68C108.931 33.3907 108.558 33.246 108.072 33.246C107.727 33.246 107.414 33.3207 107.134 33.47C106.864 33.61 106.649 33.8293 106.49 34.128C106.341 34.4267 106.266 34.8093 106.266 35.276V39H104.082V31.468H106.168V33.554L105.776 32.924C106.047 32.42 106.434 32.0327 106.938 31.762C107.442 31.4913 108.016 31.356 108.66 31.356ZM117.555 39.112C116.696 39.112 115.94 38.944 115.287 38.608C114.643 38.272 114.143 37.8147 113.789 37.236C113.434 36.648 113.257 35.9807 113.257 35.234C113.257 34.478 113.429 33.8107 113.775 33.232C114.129 32.644 114.61 32.1867 115.217 31.86C115.823 31.524 116.509 31.356 117.275 31.356C118.012 31.356 118.675 31.5147 119.263 31.832C119.86 32.14 120.331 32.588 120.677 33.176C121.022 33.7547 121.195 34.45 121.195 35.262C121.195 35.346 121.19 35.444 121.181 35.556C121.171 35.6587 121.162 35.7567 121.153 35.85H115.035V34.576H120.005L119.165 34.954C119.165 34.562 119.085 34.2213 118.927 33.932C118.768 33.6427 118.549 33.4187 118.269 33.26C117.989 33.092 117.662 33.008 117.289 33.008C116.915 33.008 116.584 33.092 116.295 33.26C116.015 33.4187 115.795 33.6473 115.637 33.946C115.478 34.2353 115.399 34.5807 115.399 34.982V35.318C115.399 35.7287 115.487 36.0927 115.665 36.41C115.851 36.718 116.108 36.956 116.435 37.124C116.771 37.2827 117.163 37.362 117.611 37.362C118.012 37.362 118.362 37.3013 118.661 37.18C118.969 37.0587 119.249 36.8767 119.501 36.634L120.663 37.894C120.317 38.286 119.883 38.5893 119.361 38.804C118.838 39.0093 118.236 39.112 117.555 39.112ZM125.183 39.112C124.539 39.112 123.918 39.0373 123.321 38.888C122.733 38.7293 122.266 38.5333 121.921 38.3L122.649 36.732C122.994 36.9467 123.4 37.124 123.867 37.264C124.343 37.3947 124.809 37.46 125.267 37.46C125.771 37.46 126.125 37.3993 126.331 37.278C126.545 37.1567 126.653 36.9887 126.653 36.774C126.653 36.5967 126.569 36.466 126.401 36.382C126.242 36.2887 126.027 36.2187 125.757 36.172C125.486 36.1253 125.187 36.0787 124.861 36.032C124.543 35.9853 124.221 35.9247 123.895 35.85C123.568 35.766 123.269 35.6447 122.999 35.486C122.728 35.3273 122.509 35.1127 122.341 34.842C122.182 34.5713 122.103 34.2213 122.103 33.792C122.103 33.316 122.238 32.896 122.509 32.532C122.789 32.168 123.19 31.8833 123.713 31.678C124.235 31.4633 124.861 31.356 125.589 31.356C126.102 31.356 126.625 31.412 127.157 31.524C127.689 31.636 128.132 31.7993 128.487 32.014L127.759 33.568C127.395 33.3533 127.026 33.2087 126.653 33.134C126.289 33.05 125.934 33.008 125.589 33.008C125.103 33.008 124.749 33.0733 124.525 33.204C124.301 33.3347 124.189 33.5027 124.189 33.708C124.189 33.8947 124.268 34.0347 124.427 34.128C124.595 34.2213 124.814 34.296 125.085 34.352C125.355 34.408 125.649 34.4593 125.967 34.506C126.293 34.5433 126.62 34.604 126.947 34.688C127.273 34.772 127.567 34.8933 127.829 35.052C128.099 35.2013 128.319 35.4113 128.487 35.682C128.655 35.9433 128.739 36.2887 128.739 36.718C128.739 37.1847 128.599 37.6 128.319 37.964C128.039 38.3187 127.633 38.5987 127.101 38.804C126.578 39.0093 125.939 39.112 125.183 39.112Z" fill="#4C3221"/>
<path d="M61 8V42" stroke="#4C3221" stroke-width="2" stroke-linecap="round"/>
</svg>
