<svg width="19" height="18" viewBox="0 0 19 18" fill="none" xmlns="http://www.w3.org/2000/svg">
<path d="M1 0C0.734784 0 0.48043 0.105357 0.292893 0.292893C0.105357 0.48043 0 0.734784 0 1V17C0 17.2652 0.105357 17.5196 0.292893 17.7071C0.48043 17.8946 0.734784 18 1 18H11C11.2652 18 11.5196 17.8946 11.7071 17.7071C11.8946 17.5196 12 17.2652 12 17V7.697L14.021 17.207C14.0762 17.4664 14.2321 17.6932 14.4546 17.8376C14.677 17.982 14.9476 18.0321 15.207 17.977L18.142 17.354C18.4014 17.2988 18.6282 17.1429 18.7726 16.9204C18.917 16.698 18.9671 16.4274 18.912 16.168L16.002 2.474C15.9747 2.34547 15.9223 2.22359 15.8478 2.11532C15.7734 2.00705 15.6783 1.91451 15.5681 1.843C15.4578 1.77149 15.3346 1.72241 15.2054 1.69856C15.0762 1.67471 14.9435 1.67656 14.815 1.704L12 2.302V2C12 1.73478 11.8946 1.48043 11.7071 1.29289C11.5196 1.10536 11.2652 1 11 1H6C6 0.734784 5.89464 0.48043 5.70711 0.292893C5.51957 0.105357 5.26522 0 5 0H1ZM6 3H10V11H6V3ZM10 13V16H6V13H10ZM4 14V16H2V14H4ZM15.77 15.814L15.354 13.858L16.332 13.65L16.748 15.606L15.77 15.814Z" fill="white"/>
</svg>
