<svg width="40" height="49" viewBox="0 0 40 49" fill="none" xmlns="http://www.w3.org/2000/svg">
<path d="M37.3913 0H5.21739C3.83365 0 2.50659 0.549688 1.52814 1.52814C0.549688 2.50659 0 3.83365 0 5.21739V44.3478C0.045138 45.5212 0.544957 46.631 1.39372 47.4424C2.24248 48.2539 3.37362 48.7033 4.54783 48.6957H20.8696C21.1002 48.6957 21.3214 48.604 21.4844 48.441C21.6475 48.2779 21.7391 48.0567 21.7391 47.8261C21.7391 47.5955 21.6475 47.3743 21.4844 47.2112C21.3214 47.0481 21.1002 46.9565 20.8696 46.9565H4.54783C3.8333 46.9689 3.14172 46.7042 2.6181 46.2178C2.09448 45.7315 1.77947 45.0613 1.73913 44.3478V44.113C1.75142 43.9361 1.78351 43.7611 1.83478 43.5913C1.86485 43.5025 1.89969 43.4155 1.93913 43.3304C1.93913 43.2609 2 43.1913 2.02609 43.1304C2.15192 42.9075 2.3037 42.7003 2.47826 42.513C2.72264 42.266 3.0139 42.0703 3.33495 41.9374C3.656 41.8045 4.00036 41.7371 4.34783 41.7391H37.3913C37.555 41.7394 37.7183 41.7219 37.8783 41.687H38.0348L38.2609 41.6261V42.6087C38.2609 42.8393 38.1693 43.0605 38.0062 43.2236C37.8431 43.3866 37.6219 43.4783 37.3913 43.4783H4.34783C4.1172 43.4783 3.89603 43.5699 3.73295 43.7329C3.56988 43.896 3.47826 44.1172 3.47826 44.3478C3.47826 44.5784 3.56988 44.7996 3.73295 44.9627C3.89603 45.1258 4.1172 45.2174 4.34783 45.2174H37.3913C37.688 45.215 37.982 45.1621 38.2609 45.0609V46.087C38.2609 46.3176 38.1693 46.5388 38.0062 46.7018C37.8431 46.8649 37.6219 46.9565 37.3913 46.9565H28.6957C28.465 46.9565 28.2439 47.0481 28.0808 47.2112C27.9177 47.3743 27.8261 47.5955 27.8261 47.8261C27.8261 48.0567 27.9177 48.2779 28.0808 48.441C28.2439 48.604 28.465 48.6957 28.6957 48.6957H37.3913C38.0832 48.6957 38.7467 48.4208 39.2359 47.9316C39.7252 47.4424 40 46.7788 40 46.087V2.6087C40 1.91683 39.7252 1.25329 39.2359 0.764069C38.7467 0.274844 38.0832 0 37.3913 0ZM3.56522 40.0783L3.32174 40.1391C3.1473 40.1793 2.97587 40.2316 2.8087 40.2957C2.72174 40.2957 2.63478 40.3652 2.54783 40.4C2.39262 40.4725 2.24165 40.5538 2.09565 40.6435L1.86087 40.7913L1.73913 40.8696V5.21739C1.73913 4.2949 2.10559 3.41019 2.75789 2.75789C3.41019 2.10559 4.2949 1.73913 5.21739 1.73913V40H4.34783C4.08497 39.9993 3.82273 40.0255 3.56522 40.0783ZM6.95652 40V1.73913H37.3913C37.6219 1.73913 37.8431 1.83075 38.0062 1.99382C38.1693 2.1569 38.2609 2.37807 38.2609 2.6087V39.1304C38.2609 39.3611 38.1693 39.5822 38.0062 39.7453C37.8431 39.9084 37.6219 40 37.3913 40H6.95652Z" fill="white"/>
<path d="M32.1738 8.6958H13.0434C12.8128 8.6958 12.5916 8.78742 12.4285 8.95049C12.2654 9.11357 12.1738 9.33474 12.1738 9.56537V15.6523C12.1738 15.8829 12.2654 16.1041 12.4285 16.2672C12.5916 16.4303 12.8128 16.5219 13.0434 16.5219H32.1738C32.4045 16.5219 32.6256 16.4303 32.7887 16.2672C32.9518 16.1041 33.0434 15.8829 33.0434 15.6523V9.56537C33.0434 9.33474 32.9518 9.11357 32.7887 8.95049C32.6256 8.78742 32.4045 8.6958 32.1738 8.6958ZM31.3043 14.7828H13.913V10.4349H31.3043V14.7828ZM30.4347 29.5654H14.7825C14.5519 29.5654 14.3307 29.657 14.1676 29.8201C14.0046 29.9831 13.913 30.2043 13.913 30.4349C13.913 30.6656 14.0046 30.8867 14.1676 31.0498C14.3307 31.2129 14.5519 31.3045 14.7825 31.3045H30.4347C30.6653 31.3045 30.8865 31.2129 31.0496 31.0498C31.2127 30.8867 31.3043 30.6656 31.3043 30.4349C31.3043 30.2043 31.2127 29.9831 31.0496 29.8201C30.8865 29.657 30.6653 29.5654 30.4347 29.5654ZM30.4347 33.9132H14.7825C14.5519 33.9132 14.3307 34.0048 14.1676 34.1679C14.0046 34.331 13.913 34.5521 13.913 34.7828C13.913 35.0134 14.0046 35.2346 14.1676 35.3976C14.3307 35.5607 14.5519 35.6523 14.7825 35.6523H30.4347C30.6653 35.6523 30.8865 35.5607 31.0496 35.3976C31.2127 35.2346 31.3043 35.0134 31.3043 34.7828C31.3043 34.5521 31.2127 34.331 31.0496 34.1679C30.8865 34.0048 30.6653 33.9132 30.4347 33.9132ZM25.2173 46.9567H24.3477C24.1171 46.9567 23.8959 47.0483 23.7329 47.2114C23.5698 47.3744 23.4782 47.5956 23.4782 47.8262C23.4782 48.0569 23.5698 48.278 23.7329 48.4411C23.8959 48.6042 24.1171 48.6958 24.3477 48.6958H25.2173C25.4479 48.6958 25.6691 48.6042 25.8322 48.4411C25.9953 48.278 26.0869 48.0569 26.0869 47.8262C26.0869 47.5956 25.9953 47.3744 25.8322 47.2114C25.6691 47.0483 25.4479 46.9567 25.2173 46.9567Z" fill="white"/>
</svg>
