<svg width="258" height="95" viewBox="0 0 258 95" fill="none" xmlns="http://www.w3.org/2000/svg">
<rect x="1" y="1" width="255.336" height="92.7405" rx="9" fill="#BC9F8B" fill-opacity="0.59" stroke="#4C3221" stroke-width="2"/>
<path d="M71.5361 16.6433V76.8163" stroke="#4C3221" stroke-width="2" stroke-linecap="round"/>
<path fill-rule="evenodd" clip-rule="evenodd" d="M30.7778 24C29.7959 24 29 24.7733 29 25.7273V60.2727C29 61.2267 29.7959 62 30.7778 62C31.7596 62 32.5556 61.2267 32.5556 60.2727V45.7607C33.384 45.36 34.6937 44.8014 36.0978 44.4604C38.6162 43.8488 40.6373 44.0745 41.7431 45.6859C43.8071 48.6938 47.7488 48.9587 50.7824 48.6651C53.9836 48.3552 57.1508 47.3367 58.7518 46.7613C60.1586 46.2559 61 44.958 61 43.5887V32.1585C61 29.4789 58.0805 27.9144 55.7536 28.9397C53.8667 29.7711 51.3598 30.6997 49.0944 31.0063C46.7243 31.3272 45.3477 30.893 44.7013 29.9512C42.3691 26.5523 38.3788 26.1499 35.519 26.3814C34.4212 26.4703 33.401 26.6568 32.5556 26.8543V25.7273C32.5556 24.7733 31.7596 24 30.7778 24ZM32.5556 30.4273V41.9718C33.3393 41.6608 34.2554 41.347 35.2355 41.109C38.0504 40.4253 42.2516 40.1996 44.7013 43.7695C45.5522 45.0095 47.5129 45.5099 50.4299 45.2277C53.1348 44.9658 55.9195 44.0918 57.4444 43.5479V32.1585C57.4444 32.0801 57.2811 32.0599 57.2222 32.0858C55.2356 32.9612 52.3593 34.0522 49.5851 34.4278C46.9157 34.7892 43.5963 34.5683 41.7431 31.8675C40.5198 30.0849 38.2878 29.6238 35.8143 29.824C34.5539 29.9261 33.3809 30.1944 32.5556 30.4273Z" fill="#4C3221"/>
<path d="M97.4063 72.8931V63.0931H101.648C102.526 63.0931 103.282 63.2377 103.916 63.5271C104.551 63.8071 105.041 64.2131 105.386 64.7451C105.732 65.2771 105.904 65.9117 105.904 66.6491C105.904 67.3771 105.732 68.0071 105.386 68.5391C105.041 69.0617 104.551 69.4631 103.916 69.7431C103.282 70.0231 102.526 70.1631 101.648 70.1631H98.6663L99.6743 69.1691V72.8931H97.4063ZM103.636 72.8931L101.186 69.3371H103.608L106.086 72.8931H103.636ZM99.6743 69.4211L98.6663 68.3571H101.522C102.222 68.3571 102.745 68.2077 103.09 67.9091C103.436 67.6011 103.608 67.1811 103.608 66.6491C103.608 66.1077 103.436 65.6877 103.09 65.3891C102.745 65.0904 102.222 64.9411 101.522 64.9411H98.6663L99.6743 63.8631V69.4211ZM111.285 73.0051C110.427 73.0051 109.671 72.8371 109.017 72.5011C108.373 72.1651 107.874 71.7077 107.519 71.1291C107.165 70.5411 106.987 69.8737 106.987 69.1271C106.987 68.3711 107.16 67.7037 107.505 67.1251C107.86 66.5371 108.341 66.0797 108.947 65.7531C109.554 65.4171 110.24 65.2491 111.005 65.2491C111.743 65.2491 112.405 65.4077 112.993 65.7251C113.591 66.0331 114.062 66.4811 114.407 67.0691C114.753 67.6477 114.925 68.3431 114.925 69.1551C114.925 69.2391 114.921 69.3371 114.911 69.4491C114.902 69.5517 114.893 69.6497 114.883 69.7431H108.765V68.4691H113.735L112.895 68.8471C112.895 68.4551 112.816 68.1144 112.657 67.8251C112.499 67.5357 112.279 67.3117 111.999 67.1531C111.719 66.9851 111.393 66.9011 111.019 66.9011C110.646 66.9011 110.315 66.9851 110.025 67.1531C109.745 67.3117 109.526 67.5404 109.367 67.8391C109.209 68.1284 109.129 68.4737 109.129 68.8751V69.2111C109.129 69.6217 109.218 69.9857 109.395 70.3031C109.582 70.6111 109.839 70.8491 110.165 71.0171C110.501 71.1757 110.893 71.2551 111.341 71.2551C111.743 71.2551 112.093 71.1944 112.391 71.0731C112.699 70.9517 112.979 70.7697 113.231 70.5271L114.393 71.7871C114.048 72.1791 113.614 72.4824 113.091 72.6971C112.569 72.9024 111.967 73.0051 111.285 73.0051ZM120.831 73.0051C120.197 73.0051 119.641 72.8651 119.165 72.5851C118.689 72.3051 118.316 71.8804 118.045 71.3111C117.784 70.7324 117.653 70.0044 117.653 69.1271C117.653 68.2404 117.779 67.5124 118.031 66.9431C118.283 66.3737 118.647 65.9491 119.123 65.6691C119.599 65.3891 120.169 65.2491 120.831 65.2491C121.541 65.2491 122.175 65.4124 122.735 65.7391C123.305 66.0564 123.753 66.5044 124.079 67.0831C124.415 67.6617 124.583 68.3431 124.583 69.1271C124.583 69.9204 124.415 70.6064 124.079 71.1851C123.753 71.7637 123.305 72.2117 122.735 72.5291C122.175 72.8464 121.541 73.0051 120.831 73.0051ZM116.379 75.6091V65.3611H118.465V66.9011L118.423 69.1411L118.563 71.3671V75.6091H116.379ZM120.453 71.2131C120.817 71.2131 121.139 71.1291 121.419 70.9611C121.709 70.7931 121.937 70.5551 122.105 70.2471C122.283 69.9297 122.371 69.5564 122.371 69.1271C122.371 68.6884 122.283 68.3151 122.105 68.0071C121.937 67.6991 121.709 67.4611 121.419 67.2931C121.139 67.1251 120.817 67.0411 120.453 67.0411C120.089 67.0411 119.763 67.1251 119.473 67.2931C119.184 67.4611 118.955 67.6991 118.787 68.0071C118.619 68.3151 118.535 68.6884 118.535 69.1271C118.535 69.5564 118.619 69.9297 118.787 70.2471C118.955 70.5551 119.184 70.7931 119.473 70.9611C119.763 71.1291 120.089 71.2131 120.453 71.2131ZM129.629 73.0051C128.827 73.0051 128.113 72.8371 127.487 72.5011C126.871 72.1651 126.381 71.7077 126.017 71.1291C125.663 70.5411 125.485 69.8737 125.485 69.1271C125.485 68.3711 125.663 67.7037 126.017 67.1251C126.381 66.5371 126.871 66.0797 127.487 65.7531C128.113 65.4171 128.827 65.2491 129.629 65.2491C130.423 65.2491 131.132 65.4171 131.757 65.7531C132.383 66.0797 132.873 66.5324 133.227 67.1111C133.582 67.6897 133.759 68.3617 133.759 69.1271C133.759 69.8737 133.582 70.5411 133.227 71.1291C132.873 71.7077 132.383 72.1651 131.757 72.5011C131.132 72.8371 130.423 73.0051 129.629 73.0051ZM129.629 71.2131C129.993 71.2131 130.32 71.1291 130.609 70.9611C130.899 70.7931 131.127 70.5551 131.295 70.2471C131.463 69.9297 131.547 69.5564 131.547 69.1271C131.547 68.6884 131.463 68.3151 131.295 68.0071C131.127 67.6991 130.899 67.4611 130.609 67.2931C130.32 67.1251 129.993 67.0411 129.629 67.0411C129.265 67.0411 128.939 67.1251 128.649 67.2931C128.36 67.4611 128.127 67.6991 127.949 68.0071C127.781 68.3151 127.697 68.6884 127.697 69.1271C127.697 69.5564 127.781 69.9297 127.949 70.2471C128.127 70.5551 128.36 70.7931 128.649 70.9611C128.939 71.1291 129.265 71.2131 129.629 71.2131ZM135.219 72.8931V65.3611H137.305V67.4891L137.011 66.8731C137.235 66.3411 137.594 65.9397 138.089 65.6691C138.584 65.3891 139.186 65.2491 139.895 65.2491V67.2651C139.802 67.2557 139.718 67.2511 139.643 67.2511C139.568 67.2417 139.489 67.2371 139.405 67.2371C138.808 67.2371 138.322 67.4097 137.949 67.7551C137.585 68.0911 137.403 68.6184 137.403 69.3371V72.8931H135.219ZM144.534 73.0051C143.647 73.0051 142.956 72.7811 142.462 72.3331C141.967 71.8757 141.72 71.1991 141.72 70.3031V63.6951H143.904V70.2751C143.904 70.5924 143.988 70.8397 144.156 71.0171C144.324 71.1851 144.552 71.2691 144.842 71.2691C145.187 71.2691 145.481 71.1757 145.724 70.9891L146.312 72.5291C146.088 72.6877 145.817 72.8091 145.5 72.8931C145.192 72.9677 144.87 73.0051 144.534 73.0051ZM140.558 67.2091V65.5291H145.78V67.2091H140.558ZM150.072 73.0051C149.428 73.0051 148.807 72.9304 148.21 72.7811C147.622 72.6224 147.155 72.4264 146.81 72.1931L147.538 70.6251C147.883 70.8397 148.289 71.0171 148.756 71.1571C149.232 71.2877 149.698 71.3531 150.156 71.3531C150.66 71.3531 151.014 71.2924 151.22 71.1711C151.434 71.0497 151.542 70.8817 151.542 70.6671C151.542 70.4897 151.458 70.3591 151.29 70.2751C151.131 70.1817 150.916 70.1117 150.646 70.0651C150.375 70.0184 150.076 69.9717 149.75 69.9251C149.432 69.8784 149.11 69.8177 148.784 69.7431C148.457 69.6591 148.158 69.5377 147.888 69.3791C147.617 69.2204 147.398 69.0057 147.23 68.7351C147.071 68.4644 146.992 68.1144 146.992 67.6851C146.992 67.2091 147.127 66.7891 147.398 66.4251C147.678 66.0611 148.079 65.7764 148.602 65.5711C149.124 65.3564 149.75 65.2491 150.478 65.2491C150.991 65.2491 151.514 65.3051 152.046 65.4171C152.578 65.5291 153.021 65.6924 153.376 65.9071L152.648 67.4611C152.284 67.2464 151.915 67.1017 151.542 67.0271C151.178 66.9431 150.823 66.9011 150.478 66.9011C149.992 66.9011 149.638 66.9664 149.414 67.0971C149.19 67.2277 149.078 67.3957 149.078 67.6011C149.078 67.7877 149.157 67.9277 149.316 68.0211C149.484 68.1144 149.703 68.1891 149.974 68.2451C150.244 68.3011 150.538 68.3524 150.856 68.3991C151.182 68.4364 151.509 68.4971 151.836 68.5811C152.162 68.6651 152.456 68.7864 152.718 68.9451C152.988 69.0944 153.208 69.3044 153.376 69.5751C153.544 69.8364 153.628 70.1817 153.628 70.6111C153.628 71.0777 153.488 71.4931 153.208 71.8571C152.928 72.2117 152.522 72.4917 151.99 72.6971C151.467 72.9024 150.828 73.0051 150.072 73.0051ZM157.806 72.8931L162.174 63.0931H164.414L168.796 72.8931H166.416L162.832 64.2411H163.728L160.13 72.8931H157.806ZM159.99 70.7931L160.592 69.0711H165.632L166.248 70.7931H159.99ZM171.306 72.8931L168.142 65.3611H170.396L173.028 71.8431H171.908L174.638 65.3611H176.738L173.56 72.8931H171.306ZM182.003 72.8931V71.4231L181.863 71.1011V68.4691C181.863 68.0024 181.719 67.6384 181.429 67.3771C181.149 67.1157 180.715 66.9851 180.127 66.9851C179.726 66.9851 179.329 67.0504 178.937 67.1811C178.555 67.3024 178.228 67.4704 177.957 67.6851L177.173 66.1591C177.584 65.8697 178.079 65.6457 178.657 65.4871C179.236 65.3284 179.824 65.2491 180.421 65.2491C181.569 65.2491 182.461 65.5197 183.095 66.0611C183.73 66.6024 184.047 67.4471 184.047 68.5951V72.8931H182.003ZM179.707 73.0051C179.119 73.0051 178.615 72.9071 178.195 72.7111C177.775 72.5057 177.453 72.2304 177.229 71.8851C177.005 71.5397 176.893 71.1524 176.893 70.7231C176.893 70.2751 177.001 69.8831 177.215 69.5471C177.439 69.2111 177.789 68.9497 178.265 68.7631C178.741 68.5671 179.362 68.4691 180.127 68.4691H182.129V69.7431H180.365C179.852 69.7431 179.497 69.8271 179.301 69.9951C179.115 70.1631 179.021 70.3731 179.021 70.6251C179.021 70.9051 179.129 71.1291 179.343 71.2971C179.567 71.4557 179.871 71.5351 180.253 71.5351C180.617 71.5351 180.944 71.4511 181.233 71.2831C181.523 71.1057 181.733 70.8491 181.863 70.5131L182.199 71.5211C182.041 72.0064 181.751 72.3751 181.331 72.6271C180.911 72.8791 180.37 73.0051 179.707 73.0051ZM186.024 72.8931V65.3611H188.208V72.8931H186.024ZM187.116 64.3111C186.714 64.3111 186.388 64.1944 186.136 63.9611C185.884 63.7277 185.758 63.4384 185.758 63.0931C185.758 62.7477 185.884 62.4584 186.136 62.2251C186.388 61.9917 186.714 61.8751 187.116 61.8751C187.517 61.8751 187.844 61.9871 188.096 62.2111C188.348 62.4257 188.474 62.7057 188.474 63.0511C188.474 63.4151 188.348 63.7184 188.096 63.9611C187.853 64.1944 187.526 64.3111 187.116 64.3111ZM190.235 72.8931V62.5051H192.419V72.8931H190.235ZM199.066 72.8931V71.4231L198.926 71.1011V68.4691C198.926 68.0024 198.781 67.6384 198.492 67.3771C198.212 67.1157 197.778 66.9851 197.19 66.9851C196.788 66.9851 196.392 67.0504 196 67.1811C195.617 67.3024 195.29 67.4704 195.02 67.6851L194.236 66.1591C194.646 65.8697 195.141 65.6457 195.72 65.4871C196.298 65.3284 196.886 65.2491 197.484 65.2491C198.632 65.2491 199.523 65.5197 200.158 66.0611C200.792 66.6024 201.11 67.4471 201.11 68.5951V72.8931H199.066ZM196.77 73.0051C196.182 73.0051 195.678 72.9071 195.258 72.7111C194.838 72.5057 194.516 72.2304 194.292 71.8851C194.068 71.5397 193.956 71.1524 193.956 70.7231C193.956 70.2751 194.063 69.8831 194.278 69.5471C194.502 69.2111 194.852 68.9497 195.328 68.7631C195.804 68.5671 196.424 68.4691 197.19 68.4691H199.192V69.7431H197.428C196.914 69.7431 196.56 69.8271 196.364 69.9951C196.177 70.1631 196.084 70.3731 196.084 70.6251C196.084 70.9051 196.191 71.1291 196.406 71.2971C196.63 71.4557 196.933 71.5351 197.316 71.5351C197.68 71.5351 198.006 71.4511 198.296 71.2831C198.585 71.1057 198.795 70.8491 198.926 70.5131L199.262 71.5211C199.103 72.0064 198.814 72.3751 198.394 72.6271C197.974 72.8791 197.432 73.0051 196.77 73.0051ZM207.538 73.0051C206.876 73.0051 206.306 72.8651 205.83 72.5851C205.354 72.3051 204.99 71.8804 204.738 71.3111C204.486 70.7324 204.36 70.0044 204.36 69.1271C204.36 68.2404 204.491 67.5124 204.752 66.9431C205.023 66.3737 205.396 65.9491 205.872 65.6691C206.348 65.3891 206.904 65.2491 207.538 65.2491C208.248 65.2491 208.882 65.4077 209.442 65.7251C210.012 66.0424 210.46 66.4904 210.786 67.0691C211.122 67.6477 211.29 68.3337 211.29 69.1271C211.29 69.9111 211.122 70.5924 210.786 71.1711C210.46 71.7497 210.012 72.2024 209.442 72.5291C208.882 72.8464 208.248 73.0051 207.538 73.0051ZM203.086 72.8931V62.5051H205.27V66.8871L205.13 69.1131L205.172 71.3531V72.8931H203.086ZM207.16 71.2131C207.524 71.2131 207.846 71.1291 208.126 70.9611C208.416 70.7931 208.644 70.5551 208.812 70.2471C208.99 69.9297 209.078 69.5564 209.078 69.1271C209.078 68.6884 208.99 68.3151 208.812 68.0071C208.644 67.6991 208.416 67.4611 208.126 67.2931C207.846 67.1251 207.524 67.0411 207.16 67.0411C206.796 67.0411 206.47 67.1251 206.18 67.2931C205.891 67.4611 205.662 67.6991 205.494 68.0071C205.326 68.3151 205.242 68.6884 205.242 69.1271C205.242 69.5564 205.326 69.9297 205.494 70.2471C205.662 70.5551 205.891 70.7931 206.18 70.9611C206.47 71.1291 206.796 71.2131 207.16 71.2131ZM212.752 72.8931V62.5051H214.936V72.8931H212.752ZM220.701 73.0051C219.843 73.0051 219.087 72.8371 218.433 72.5011C217.789 72.1651 217.29 71.7077 216.935 71.1291C216.581 70.5411 216.403 69.8737 216.403 69.1271C216.403 68.3711 216.576 67.7037 216.921 67.1251C217.276 66.5371 217.757 66.0797 218.363 65.7531C218.97 65.4171 219.656 65.2491 220.421 65.2491C221.159 65.2491 221.821 65.4077 222.409 65.7251C223.007 66.0331 223.478 66.4811 223.823 67.0691C224.169 67.6477 224.341 68.3431 224.341 69.1551C224.341 69.2391 224.337 69.3371 224.327 69.4491C224.318 69.5517 224.309 69.6497 224.299 69.7431H218.181V68.4691H223.151L222.311 68.8471C222.311 68.4551 222.232 68.1144 222.073 67.8251C221.915 67.5357 221.695 67.3117 221.415 67.1531C221.135 66.9851 220.809 66.9011 220.435 66.9011C220.062 66.9011 219.731 66.9851 219.441 67.1531C219.161 67.3117 218.942 67.5404 218.783 67.8391C218.625 68.1284 218.545 68.4737 218.545 68.8751V69.2111C218.545 69.6217 218.634 69.9857 218.811 70.3031C218.998 70.6111 219.255 70.8491 219.581 71.0171C219.917 71.1757 220.309 71.2551 220.757 71.2551C221.159 71.2551 221.509 71.1944 221.807 71.0731C222.115 70.9517 222.395 70.7697 222.647 70.5271L223.809 71.7871C223.464 72.1791 223.03 72.4824 222.507 72.6971C221.985 72.9024 221.383 73.0051 220.701 73.0051Z" fill="#4C3221"/>
<path d="M152.529 43.9624V21.7144L156.165 25.1704H148.209V18.7624H161.025V43.9624H152.529ZM167.576 43.9624V21.7144L171.212 25.1704H163.256V18.7624H176.072V43.9624H167.576Z" fill="#4C3221"/>
</svg>
