<svg width="32" height="38" viewBox="0 0 32 38" fill="none" xmlns="http://www.w3.org/2000/svg">
<path fill-rule="evenodd" clip-rule="evenodd" d="M1.77778 0C0.795947 0 0 0.773335 0 1.72727V36.2727C0 37.2267 0.795947 38 1.77778 38C2.75961 38 3.55556 37.2267 3.55556 36.2727V21.7607C4.38404 21.36 5.69374 20.8014 7.0978 20.4604C9.6162 19.8488 11.6373 20.0745 12.7431 21.6859C14.8071 24.6938 18.7488 24.9587 21.7824 24.6651C24.9836 24.3552 28.1508 23.3367 29.7518 22.7613C31.1586 22.2559 32 20.958 32 19.5887V8.15855C32 5.47886 29.0805 3.91441 26.7536 4.93967C24.8667 5.77113 22.3598 6.69966 20.0944 7.00634C17.7243 7.32721 16.3477 6.89303 15.7013 5.95121C13.3691 2.55227 9.37881 2.14987 6.519 2.38141C5.42116 2.47031 4.40105 2.65682 3.55556 2.8543V1.72727C3.55556 0.773335 2.75961 0 1.77778 0ZM3.55556 6.4273V17.9718C4.33925 17.6608 5.2554 17.347 6.2355 17.109C9.05044 16.4253 13.2516 16.1996 15.7013 19.7695C16.5522 21.0095 18.5129 21.5099 21.4299 21.2277C24.1348 20.9658 26.9195 20.0918 28.4444 19.5479V8.15855C28.4444 8.08008 28.2811 8.05985 28.2222 8.08581C26.2356 8.96116 23.3593 10.0522 20.5851 10.4278C17.9157 10.7892 14.5963 10.5683 12.7431 7.86752C11.5198 6.08491 9.28782 5.62376 6.81429 5.82402C5.55387 5.92608 4.38092 6.19445 3.55556 6.4273Z" fill="#1D3774"/>
</svg>
