<svg width="258" height="95" viewBox="0 0 258 95" fill="none" xmlns="http://www.w3.org/2000/svg">
<rect x="1" y="1" width="255.336" height="92.7405" rx="9" fill="#BC9F8B" fill-opacity="0.59" stroke="#4C3221" stroke-width="2"/>
<path d="M75.5361 16.6433V76.8163" stroke="#4C3221" stroke-width="2" stroke-linecap="round"/>
<path d="M106.358 66V56.2H110.6C111.477 56.2 112.233 56.3447 112.868 56.634C113.503 56.914 113.993 57.32 114.338 57.852C114.683 58.384 114.856 59.0187 114.856 59.756C114.856 60.484 114.683 61.114 114.338 61.646C113.993 62.1687 113.503 62.57 112.868 62.85C112.233 63.13 111.477 63.27 110.6 63.27H107.618L108.626 62.276V66H106.358ZM112.588 66L110.138 62.444H112.56L115.038 66H112.588ZM108.626 62.528L107.618 61.464H110.474C111.174 61.464 111.697 61.3147 112.042 61.016C112.387 60.708 112.56 60.288 112.56 59.756C112.56 59.2147 112.387 58.7947 112.042 58.496C111.697 58.1973 111.174 58.048 110.474 58.048H107.618L108.626 56.97V62.528ZM120.237 66.112C119.378 66.112 118.622 65.944 117.969 65.608C117.325 65.272 116.826 64.8147 116.471 64.236C116.116 63.648 115.939 62.9807 115.939 62.234C115.939 61.478 116.112 60.8107 116.457 60.232C116.812 59.644 117.292 59.1867 117.899 58.86C118.506 58.524 119.192 58.356 119.957 58.356C120.694 58.356 121.357 58.5147 121.945 58.832C122.542 59.14 123.014 59.588 123.359 60.176C123.704 60.7547 123.877 61.45 123.877 62.262C123.877 62.346 123.872 62.444 123.863 62.556C123.854 62.6587 123.844 62.7567 123.835 62.85H117.717V61.576H122.687L121.847 61.954C121.847 61.562 121.768 61.2213 121.609 60.932C121.45 60.6427 121.231 60.4187 120.951 60.26C120.671 60.092 120.344 60.008 119.971 60.008C119.598 60.008 119.266 60.092 118.977 60.26C118.697 60.4187 118.478 60.6473 118.319 60.946C118.16 61.2353 118.081 61.5807 118.081 61.982V62.318C118.081 62.7287 118.17 63.0927 118.347 63.41C118.534 63.718 118.79 63.956 119.117 64.124C119.453 64.2827 119.845 64.362 120.293 64.362C120.694 64.362 121.044 64.3013 121.343 64.18C121.651 64.0587 121.931 63.8767 122.183 63.634L123.345 64.894C123 65.286 122.566 65.5893 122.043 65.804C121.52 66.0093 120.918 66.112 120.237 66.112ZM128.411 66.112C127.524 66.112 126.834 65.888 126.339 65.44C125.844 64.9827 125.597 64.306 125.597 63.41V56.802H127.781V63.382C127.781 63.6993 127.865 63.9467 128.033 64.124C128.201 64.292 128.43 64.376 128.719 64.376C129.064 64.376 129.358 64.2827 129.601 64.096L130.189 65.636C129.965 65.7947 129.694 65.916 129.377 66C129.069 66.0747 128.747 66.112 128.411 66.112ZM124.435 60.316V58.636H129.657V60.316H124.435ZM134.593 66.112C133.968 66.112 133.408 65.9907 132.913 65.748C132.428 65.5053 132.05 65.1367 131.779 64.642C131.508 64.138 131.373 63.4987 131.373 62.724V58.468H133.557V62.402C133.557 63.0273 133.688 63.4893 133.949 63.788C134.22 64.0773 134.598 64.222 135.083 64.222C135.419 64.222 135.718 64.152 135.979 64.012C136.24 63.8627 136.446 63.6387 136.595 63.34C136.744 63.032 136.819 62.6493 136.819 62.192V58.468H139.003V66H136.931V63.928L137.309 64.53C137.057 65.0527 136.684 65.4493 136.189 65.72C135.704 65.9813 135.172 66.112 134.593 66.112ZM141.026 66V58.468H143.112V60.596L142.818 59.98C143.042 59.448 143.402 59.0467 143.896 58.776C144.391 58.496 144.993 58.356 145.702 58.356V60.372C145.609 60.3627 145.525 60.358 145.45 60.358C145.376 60.3487 145.296 60.344 145.212 60.344C144.615 60.344 144.13 60.5167 143.756 60.862C143.392 61.198 143.21 61.7253 143.21 62.444V66H141.026ZM151.593 58.356C152.19 58.356 152.722 58.4773 153.189 58.72C153.665 58.9533 154.038 59.3173 154.309 59.812C154.579 60.2973 154.715 60.9227 154.715 61.688V66H152.531V62.024C152.531 61.4173 152.395 60.9693 152.125 60.68C151.863 60.3907 151.49 60.246 151.005 60.246C150.659 60.246 150.347 60.3207 150.067 60.47C149.796 60.61 149.581 60.8293 149.423 61.128C149.273 61.4267 149.199 61.8093 149.199 62.276V66H147.015V58.468H149.101V60.554L148.709 59.924C148.979 59.42 149.367 59.0327 149.871 58.762C150.375 58.4913 150.949 58.356 151.593 58.356ZM160.487 66.112C159.628 66.112 158.872 65.944 158.219 65.608C157.575 65.272 157.076 64.8147 156.721 64.236C156.366 63.648 156.189 62.9807 156.189 62.234C156.189 61.478 156.362 60.8107 156.707 60.232C157.062 59.644 157.542 59.1867 158.149 58.86C158.756 58.524 159.442 58.356 160.207 58.356C160.944 58.356 161.607 58.5147 162.195 58.832C162.792 59.14 163.264 59.588 163.609 60.176C163.954 60.7547 164.127 61.45 164.127 62.262C164.127 62.346 164.122 62.444 164.113 62.556C164.104 62.6587 164.094 62.7567 164.085 62.85H157.967V61.576H162.937L162.097 61.954C162.097 61.562 162.018 61.2213 161.859 60.932C161.7 60.6427 161.481 60.4187 161.201 60.26C160.921 60.092 160.594 60.008 160.221 60.008C159.848 60.008 159.516 60.092 159.227 60.26C158.947 60.4187 158.728 60.6473 158.569 60.946C158.41 61.2353 158.331 61.5807 158.331 61.982V62.318C158.331 62.7287 158.42 63.0927 158.597 63.41C158.784 63.718 159.04 63.956 159.367 64.124C159.703 64.2827 160.095 64.362 160.543 64.362C160.944 64.362 161.294 64.3013 161.593 64.18C161.901 64.0587 162.181 63.8767 162.433 63.634L163.595 64.894C163.25 65.286 162.816 65.5893 162.293 65.804C161.77 66.0093 161.168 66.112 160.487 66.112ZM168.815 66.112C168.106 66.112 167.466 65.9533 166.897 65.636C166.328 65.3093 165.875 64.8567 165.539 64.278C165.212 63.6993 165.049 63.018 165.049 62.234C165.049 61.4407 165.212 60.7547 165.539 60.176C165.875 59.5973 166.328 59.1493 166.897 58.832C167.466 58.5147 168.106 58.356 168.815 58.356C169.45 58.356 170.005 58.496 170.481 58.776C170.957 59.056 171.326 59.4807 171.587 60.05C171.848 60.6193 171.979 61.3473 171.979 62.234C171.979 63.1113 171.853 63.8393 171.601 64.418C171.349 64.9873 170.985 65.412 170.509 65.692C170.042 65.972 169.478 66.112 168.815 66.112ZM169.193 64.32C169.548 64.32 169.87 64.236 170.159 64.068C170.448 63.9 170.677 63.662 170.845 63.354C171.022 63.0367 171.111 62.6633 171.111 62.234C171.111 61.7953 171.022 61.422 170.845 61.114C170.677 60.806 170.448 60.568 170.159 60.4C169.87 60.232 169.548 60.148 169.193 60.148C168.829 60.148 168.502 60.232 168.213 60.4C167.924 60.568 167.69 60.806 167.513 61.114C167.345 61.422 167.261 61.7953 167.261 62.234C167.261 62.6633 167.345 63.0367 167.513 63.354C167.69 63.662 167.924 63.9 168.213 64.068C168.502 64.236 168.829 64.32 169.193 64.32ZM171.167 66V64.46L171.209 62.22L171.069 59.994V55.612H173.253V66H171.167ZM179.393 66V56.2H184.181C185.413 56.2 186.337 56.4333 186.953 56.9C187.578 57.3667 187.891 57.9827 187.891 58.748C187.891 59.2613 187.765 59.7093 187.513 60.092C187.261 60.4653 186.916 60.7547 186.477 60.96C186.038 61.1653 185.534 61.268 184.965 61.268L185.231 60.694C185.847 60.694 186.393 60.7967 186.869 61.002C187.345 61.198 187.714 61.492 187.975 61.884C188.246 62.276 188.381 62.7567 188.381 63.326C188.381 64.166 188.05 64.824 187.387 65.3C186.724 65.7667 185.749 66 184.461 66H179.393ZM181.647 64.292H184.293C184.881 64.292 185.324 64.1987 185.623 64.012C185.931 63.816 186.085 63.508 186.085 63.088C186.085 62.6773 185.931 62.374 185.623 62.178C185.324 61.9727 184.881 61.87 184.293 61.87H181.479V60.218H183.901C184.452 60.218 184.872 60.1247 185.161 59.938C185.46 59.742 185.609 59.448 185.609 59.056C185.609 58.6733 185.46 58.3887 185.161 58.202C184.872 58.006 184.452 57.908 183.901 57.908H181.647V64.292ZM193.528 66.112C192.726 66.112 192.012 65.944 191.386 65.608C190.77 65.272 190.28 64.8147 189.916 64.236C189.562 63.648 189.384 62.9807 189.384 62.234C189.384 61.478 189.562 60.8107 189.916 60.232C190.28 59.644 190.77 59.1867 191.386 58.86C192.012 58.524 192.726 58.356 193.528 58.356C194.322 58.356 195.031 58.524 195.656 58.86C196.282 59.1867 196.772 59.6393 197.126 60.218C197.481 60.7967 197.658 61.4687 197.658 62.234C197.658 62.9807 197.481 63.648 197.126 64.236C196.772 64.8147 196.282 65.272 195.656 65.608C195.031 65.944 194.322 66.112 193.528 66.112ZM193.528 64.32C193.892 64.32 194.219 64.236 194.508 64.068C194.798 63.9 195.026 63.662 195.194 63.354C195.362 63.0367 195.446 62.6633 195.446 62.234C195.446 61.7953 195.362 61.422 195.194 61.114C195.026 60.806 194.798 60.568 194.508 60.4C194.219 60.232 193.892 60.148 193.528 60.148C193.164 60.148 192.838 60.232 192.548 60.4C192.259 60.568 192.026 60.806 191.848 61.114C191.68 61.422 191.596 61.7953 191.596 62.234C191.596 62.6633 191.68 63.0367 191.848 63.354C192.026 63.662 192.259 63.9 192.548 64.068C192.838 64.236 193.164 64.32 193.528 64.32ZM202.702 66.112C201.899 66.112 201.185 65.944 200.56 65.608C199.944 65.272 199.454 64.8147 199.09 64.236C198.735 63.648 198.558 62.9807 198.558 62.234C198.558 61.478 198.735 60.8107 199.09 60.232C199.454 59.644 199.944 59.1867 200.56 58.86C201.185 58.524 201.899 58.356 202.702 58.356C203.495 58.356 204.205 58.524 204.83 58.86C205.455 59.1867 205.945 59.6393 206.3 60.218C206.655 60.7967 206.832 61.4687 206.832 62.234C206.832 62.9807 206.655 63.648 206.3 64.236C205.945 64.8147 205.455 65.272 204.83 65.608C204.205 65.944 203.495 66.112 202.702 66.112ZM202.702 64.32C203.066 64.32 203.393 64.236 203.682 64.068C203.971 63.9 204.2 63.662 204.368 63.354C204.536 63.0367 204.62 62.6633 204.62 62.234C204.62 61.7953 204.536 61.422 204.368 61.114C204.2 60.806 203.971 60.568 203.682 60.4C203.393 60.232 203.066 60.148 202.702 60.148C202.338 60.148 202.011 60.232 201.722 60.4C201.433 60.568 201.199 60.806 201.022 61.114C200.854 61.422 200.77 61.7953 200.77 62.234C200.77 62.6633 200.854 63.0367 201.022 63.354C201.199 63.662 201.433 63.9 201.722 64.068C202.011 64.236 202.338 64.32 202.702 64.32ZM210.098 64.46L210.154 61.8L213.668 58.468H216.272L212.898 61.898L211.764 62.822L210.098 64.46ZM208.292 66V55.612H210.476V66H208.292ZM213.906 66L211.358 62.836L212.73 61.142L216.552 66H213.906ZM219.822 66.112C219.178 66.112 218.557 66.0373 217.96 65.888C217.372 65.7293 216.905 65.5333 216.56 65.3L217.288 63.732C217.633 63.9467 218.039 64.124 218.506 64.264C218.982 64.3947 219.449 64.46 219.906 64.46C220.41 64.46 220.765 64.3993 220.97 64.278C221.185 64.1567 221.292 63.9887 221.292 63.774C221.292 63.5967 221.208 63.466 221.04 63.382C220.881 63.2887 220.667 63.2187 220.396 63.172C220.125 63.1253 219.827 63.0787 219.5 63.032C219.183 62.9853 218.861 62.9247 218.534 62.85C218.207 62.766 217.909 62.6447 217.638 62.486C217.367 62.3273 217.148 62.1127 216.98 61.842C216.821 61.5713 216.742 61.2213 216.742 60.792C216.742 60.316 216.877 59.896 217.148 59.532C217.428 59.168 217.829 58.8833 218.352 58.678C218.875 58.4633 219.5 58.356 220.228 58.356C220.741 58.356 221.264 58.412 221.796 58.524C222.328 58.636 222.771 58.7993 223.126 59.014L222.398 60.568C222.034 60.3533 221.665 60.2087 221.292 60.134C220.928 60.05 220.573 60.008 220.228 60.008C219.743 60.008 219.388 60.0733 219.164 60.204C218.94 60.3347 218.828 60.5027 218.828 60.708C218.828 60.8947 218.907 61.0347 219.066 61.128C219.234 61.2213 219.453 61.296 219.724 61.352C219.995 61.408 220.289 61.4593 220.606 61.506C220.933 61.5433 221.259 61.604 221.586 61.688C221.913 61.772 222.207 61.8933 222.468 62.052C222.739 62.2013 222.958 62.4113 223.126 62.682C223.294 62.9433 223.378 63.2887 223.378 63.718C223.378 64.1847 223.238 64.6 222.958 64.964C222.678 65.3187 222.272 65.5987 221.74 65.804C221.217 66.0093 220.578 66.112 219.822 66.112ZM118.048 81.168C117.292 81.168 116.587 81.0467 115.934 80.804C115.29 80.552 114.73 80.1973 114.254 79.74C113.778 79.2827 113.405 78.746 113.134 78.13C112.873 77.514 112.742 76.8373 112.742 76.1C112.742 75.3627 112.873 74.686 113.134 74.07C113.405 73.454 113.778 72.9173 114.254 72.46C114.739 72.0027 115.304 71.6527 115.948 71.41C116.592 71.158 117.297 71.032 118.062 71.032C118.911 71.032 119.677 71.1813 120.358 71.48C121.049 71.7693 121.627 72.1987 122.094 72.768L120.638 74.112C120.302 73.7293 119.929 73.4447 119.518 73.258C119.107 73.062 118.659 72.964 118.174 72.964C117.717 72.964 117.297 73.0387 116.914 73.188C116.531 73.3373 116.2 73.552 115.92 73.832C115.64 74.112 115.421 74.4433 115.262 74.826C115.113 75.2087 115.038 75.6333 115.038 76.1C115.038 76.5667 115.113 76.9913 115.262 77.374C115.421 77.7567 115.64 78.088 115.92 78.368C116.2 78.648 116.531 78.8627 116.914 79.012C117.297 79.1613 117.717 79.236 118.174 79.236C118.659 79.236 119.107 79.1427 119.518 78.956C119.929 78.76 120.302 78.466 120.638 78.074L122.094 79.418C121.627 79.9873 121.049 80.4213 120.358 80.72C119.677 81.0187 118.907 81.168 118.048 81.168ZM126.796 81.112C125.993 81.112 125.279 80.944 124.654 80.608C124.038 80.272 123.548 79.8147 123.184 79.236C122.829 78.648 122.652 77.9807 122.652 77.234C122.652 76.478 122.829 75.8107 123.184 75.232C123.548 74.644 124.038 74.1867 124.654 73.86C125.279 73.524 125.993 73.356 126.796 73.356C127.589 73.356 128.298 73.524 128.924 73.86C129.549 74.1867 130.039 74.6393 130.394 75.218C130.748 75.7967 130.926 76.4687 130.926 77.234C130.926 77.9807 130.748 78.648 130.394 79.236C130.039 79.8147 129.549 80.272 128.924 80.608C128.298 80.944 127.589 81.112 126.796 81.112ZM126.796 79.32C127.16 79.32 127.486 79.236 127.776 79.068C128.065 78.9 128.294 78.662 128.462 78.354C128.63 78.0367 128.714 77.6633 128.714 77.234C128.714 76.7953 128.63 76.422 128.462 76.114C128.294 75.806 128.065 75.568 127.776 75.4C127.486 75.232 127.16 75.148 126.796 75.148C126.432 75.148 126.105 75.232 125.816 75.4C125.526 75.568 125.293 75.806 125.116 76.114C124.948 76.422 124.864 76.7953 124.864 77.234C124.864 77.6633 124.948 78.0367 125.116 78.354C125.293 78.662 125.526 78.9 125.816 79.068C126.105 79.236 126.432 79.32 126.796 79.32ZM136.964 73.356C137.561 73.356 138.093 73.4773 138.56 73.72C139.036 73.9533 139.409 74.3173 139.68 74.812C139.95 75.2973 140.086 75.9227 140.086 76.688V81H137.902V77.024C137.902 76.4173 137.766 75.9693 137.496 75.68C137.234 75.3907 136.861 75.246 136.376 75.246C136.03 75.246 135.718 75.3207 135.438 75.47C135.167 75.61 134.952 75.8293 134.794 76.128C134.644 76.4267 134.57 76.8093 134.57 77.276V81H132.386V73.468H134.472V75.554L134.08 74.924C134.35 74.42 134.738 74.0327 135.242 73.762C135.746 73.4913 136.32 73.356 136.964 73.356ZM142.331 81V73.3C142.331 72.4507 142.583 71.774 143.087 71.27C143.591 70.7567 144.31 70.5 145.243 70.5C145.561 70.5 145.864 70.5327 146.153 70.598C146.452 70.6633 146.704 70.766 146.909 70.906L146.335 72.488C146.214 72.404 146.079 72.3387 145.929 72.292C145.78 72.2453 145.621 72.222 145.453 72.222C145.136 72.222 144.889 72.3153 144.711 72.502C144.543 72.6793 144.459 72.95 144.459 73.314V74.014L144.515 74.952V81H142.331ZM141.169 75.316V73.636H146.391V75.316H141.169ZM147.623 81V73.468H149.807V81H147.623ZM148.715 72.418C148.314 72.418 147.987 72.3013 147.735 72.068C147.483 71.8347 147.357 71.5453 147.357 71.2C147.357 70.8547 147.483 70.5653 147.735 70.332C147.987 70.0987 148.314 69.982 148.715 69.982C149.117 69.982 149.443 70.094 149.695 70.318C149.947 70.5327 150.073 70.8127 150.073 71.158C150.073 71.522 149.947 71.8253 149.695 72.068C149.453 72.3013 149.126 72.418 148.715 72.418ZM151.827 81V73.468H153.913V75.596L153.619 74.98C153.843 74.448 154.202 74.0467 154.697 73.776C155.192 73.496 155.794 73.356 156.503 73.356V75.372C156.41 75.3627 156.326 75.358 156.251 75.358C156.176 75.3487 156.097 75.344 156.013 75.344C155.416 75.344 154.93 75.5167 154.557 75.862C154.193 76.198 154.011 76.7253 154.011 77.444V81H151.827ZM167.461 73.356C168.059 73.356 168.586 73.4773 169.043 73.72C169.51 73.9533 169.874 74.3173 170.135 74.812C170.406 75.2973 170.541 75.9227 170.541 76.688V81H168.357V77.024C168.357 76.4173 168.231 75.9693 167.979 75.68C167.727 75.3907 167.373 75.246 166.915 75.246C166.598 75.246 166.313 75.3207 166.061 75.47C165.809 75.61 165.613 75.8247 165.473 76.114C165.333 76.4033 165.263 76.772 165.263 77.22V81H163.079V77.024C163.079 76.4173 162.953 75.9693 162.701 75.68C162.459 75.3907 162.109 75.246 161.651 75.246C161.334 75.246 161.049 75.3207 160.797 75.47C160.545 75.61 160.349 75.8247 160.209 76.114C160.069 76.4033 159.999 76.772 159.999 77.22V81H157.815V73.468H159.901V75.526L159.509 74.924C159.771 74.4107 160.139 74.0233 160.615 73.762C161.101 73.4913 161.651 73.356 162.267 73.356C162.958 73.356 163.56 73.5333 164.073 73.888C164.596 74.2333 164.941 74.7653 165.109 75.484L164.339 75.274C164.591 74.686 164.993 74.2193 165.543 73.874C166.103 73.5287 166.743 73.356 167.461 73.356ZM177.119 81V79.53L176.979 79.208V76.576C176.979 76.1093 176.834 75.7453 176.545 75.484C176.265 75.2227 175.831 75.092 175.243 75.092C174.842 75.092 174.445 75.1573 174.053 75.288C173.67 75.4093 173.344 75.5773 173.073 75.792L172.289 74.266C172.7 73.9767 173.194 73.7527 173.773 73.594C174.352 73.4353 174.94 73.356 175.537 73.356C176.685 73.356 177.576 73.6267 178.211 74.168C178.846 74.7093 179.163 75.554 179.163 76.702V81H177.119ZM174.823 81.112C174.235 81.112 173.731 81.014 173.311 80.818C172.891 80.6127 172.569 80.3373 172.345 79.992C172.121 79.6467 172.009 79.2593 172.009 78.83C172.009 78.382 172.116 77.99 172.331 77.654C172.555 77.318 172.905 77.0567 173.381 76.87C173.857 76.674 174.478 76.576 175.243 76.576H177.245V77.85H175.481C174.968 77.85 174.613 77.934 174.417 78.102C174.23 78.27 174.137 78.48 174.137 78.732C174.137 79.012 174.244 79.236 174.459 79.404C174.683 79.5627 174.986 79.642 175.369 79.642C175.733 79.642 176.06 79.558 176.349 79.39C176.638 79.2127 176.848 78.956 176.979 78.62L177.315 79.628C177.156 80.1133 176.867 80.482 176.447 80.734C176.027 80.986 175.486 81.112 174.823 81.112ZM184.22 81.112C183.333 81.112 182.642 80.888 182.148 80.44C181.653 79.9827 181.406 79.306 181.406 78.41V71.802H183.59V78.382C183.59 78.6993 183.674 78.9467 183.842 79.124C184.01 79.292 184.238 79.376 184.528 79.376C184.873 79.376 185.167 79.2827 185.41 79.096L185.998 80.636C185.774 80.7947 185.503 80.916 185.186 81C184.878 81.0747 184.556 81.112 184.22 81.112ZM180.244 75.316V73.636H185.466V75.316H180.244ZM187.224 81V73.468H189.408V81H187.224ZM188.316 72.418C187.914 72.418 187.588 72.3013 187.336 72.068C187.084 71.8347 186.958 71.5453 186.958 71.2C186.958 70.8547 187.084 70.5653 187.336 70.332C187.588 70.0987 187.914 69.982 188.316 69.982C188.717 69.982 189.044 70.094 189.296 70.318C189.548 70.5327 189.674 70.8127 189.674 71.158C189.674 71.522 189.548 71.8253 189.296 72.068C189.053 72.3013 188.726 72.418 188.316 72.418ZM195.018 81.112C194.216 81.112 193.502 80.944 192.876 80.608C192.26 80.272 191.77 79.8147 191.406 79.236C191.052 78.648 190.874 77.9807 190.874 77.234C190.874 76.478 191.052 75.8107 191.406 75.232C191.77 74.644 192.26 74.1867 192.876 73.86C193.502 73.524 194.216 73.356 195.018 73.356C195.812 73.356 196.521 73.524 197.146 73.86C197.772 74.1867 198.262 74.6393 198.616 75.218C198.971 75.7967 199.148 76.4687 199.148 77.234C199.148 77.9807 198.971 78.648 198.616 79.236C198.262 79.8147 197.772 80.272 197.146 80.608C196.521 80.944 195.812 81.112 195.018 81.112ZM195.018 79.32C195.382 79.32 195.709 79.236 195.998 79.068C196.288 78.9 196.516 78.662 196.684 78.354C196.852 78.0367 196.936 77.6633 196.936 77.234C196.936 76.7953 196.852 76.422 196.684 76.114C196.516 75.806 196.288 75.568 195.998 75.4C195.709 75.232 195.382 75.148 195.018 75.148C194.654 75.148 194.328 75.232 194.038 75.4C193.749 75.568 193.516 75.806 193.338 76.114C193.17 76.422 193.086 76.7953 193.086 77.234C193.086 77.6633 193.17 78.0367 193.338 78.354C193.516 78.662 193.749 78.9 194.038 79.068C194.328 79.236 194.654 79.32 195.018 79.32ZM205.186 73.356C205.784 73.356 206.316 73.4773 206.782 73.72C207.258 73.9533 207.632 74.3173 207.902 74.812C208.173 75.2973 208.308 75.9227 208.308 76.688V81H206.124V77.024C206.124 76.4173 205.989 75.9693 205.718 75.68C205.457 75.3907 205.084 75.246 204.598 75.246C204.253 75.246 203.94 75.3207 203.66 75.47C203.39 75.61 203.175 75.8293 203.016 76.128C202.867 76.4267 202.792 76.8093 202.792 77.276V81H200.608V73.468H202.694V75.554L202.302 74.924C202.573 74.42 202.96 74.0327 203.464 73.762C203.968 73.4913 204.542 73.356 205.186 73.356ZM212.822 81.112C212.178 81.112 211.557 81.0373 210.96 80.888C210.372 80.7293 209.905 80.5333 209.56 80.3L210.288 78.732C210.633 78.9467 211.039 79.124 211.506 79.264C211.982 79.3947 212.449 79.46 212.906 79.46C213.41 79.46 213.765 79.3993 213.97 79.278C214.185 79.1567 214.292 78.9887 214.292 78.774C214.292 78.5967 214.208 78.466 214.04 78.382C213.881 78.2887 213.667 78.2187 213.396 78.172C213.125 78.1253 212.827 78.0787 212.5 78.032C212.183 77.9853 211.861 77.9247 211.534 77.85C211.207 77.766 210.909 77.6447 210.638 77.486C210.367 77.3273 210.148 77.1127 209.98 76.842C209.821 76.5713 209.742 76.2213 209.742 75.792C209.742 75.316 209.877 74.896 210.148 74.532C210.428 74.168 210.829 73.8833 211.352 73.678C211.875 73.4633 212.5 73.356 213.228 73.356C213.741 73.356 214.264 73.412 214.796 73.524C215.328 73.636 215.771 73.7993 216.126 74.014L215.398 75.568C215.034 75.3533 214.665 75.2087 214.292 75.134C213.928 75.05 213.573 75.008 213.228 75.008C212.743 75.008 212.388 75.0733 212.164 75.204C211.94 75.3347 211.828 75.5027 211.828 75.708C211.828 75.8947 211.907 76.0347 212.066 76.128C212.234 76.2213 212.453 76.296 212.724 76.352C212.995 76.408 213.289 76.4593 213.606 76.506C213.933 76.5433 214.259 76.604 214.586 76.688C214.913 76.772 215.207 76.8933 215.468 77.052C215.739 77.2013 215.958 77.4113 216.126 77.682C216.294 77.9433 216.378 78.2887 216.378 78.718C216.378 79.1847 216.238 79.6 215.958 79.964C215.678 80.3187 215.272 80.5987 214.74 80.804C214.217 81.0093 213.578 81.112 212.822 81.112Z" fill="#4C3221"/>
<path d="M165.74 44.5384C164.012 44.5384 162.26 44.3464 160.484 43.9624C158.708 43.5784 157.148 43.0144 155.804 42.2704L158.684 36.0064C159.764 36.6304 160.892 37.0984 162.068 37.4104C163.268 37.6984 164.396 37.8424 165.452 37.8424C166.412 37.8424 167.192 37.6864 167.792 37.3744C168.416 37.0384 168.728 36.5464 168.728 35.8984C168.728 35.3464 168.5 34.9264 168.044 34.6384C167.588 34.3264 166.82 34.1704 165.74 34.1704H162.392V28.9504L168.908 22.3264L169.664 25.1704H157.1V18.7624H175.892V23.9824L169.376 30.6064L165.308 28.3024H167.54C170.708 28.3024 173.12 29.0104 174.776 30.4264C176.432 31.8424 177.26 33.6664 177.26 35.8984C177.26 37.3384 176.852 38.7184 176.036 40.0384C175.244 41.3584 173.996 42.4384 172.292 43.2784C170.612 44.1184 168.428 44.5384 165.74 44.5384Z" fill="#4C3221"/>
<path d="M27.4545 59.676H54.8141C54.8065 61.7656 54.7671 63.3238 54.5673 64.5551C54.3295 66.0211 53.8946 66.7975 53.2277 67.3505C52.5605 67.9034 51.624 68.264 49.8555 68.4611C48.0349 68.6641 45.6219 68.6672 42.1622 68.6672H32.5213C29.0617 68.6672 26.6487 68.6641 24.8282 68.4611C23.0596 68.264 22.1231 67.9034 21.456 67.3505C20.7889 66.7975 20.354 66.0211 20.1163 64.5551C20.0984 64.445 20.0818 64.3321 20.0664 64.2166C19.9792 63.562 19.9356 63.2345 20.211 62.4626C20.4863 61.691 20.6057 61.5698 20.8445 61.3275C21.5525 60.6091 22.5236 60.0773 23.6407 59.8291C24.2724 59.6888 25.0967 59.676 27.4545 59.676Z" fill="#4C3221"/>
<path opacity="0.5" d="M21.5823 25.3595C22.2468 24.6673 23.1797 24.2159 24.9415 23.9692C26.7551 23.7152 29.1587 23.7112 32.6051 23.7112H42.209C45.6554 23.7112 48.0591 23.7152 49.8727 23.9692C51.6345 24.2159 52.5673 24.6673 53.2318 25.3595C53.8963 26.0518 54.3295 27.0237 54.5665 28.8591C54.8102 30.7485 54.8141 33.2525 54.8141 36.8429V59.6761H27.4545C25.0967 59.6761 24.2724 59.6889 23.6407 59.8291C22.5236 60.0773 21.5525 60.6091 20.8445 61.3275C20.6057 61.5698 20.4863 61.691 20.211 62.4627C20.053 62.9055 20 63.2022 20 63.498V36.8429C20 33.2525 20.0038 30.7485 20.2477 28.8591C20.4845 27.0237 20.9178 26.0518 21.5823 25.3595Z" fill="#4C3221"/>
<path d="M27.0713 34.9503C27.0713 34.0192 27.8019 33.2644 28.7032 33.2644H46.1102C47.0115 33.2644 47.7422 34.0192 47.7422 34.9503C47.7422 35.8813 47.0115 36.6361 46.1102 36.6361H28.7032C27.8019 36.6361 27.0713 35.8813 27.0713 34.9503Z" fill="#4C3221"/>
<path d="M28.7032 41.1316C27.8019 41.1316 27.0713 41.8864 27.0713 42.8174C27.0713 43.7485 27.8019 44.5033 28.7032 44.5033H39.5826C40.4839 44.5033 41.2145 43.7485 41.2145 42.8174C41.2145 41.8864 40.4839 41.1316 39.5826 41.1316H28.7032Z" fill="#4C3221"/>
<path d="M55.6859 36.2996C49.4471 36.2996 44.3711 41.5429 44.3711 47.9881C44.3711 54.4338 49.4471 59.6767 55.6859 59.6767C61.9248 59.6767 67.0003 54.4338 67.0003 47.9881C67.0001 41.5429 61.9246 36.2996 55.6859 36.2996ZM60.904 46.1872L54.9633 52.3245C54.834 52.4583 54.6049 52.4583 54.4754 52.3245L50.4899 48.2072C50.4252 48.1401 50.3894 48.0509 50.3894 47.955C50.3896 47.8595 50.4253 47.7697 50.4899 47.7022L50.9993 47.1762C51.0641 47.1095 51.1506 47.0729 51.2436 47.0729C51.3361 47.0729 51.4229 47.1095 51.4874 47.1762L54.5944 50.3858C54.6632 50.4576 54.7751 50.4576 54.8441 50.3858L59.9065 45.1561C60.036 45.0224 60.2655 45.0224 60.3946 45.1561L60.904 45.6831C60.9688 45.7495 61.0053 45.8397 61.0053 45.9346C61.0053 46.0307 60.9688 46.1201 60.904 46.1872Z" fill="#4C3221"/>
</svg>
