<svg width="60" height="60" viewBox="0 0 60 60" fill="none" xmlns="http://www.w3.org/2000/svg">
<path fill-rule="evenodd" clip-rule="evenodd" d="M11.818 6.7811C12.5814 6.0331 13.6534 5.5454 15.6776 5.27878C17.7613 5.0043 20.523 5 24.4828 5H35.5173C39.477 5 42.2388 5.0043 44.3225 5.27878C46.3467 5.5454 47.4185 6.0331 48.182 6.7811C48.9455 7.52912 49.4432 8.5793 49.7155 10.5625C49.9955 12.604 50 15.3097 50 19.1892V38.7838H18.3641C16.1076 38.783 14.5679 38.7825 13.2475 39.1292C12.0668 39.439 10.9717 39.9452 10 40.6105V19.1892C10 15.3097 10.0044 12.604 10.2846 10.5625C10.5567 8.5793 11.0545 7.52912 11.818 6.7811ZM18.9655 14.4594C17.8228 14.4594 16.8965 15.367 16.8965 16.4865C16.8965 17.606 17.8228 18.5135 18.9655 18.5135H41.0345C42.1772 18.5135 43.1035 17.606 43.1035 16.4865C43.1035 15.367 42.1772 14.4594 41.0345 14.4594H18.9655ZM16.8965 25.946C16.8965 24.8265 17.8228 23.9189 18.9655 23.9189H32.7585C33.9013 23.9189 34.8275 24.8265 34.8275 25.946C34.8275 27.0655 33.9013 27.973 32.7585 27.973H18.9655C17.8228 27.973 16.8965 27.0655 16.8965 25.946Z" fill="#9CD5FF"/>
<path d="M18.6835 42.8379C15.9848 42.8379 15.0414 42.8554 14.3184 43.0451C12.3341 43.5661 10.7521 45.0111 10.0737 46.8896C10.1157 47.8456 10.1814 48.6866 10.2845 49.4376C10.5566 51.4209 11.0544 52.4711 11.8179 53.2191C12.5814 53.9671 13.6533 54.4546 15.6775 54.7214C17.7612 54.9959 20.5229 55.0001 24.4827 55.0001H35.5172C39.4769 55.0001 42.2387 54.9959 44.3224 54.7214C46.3467 54.4546 47.4184 53.9671 48.1819 53.2191C48.7234 52.6884 49.1314 52.0059 49.4199 50.9461H18.9655C17.8228 50.9461 16.8965 50.0386 16.8965 48.9191C16.8965 47.7996 17.8228 46.8921 18.9655 46.8921H49.9259C49.9772 45.7271 49.9929 44.3911 49.9977 42.8379H18.6835Z" fill="#9CD5FF"/>
<path d="M48.75 17.5769H41.25V13H39.375L30 24.4423L39.375 35.8846H41.25V31.3077H50.625C55.8026 31.3077 57.1875 36.4306 57.1875 42.75H60V31.3077C60 23.7244 54.9632 17.5769 48.75 17.5769Z" fill="#395886"/>
</svg>
