<svg width="35" height="35" viewBox="0 0 35 35" fill="none" xmlns="http://www.w3.org/2000/svg">
<path d="M34.0738 29.4201L26.3631 21.7097C27.7056 19.5359 28.5173 17.0001 28.5173 14.2582C28.5173 6.38328 22.1338 0 14.2586 0C6.38348 0 0 6.38328 0 14.2582C0 22.1331 6.38348 28.5164 14.2586 28.5164C17.0007 28.5164 19.5365 27.7048 21.7082 26.3645L29.4211 34.0749C30.0418 34.675 30.8735 35.0072 31.7369 34.9999C32.6003 34.9925 33.4262 34.6462 34.0366 34.0355C34.647 33.4249 34.9929 32.5988 34.9999 31.7354C35.0069 30.8721 34.6742 30.0405 34.0738 29.4201ZM14.2586 24.1292C8.80745 24.1292 4.38727 19.7092 4.38727 14.2582C4.38727 8.80717 8.80745 4.38713 14.2586 4.38713C19.7098 4.38713 24.13 8.80717 24.13 14.2582C24.13 19.7092 19.7098 24.1292 14.2586 24.1292Z" fill="white"/>
</svg>
