<svg width="36" height="37" viewBox="0 0 36 37" fill="none" xmlns="http://www.w3.org/2000/svg">
<path fill-rule="evenodd" clip-rule="evenodd" d="M17.5 0C18.4665 0 19.25 0.811483 19.25 1.8125H22.75V3.625H26.25C27.2165 3.625 28 4.43649 28 5.4375V27.1875C28 28.1885 27.2165 29 26.25 29H8.75C7.78351 29 7 28.1885 7 27.1875V5.4375C7 4.43649 7.78351 3.625 8.75 3.625H12.25V1.8125H15.75C15.75 0.811483 16.5335 0 17.5 0ZM12.25 7.25H10.5V25.375H24.5V7.25H22.75V9.0625H12.25V7.25ZM14 18.125H21C21.9665 18.125 22.75 18.9365 22.75 19.9375C22.75 20.867 22.0745 21.6331 21.2041 21.7378L21 21.75H14C13.0335 21.75 12.25 20.9385 12.25 19.9375C12.25 19.008 12.9256 18.2419 13.7959 18.1372L14 18.125ZM21 12.6875C21.9665 12.6875 22.75 13.499 22.75 14.5C22.75 15.501 21.9665 16.3125 21 16.3125H14C13.0335 16.3125 12.25 15.501 12.25 14.5C12.25 13.499 13.0335 12.6875 14 12.6875H21ZM17.5 3.625C16.5335 3.625 15.75 4.43649 15.75 5.4375C15.75 6.43851 16.5335 7.25 17.5 7.25C18.4665 7.25 19.25 6.43851 19.25 5.4375C19.25 4.43649 18.4665 3.625 17.5 3.625Z" fill="#6AB0E3"/>
</svg>
