<svg width="30" height="29" viewBox="0 0 30 29" fill="none" xmlns="http://www.w3.org/2000/svg">
<path d="M15 21.5513V21.5649ZM15 7.97781V17.4888ZM28 14.7714C28 21.525 22.1798 26.9998 15 26.9998C7.8203 26.9998 2 21.525 2 14.7714C2 8.01781 7.8203 2.54297 15 2.54297C22.1798 2.54297 28 8.01781 28 14.7714Z" fill="white"/>
<path d="M15 21.5513V21.5649M15 7.97781V17.4888M28 14.7714C28 21.525 22.1798 26.9998 15 26.9998C7.8203 26.9998 2 21.525 2 14.7714C2 8.01781 7.8203 2.54297 15 2.54297C22.1798 2.54297 28 8.01781 28 14.7714Z" stroke="#F82B2B" stroke-opacity="0.9" stroke-width="3.75" stroke-linecap="round" stroke-linejoin="round"/>
<g opacity="0.15">
<path d="M28 14.2284C28 20.982 22.1798 26.4568 15 26.4568C7.8203 26.4568 2 20.982 2 14.2284C2 7.47485 7.8203 2 15 2C22.1798 2 28 7.47485 28 14.2284Z" fill="white"/>
<path d="M26.75 14.2284C26.75 20.2207 21.5626 25.2068 15 25.2068C8.4375 25.2068 3.25 20.2207 3.25 14.2284C3.25 8.23615 8.4375 3.25 15 3.25C21.5626 3.25 26.75 8.23615 26.75 14.2284Z" stroke="#F82B2B" stroke-opacity="0.9" stroke-width="2.5"/>
</g>
</svg>
