<svg width="257" height="208" viewBox="0 0 257 208" fill="none" xmlns="http://www.w3.org/2000/svg">
<g id="&#240;&#159;&#166;&#134; icon &#34;group students&#34;" filter="url(#filter0_d_41_36)">
<g id="Vector">
<mask id="path-1-inside-1_41_36" fill="white">
<path d="M252.182 184.228V182.907C251.686 170.359 250.693 157.811 249.205 145.262C247.964 135.576 246.476 126.11 244.491 116.644C243.251 110.479 239.529 106.517 233.327 104.315C229.605 102.995 225.636 101.674 221.914 100.353C219.682 99.6924 218.689 100.133 217.945 101.894C214.72 108.058 210.502 113.341 204.548 117.744C199.586 121.267 194.128 124.569 188.67 127.431C185.692 128.752 184.7 130.513 184.7 133.375C184.948 150.106 184.948 166.837 184.948 183.568V184.008H178.25V183.568V132.054C178.25 130.293 177.753 129.192 176.017 128.311C172.543 126.55 169.07 124.569 165.845 122.587C160.635 119.505 155.673 115.983 151.703 111.58C148.726 108.278 146.741 104.756 144.509 101.233C144.012 100.353 143.516 99.4722 142.028 99.9125C136.321 101.894 130.367 103.435 125.157 106.517C122.18 108.058 120.195 110.259 119.451 113.121C115.481 127.651 113.745 142.18 112.256 156.93C111.512 165.956 110.768 174.982 110.768 184.008C110.52 185.109 110.52 186.209 110.52 187.53C110.271 191.273 112.256 193.034 116.474 193.034H246.724C250.942 193.034 252.926 191.273 252.678 187.53C252.678 186.43 252.43 185.329 252.182 184.228ZM147.238 64.249C149.471 65.5699 150.463 67.1109 151.455 69.0922C154.681 76.357 158.402 83.4016 164.852 88.9052C174.28 97.0506 186.685 97.2708 196.361 89.5657C203.803 83.4016 208.517 75.6965 212.487 67.5512C212.983 66.2303 213.727 65.1296 215.216 64.249C220.922 60.9468 221.914 55.8835 217.697 51.0403C216.952 50.1597 217.697 49.7194 217.945 49.059C218.937 45.977 219.93 42.8949 219.93 39.8129C220.178 31.4474 216.208 24.6229 210.254 18.679C208.517 17.138 208.517 16.0372 209.262 14.4962C210.502 12.5149 211.742 10.7537 212.983 8.77244C209.262 8.99259 206.532 10.0933 203.803 11.4142C202.067 12.2948 201.571 11.8545 200.826 10.5336C199.09 7.45157 198.593 4.1494 197.601 0.627075C195.616 2.16809 194.624 3.92925 193.88 5.69041C192.887 7.67172 192.143 7.45157 190.654 6.35085C188.67 4.80983 186.933 2.82853 184.204 1.50766C184.204 2.16809 183.956 2.38824 183.956 2.60838C183.211 4.1494 185.444 6.35085 183.46 7.23143C181.971 8.11201 179.738 7.67172 178.001 7.67172L177.753 7.89186C162.371 9.43288 151.455 16.6977 144.757 28.5855C141.283 34.9697 142.028 41.5741 144.012 48.3986C144.509 49.2791 145.253 50.1597 144.261 51.2604C139.795 56.3238 142.524 61.8274 147.238 64.249ZM154.929 49.9396C162.62 50.3799 170.311 49.7194 177.753 48.1784C185.692 46.4172 192.639 43.1151 198.842 37.8316C200.826 43.7755 204.052 48.3986 209.013 52.141C209.758 52.8015 210.006 53.4619 209.758 54.3425C206.284 64.9094 201.819 75.2563 193.135 83.4016C190.654 85.6031 187.925 87.5844 184.452 88.465C177.753 90.006 172.791 87.1441 168.574 83.1815C162.62 77.2376 159.394 69.9728 156.665 62.4878C155.425 58.9655 154.432 55.4432 153.192 51.9209C152.696 50.1597 153.192 49.9396 154.929 49.9396ZM202.067 95.9499C201.322 95.9499 200.578 95.7297 200.082 96.6103C196.857 104.095 189.414 107.838 182.715 112.02C181.971 112.461 181.475 112.901 180.482 112.241C173.784 108.058 166.341 104.315 162.868 97.0506C162.62 96.3902 162.371 95.5096 161.379 95.9499C157.906 96.6103 154.681 97.0506 151.455 97.711C149.967 97.9312 150.215 98.5916 150.711 99.2521C153.44 102.995 155.673 106.737 159.146 110.039C165.101 115.983 173.04 119.726 180.482 124.128C181.475 124.789 182.219 124.349 182.963 123.908C186.933 121.487 190.902 119.065 195.12 116.644C202.563 112.461 207.773 106.077 211.991 99.2521C212.735 98.3715 212.735 97.711 210.998 97.4909C208.021 97.0506 205.044 96.6103 202.067 95.9499ZM102.332 187.53V184.008H102.581C102.581 174.982 103.325 165.956 104.069 156.93L104.813 149.665C99.3553 150.986 93.8972 152.087 88.191 152.967C81.9886 154.068 75.5381 155.389 69.0876 155.169C62.8853 154.729 56.6829 153.628 50.4805 152.527C39.0681 150.326 27.6557 147.684 16.2433 144.602C14.5067 144.162 14.0105 144.602 13.7624 146.143C12.0257 158.911 10.2891 171.68 9.79286 184.668C9.79286 185.989 9.79286 186.87 9.54476 187.53V189.071C9.29667 191.713 11.0333 193.034 14.7548 193.034L71.0724 192.814H107.542C103.821 192.814 102.084 191.053 102.332 187.53ZM20.9571 91.7671C22.6938 91.547 23.19 91.3268 23.19 89.7858C22.6938 82.521 23.19 75.4764 24.9267 68.6519C26.1672 64.6893 27.6557 61.167 31.6252 58.0849C32.6176 63.8087 35.3467 68.6519 40.0605 72.3944C41.301 73.2749 42.0453 74.5958 43.0376 75.9167C46.511 81.4203 50.7286 86.4836 56.4348 90.4463C64.87 96.3902 75.0419 96.6103 83.7253 90.8866C89.9276 86.9239 94.1453 81.4203 97.8667 75.6965C98.611 74.816 99.1072 73.9354 99.8515 73.2749C104.069 69.5325 106.55 65.1296 108.039 60.2864C108.287 59.626 108.039 58.5252 108.783 58.3051C110.023 58.0849 110.52 59.1857 111.264 59.8461C114.489 63.8087 115.978 68.2116 116.722 73.0548C117.714 78.5584 117.962 84.0621 117.714 89.5657C117.714 90.6664 117.466 91.547 119.203 91.7671C129.127 92.6477 136.57 86.7038 136.321 78.1181C136.073 66.2303 124.909 54.1223 111.76 51.7007C109.775 51.2604 109.279 50.3799 109.527 48.8388C109.775 44.4359 109.527 39.8129 107.791 35.6301C102.332 21.761 91.1681 13.6156 74.7938 11.8545C58.1714 10.3135 45.0224 16.4775 36.091 29.2459C32.1214 35.1898 30.6329 41.5741 31.1291 48.3986C31.3772 50.3799 30.881 51.2604 28.4 51.7007C20.9571 53.2417 15.251 57.2044 10.7852 62.708C7.06381 67.1109 4.83095 72.1742 4.58286 77.6778C4.33476 86.2635 9.79286 92.2074 20.9571 91.7671ZM43.5338 55.8835C47.7514 54.7828 49.7362 51.4806 51.721 48.3986C52.4653 47.0777 53.2095 45.5367 54.2019 43.5554C55.4424 47.0777 55.1943 50.1597 54.45 53.2417C53.9538 54.7828 54.45 55.2231 55.9386 55.4432C58.1714 55.4432 59.9081 55.0029 61.6448 53.682C64.87 50.3799 66.6067 46.4172 68.0953 42.4546C68.3434 41.7942 68.3434 41.1338 69.0876 40.4733C70.3281 44.2158 69.8319 48.1784 69.5838 51.9209C69.5838 53.2417 70.08 53.682 71.3205 53.9022C79.5076 54.7828 87.4467 55.2231 95.6338 53.682C98.8591 53.0216 98.8591 53.0216 98.3629 55.6633C96.3781 65.79 91.6643 74.816 83.9734 82.521C75.5381 91.1067 64.87 90.8866 56.4348 82.3009C55.9386 81.8606 55.6905 81.4203 55.1943 80.98C48.9919 74.1555 45.0224 66.4504 42.7895 57.8648C42.7895 56.9842 42.0453 56.1036 43.5338 55.8835ZM45.5186 114.442C46.0148 109.599 46.7591 104.756 47.2553 99.6924C40.8048 101.454 34.8505 103.655 29.1443 106.517C24.9267 108.718 22.1976 112.02 20.9571 116.203C18.9724 122.147 17.4838 128.311 15.9952 134.475C15.4991 136.457 16.2433 136.897 18.2281 137.337C32.3695 141.3 46.511 144.382 61.1486 146.583C65.1181 147.244 69.3357 148.344 73.5534 147.684C84.4695 146.143 95.1376 144.162 105.806 141.74C107.046 132.274 108.535 122.587 111.264 113.341C111.76 111.14 113.001 109.379 114.737 108.058C113.993 107.618 113.497 107.177 112.752 106.737C107.542 103.875 102.084 101.894 96.3781 100.133C94.1453 99.4722 94.1453 100.573 94.3934 101.894C95.6338 106.957 96.13 112.02 96.3781 117.084C96.8743 121.267 96.6262 125.449 96.6262 129.852C88.6872 125.669 80.7481 121.487 72.8091 117.084C71.5686 116.423 70.5762 116.203 69.0876 117.084C61.3967 121.267 53.9538 125.229 46.511 129.412C45.0224 130.072 44.5262 129.852 44.7743 128.531C45.0224 123.688 45.0224 119.065 45.5186 114.442Z"/>
</mask>
<path d="M252.182 184.228V182.907C251.686 170.359 250.693 157.811 249.205 145.262C247.964 135.576 246.476 126.11 244.491 116.644C243.251 110.479 239.529 106.517 233.327 104.315C229.605 102.995 225.636 101.674 221.914 100.353C219.682 99.6924 218.689 100.133 217.945 101.894C214.72 108.058 210.502 113.341 204.548 117.744C199.586 121.267 194.128 124.569 188.67 127.431C185.692 128.752 184.7 130.513 184.7 133.375C184.948 150.106 184.948 166.837 184.948 183.568V184.008H178.25V183.568V132.054C178.25 130.293 177.753 129.192 176.017 128.311C172.543 126.55 169.07 124.569 165.845 122.587C160.635 119.505 155.673 115.983 151.703 111.58C148.726 108.278 146.741 104.756 144.509 101.233C144.012 100.353 143.516 99.4722 142.028 99.9125C136.321 101.894 130.367 103.435 125.157 106.517C122.18 108.058 120.195 110.259 119.451 113.121C115.481 127.651 113.745 142.18 112.256 156.93C111.512 165.956 110.768 174.982 110.768 184.008C110.52 185.109 110.52 186.209 110.52 187.53C110.271 191.273 112.256 193.034 116.474 193.034H246.724C250.942 193.034 252.926 191.273 252.678 187.53C252.678 186.43 252.43 185.329 252.182 184.228ZM147.238 64.249C149.471 65.5699 150.463 67.1109 151.455 69.0922C154.681 76.357 158.402 83.4016 164.852 88.9052C174.28 97.0506 186.685 97.2708 196.361 89.5657C203.803 83.4016 208.517 75.6965 212.487 67.5512C212.983 66.2303 213.727 65.1296 215.216 64.249C220.922 60.9468 221.914 55.8835 217.697 51.0403C216.952 50.1597 217.697 49.7194 217.945 49.059C218.937 45.977 219.93 42.8949 219.93 39.8129C220.178 31.4474 216.208 24.6229 210.254 18.679C208.517 17.138 208.517 16.0372 209.262 14.4962C210.502 12.5149 211.742 10.7537 212.983 8.77244C209.262 8.99259 206.532 10.0933 203.803 11.4142C202.067 12.2948 201.571 11.8545 200.826 10.5336C199.09 7.45157 198.593 4.1494 197.601 0.627075C195.616 2.16809 194.624 3.92925 193.88 5.69041C192.887 7.67172 192.143 7.45157 190.654 6.35085C188.67 4.80983 186.933 2.82853 184.204 1.50766C184.204 2.16809 183.956 2.38824 183.956 2.60838C183.211 4.1494 185.444 6.35085 183.46 7.23143C181.971 8.11201 179.738 7.67172 178.001 7.67172L177.753 7.89186C162.371 9.43288 151.455 16.6977 144.757 28.5855C141.283 34.9697 142.028 41.5741 144.012 48.3986C144.509 49.2791 145.253 50.1597 144.261 51.2604C139.795 56.3238 142.524 61.8274 147.238 64.249ZM154.929 49.9396C162.62 50.3799 170.311 49.7194 177.753 48.1784C185.692 46.4172 192.639 43.1151 198.842 37.8316C200.826 43.7755 204.052 48.3986 209.013 52.141C209.758 52.8015 210.006 53.4619 209.758 54.3425C206.284 64.9094 201.819 75.2563 193.135 83.4016C190.654 85.6031 187.925 87.5844 184.452 88.465C177.753 90.006 172.791 87.1441 168.574 83.1815C162.62 77.2376 159.394 69.9728 156.665 62.4878C155.425 58.9655 154.432 55.4432 153.192 51.9209C152.696 50.1597 153.192 49.9396 154.929 49.9396ZM202.067 95.9499C201.322 95.9499 200.578 95.7297 200.082 96.6103C196.857 104.095 189.414 107.838 182.715 112.02C181.971 112.461 181.475 112.901 180.482 112.241C173.784 108.058 166.341 104.315 162.868 97.0506C162.62 96.3902 162.371 95.5096 161.379 95.9499C157.906 96.6103 154.681 97.0506 151.455 97.711C149.967 97.9312 150.215 98.5916 150.711 99.2521C153.44 102.995 155.673 106.737 159.146 110.039C165.101 115.983 173.04 119.726 180.482 124.128C181.475 124.789 182.219 124.349 182.963 123.908C186.933 121.487 190.902 119.065 195.12 116.644C202.563 112.461 207.773 106.077 211.991 99.2521C212.735 98.3715 212.735 97.711 210.998 97.4909C208.021 97.0506 205.044 96.6103 202.067 95.9499ZM102.332 187.53V184.008H102.581C102.581 174.982 103.325 165.956 104.069 156.93L104.813 149.665C99.3553 150.986 93.8972 152.087 88.191 152.967C81.9886 154.068 75.5381 155.389 69.0876 155.169C62.8853 154.729 56.6829 153.628 50.4805 152.527C39.0681 150.326 27.6557 147.684 16.2433 144.602C14.5067 144.162 14.0105 144.602 13.7624 146.143C12.0257 158.911 10.2891 171.68 9.79286 184.668C9.79286 185.989 9.79286 186.87 9.54476 187.53V189.071C9.29667 191.713 11.0333 193.034 14.7548 193.034L71.0724 192.814H107.542C103.821 192.814 102.084 191.053 102.332 187.53ZM20.9571 91.7671C22.6938 91.547 23.19 91.3268 23.19 89.7858C22.6938 82.521 23.19 75.4764 24.9267 68.6519C26.1672 64.6893 27.6557 61.167 31.6252 58.0849C32.6176 63.8087 35.3467 68.6519 40.0605 72.3944C41.301 73.2749 42.0453 74.5958 43.0376 75.9167C46.511 81.4203 50.7286 86.4836 56.4348 90.4463C64.87 96.3902 75.0419 96.6103 83.7253 90.8866C89.9276 86.9239 94.1453 81.4203 97.8667 75.6965C98.611 74.816 99.1072 73.9354 99.8515 73.2749C104.069 69.5325 106.55 65.1296 108.039 60.2864C108.287 59.626 108.039 58.5252 108.783 58.3051C110.023 58.0849 110.52 59.1857 111.264 59.8461C114.489 63.8087 115.978 68.2116 116.722 73.0548C117.714 78.5584 117.962 84.0621 117.714 89.5657C117.714 90.6664 117.466 91.547 119.203 91.7671C129.127 92.6477 136.57 86.7038 136.321 78.1181C136.073 66.2303 124.909 54.1223 111.76 51.7007C109.775 51.2604 109.279 50.3799 109.527 48.8388C109.775 44.4359 109.527 39.8129 107.791 35.6301C102.332 21.761 91.1681 13.6156 74.7938 11.8545C58.1714 10.3135 45.0224 16.4775 36.091 29.2459C32.1214 35.1898 30.6329 41.5741 31.1291 48.3986C31.3772 50.3799 30.881 51.2604 28.4 51.7007C20.9571 53.2417 15.251 57.2044 10.7852 62.708C7.06381 67.1109 4.83095 72.1742 4.58286 77.6778C4.33476 86.2635 9.79286 92.2074 20.9571 91.7671ZM43.5338 55.8835C47.7514 54.7828 49.7362 51.4806 51.721 48.3986C52.4653 47.0777 53.2095 45.5367 54.2019 43.5554C55.4424 47.0777 55.1943 50.1597 54.45 53.2417C53.9538 54.7828 54.45 55.2231 55.9386 55.4432C58.1714 55.4432 59.9081 55.0029 61.6448 53.682C64.87 50.3799 66.6067 46.4172 68.0953 42.4546C68.3434 41.7942 68.3434 41.1338 69.0876 40.4733C70.3281 44.2158 69.8319 48.1784 69.5838 51.9209C69.5838 53.2417 70.08 53.682 71.3205 53.9022C79.5076 54.7828 87.4467 55.2231 95.6338 53.682C98.8591 53.0216 98.8591 53.0216 98.3629 55.6633C96.3781 65.79 91.6643 74.816 83.9734 82.521C75.5381 91.1067 64.87 90.8866 56.4348 82.3009C55.9386 81.8606 55.6905 81.4203 55.1943 80.98C48.9919 74.1555 45.0224 66.4504 42.7895 57.8648C42.7895 56.9842 42.0453 56.1036 43.5338 55.8835ZM45.5186 114.442C46.0148 109.599 46.7591 104.756 47.2553 99.6924C40.8048 101.454 34.8505 103.655 29.1443 106.517C24.9267 108.718 22.1976 112.02 20.9571 116.203C18.9724 122.147 17.4838 128.311 15.9952 134.475C15.4991 136.457 16.2433 136.897 18.2281 137.337C32.3695 141.3 46.511 144.382 61.1486 146.583C65.1181 147.244 69.3357 148.344 73.5534 147.684C84.4695 146.143 95.1376 144.162 105.806 141.74C107.046 132.274 108.535 122.587 111.264 113.341C111.76 111.14 113.001 109.379 114.737 108.058C113.993 107.618 113.497 107.177 112.752 106.737C107.542 103.875 102.084 101.894 96.3781 100.133C94.1453 99.4722 94.1453 100.573 94.3934 101.894C95.6338 106.957 96.13 112.02 96.3781 117.084C96.8743 121.267 96.6262 125.449 96.6262 129.852C88.6872 125.669 80.7481 121.487 72.8091 117.084C71.5686 116.423 70.5762 116.203 69.0876 117.084C61.3967 121.267 53.9538 125.229 46.511 129.412C45.0224 130.072 44.5262 129.852 44.7743 128.531C45.0224 123.688 45.0224 119.065 45.5186 114.442Z" fill="black" stroke="black" stroke-width="2" mask="url(#path-1-inside-1_41_36)"/>
</g>
</g>
<defs>
<filter id="filter0_d_41_36" x="0.574768" y="0.627075" width="256.124" height="206.407" filterUnits="userSpaceOnUse" color-interpolation-filters="sRGB">
<feFlood flood-opacity="0" result="BackgroundImageFix"/>
<feColorMatrix in="SourceAlpha" type="matrix" values="0 0 0 0 0 0 0 0 0 0 0 0 0 0 0 0 0 0 127 0" result="hardAlpha"/>
<feOffset dy="10"/>
<feGaussianBlur stdDeviation="2"/>
<feComposite in2="hardAlpha" operator="out"/>
<feColorMatrix type="matrix" values="0 0 0 0 0 0 0 0 0 0 0 0 0 0 0 0 0 0 0.4 0"/>
<feBlend mode="normal" in2="BackgroundImageFix" result="effect1_dropShadow_41_36"/>
<feBlend mode="normal" in="SourceGraphic" in2="effect1_dropShadow_41_36" result="shape"/>
</filter>
</defs>
</svg>
